# Blender v2.79 (sub 0) OBJ File: 'barracks.blend'
# www.blender.org
mtllib barracks.mtl
o Cube
v -15.908134 -15.764018 15.883216
v -15.908134 -12.364018 15.883216
v -15.908134 -15.764018 12.483216
v -15.908134 -12.364018 12.483216
v -12.508134 -15.764018 15.883216
v -12.508134 -12.364018 15.883216
v -12.508134 -15.764018 12.483216
v -12.508134 -12.364018 12.483216
v 12.491869 -15.764018 15.883216
v 12.491869 -12.364018 15.883216
v 12.491869 -15.764018 12.483216
v 12.491869 -12.364018 12.483216
v 15.984804 -15.764018 15.883216
v 15.984804 -12.364018 15.883216
v 15.984804 -15.764018 12.483216
v 15.984804 -12.364018 12.483216
v -15.908134 -15.764018 -15.516785
v -15.908134 -12.364018 -15.516785
v -12.508134 -15.764018 -15.516785
v -12.508134 -12.364018 -15.516785
v 12.491869 -15.764018 -15.516785
v 12.491869 -12.364018 -15.516785
v 15.984804 -15.764018 -15.516785
v 15.984804 -12.364018 -15.516785
v 14.238337 -9.364017 -15.516785
v 14.238337 -9.364017 12.483216
v 15.984804 -12.364018 14.183216
v 12.491869 -9.364017 14.183216
v 14.238337 -9.364017 14.183216
v -12.508134 -9.364017 14.183216
v -14.208134 -9.364017 12.483216
v -14.208134 -12.364018 15.883216
v -14.208134 -9.364017 14.183216
v -14.208134 -9.364017 -15.516785
v 13.365105 -10.864018 13.333216
vn 0.0000 -1.0000 0.0000
vn 0.0000 0.4930 -0.8700
vn 0.0000 -0.4930 -0.8700
vn -0.8642 0.5031 0.0000
vn 0.8642 0.5031 0.0000
vn 0.0000 0.4930 0.8700
vn 0.8700 -0.4930 0.0000
vn -0.5518 -0.6254 0.5518
vn -0.8700 -0.4930 0.0000
vn -0.8700 0.4930 0.0000
vn -1.0000 0.0000 0.0000
vn 0.0000 0.0000 1.0000
vn 0.0000 0.0000 -1.0000
vn 1.0000 0.0000 0.0000
usemtl Material.001
s off
f 7//1 3//1 17//1 19//1
f 3//1 7//1 5//1 1//1
f 5//1 7//1 11//1 9//1
f 12//2 8//2 30//2 28//2
f 9//1 11//1 15//1 13//1
f 15//1 11//1 21//1 23//1
f 6//3 30//3 28//3 10//3
f 12//4 26//4 25//4 22//4
f 16//5 24//5 25//5 26//5
f 27//5 16//5 26//5 29//5
f 27//5 29//5 14//5
f 10//3 29//3 14//3
f 29//6 28//6 10//6
f 33//3 30//3 6//3 32//3
f 33//3 32//3 2//3
f 33//7 2//7 4//7
f 33//7 4//7 31//7
f 33//8 31//8 8//8 30//8
f 29//4 26//4 35//4
f 35//4 26//4 12//4
f 35//2 12//2 28//2
f 29//2 35//2 28//2
f 8//9 31//9 34//9 20//9
f 18//10 4//10 31//10 34//10
usemtl Material.002
f 1//11 2//11 4//11 3//11
f 6//12 5//12 9//12 10//12
f 5//12 6//12 32//12 2//12 1//12
f 10//12 9//12 13//12 14//12
f 7//13 8//13 12//13 11//13
f 15//14 16//14 27//14 14//14 13//14
f 17//13 18//13 20//13 19//13
f 3//11 4//11 18//11 17//11
f 8//14 7//14 19//14 20//14
f 34//13 20//13 18//13
f 16//14 15//14 23//14 24//14
f 21//13 22//13 24//13 23//13
f 25//13 24//13 22//13
l 29 33
l 33 34
o Plane
v -16.000000 -16.000000 16.000000
v 16.000000 -16.000000 16.000000
v -16.000000 -16.000000 -16.000000
v 16.000000 -16.000000 -16.000000
vn 0.0000 1.0000 0.0000
usemtl Material
s off
f 36//15 37//15 39//15 38//15
o Boundary_Cube.001
v -16.000000 -16.000000 16.000000
v -16.000000 16.000000 16.000000
v -16.000000 -16.000000 -16.000000
v -16.000000 16.000000 -16.000000
v 16.000000 -16.000000 16.000000
v 16.000000 16.000000 16.000000
v 16.000000 -16.000000 -16.000000
v 16.000000 16.000000 -16.000000
l 42 40
l 40 41
l 41 43
l 43 42
l 46 42
l 43 47
l 47 46
l 44 46
l 47 45
l 45 44
l 40 44
l 45 41
