# Blender v2.79 (sub 0) OBJ File: 'big_factory.blend'
# www.blender.org
mtllib big_factory.mtl
o Cube.008_Cube.009
v 1.822881 28.764200 -7.201028
v 1.342881 31.619083 -7.201028
v 1.982881 28.764200 -10.401029
v 1.662881 31.619083 -10.401029
v 2.311160 30.191643 -11.041028
v -0.524433 31.904572 -8.801028
v 2.355748 30.191643 -6.721028
v -2.017119 28.764200 -7.201028
v -1.537119 31.619083 -7.201028
v -2.017119 28.764200 -10.401029
v -1.857119 31.619083 -10.401029
v -3.297119 30.191643 -10.561029
v -3.297119 30.191643 -6.721029
v 0.049701 28.335968 -8.801028
v 2.882754 30.191643 -8.881029
v 1.681380 31.619083 -8.801028
v 1.681381 26.931213 -4.611868
v 2.882754 25.503773 -4.691869
v 1.822881 29.113297 -17.125347
v 1.342881 31.968180 -17.125347
v 1.982881 29.113297 -20.325346
v 1.662881 31.968180 -20.325346
v 2.311160 30.540737 -20.965345
v -0.524433 32.253666 -18.725348
v 2.355748 30.540737 -16.645346
v -2.017119 29.113297 -17.125347
v -1.537119 31.968180 -17.125347
v -2.017119 29.113297 -20.325346
v -1.857119 31.968180 -20.325346
v -3.297119 30.540737 -20.485348
v -3.297119 30.540737 -16.645346
v 0.049701 28.685064 -18.725348
v 2.882754 30.540737 -18.805347
v 1.681381 31.968180 -18.725348
v 0.049701 23.648098 -4.611868
v -3.297119 25.503773 -2.531868
v -3.297119 25.503773 -6.371870
v -1.857119 26.931213 -6.211868
v -2.017119 24.076332 -6.211868
v -1.537119 26.931213 -3.011868
v -2.017119 24.076332 -3.011868
v 2.355748 25.503773 -2.531868
v -0.524433 27.216702 -4.611868
v 2.311160 25.503773 -6.851868
v 1.662881 26.931213 -6.211868
v 1.982881 24.076332 -6.211868
v 1.342881 26.931213 -3.011868
v 1.822881 24.076332 -3.011868
v 1.822881 29.262909 2.224582
v 1.342881 32.117790 2.224582
v 1.982881 29.262909 -0.975418
v 1.662881 32.117790 -0.975418
v 2.311160 30.690351 -1.615417
v -0.524433 32.403282 0.624582
v 2.355748 30.690351 2.704582
v -2.017119 29.262909 2.224581
v -1.537119 32.117790 2.224581
v -2.017119 29.262909 -0.975419
v -1.857119 32.117790 -0.975419
v -3.297119 30.690351 -1.135419
v -3.297119 30.690351 2.704581
v 0.049701 28.834677 0.624582
v 2.882754 30.690351 0.544582
v 1.681380 32.117790 0.624582
v 1.681380 27.679277 4.315032
v 2.882754 26.251837 4.235032
v 0.049701 24.396162 4.315032
v -3.297119 26.251837 6.395031
v -3.297119 26.251837 2.555031
v -1.857119 27.679277 2.715032
v -2.017119 24.824394 2.715032
v -1.537119 27.679277 5.915032
v -2.017119 24.824394 5.915032
v 2.355748 26.251837 6.395032
v -0.524433 27.964766 4.315032
v 2.311160 26.251837 2.075033
v 1.662881 27.679277 2.715032
v 1.982881 24.824394 2.715032
v 1.342881 27.679277 5.915032
v 1.822881 24.824394 5.915032
v 1.822881 19.587944 8.408580
v 1.342881 22.442827 8.408580
v 1.982881 19.587944 5.208580
v 1.662881 22.442827 5.208580
v 2.311160 21.015387 4.568580
v -0.524433 22.728315 6.808579
v 2.355748 21.015387 8.888579
v -2.017119 19.587944 8.408580
v -1.537119 22.442827 8.408580
v -2.017119 19.587944 5.208580
v -1.857119 22.442827 5.208580
v -3.297119 21.015387 5.048578
v -3.297119 21.015387 8.888579
v 0.049701 19.159714 6.808579
v 2.882754 21.015387 6.728579
v 1.681380 22.442827 6.808579
v 1.681381 22.193474 -1.370257
v 2.882754 20.766033 -1.450257
v 0.049701 18.910358 -1.370257
v -3.297119 20.766033 0.709743
v -3.297119 20.766033 -3.130257
v -1.857119 22.193474 -2.970257
v -2.017119 19.338591 -2.970257
v -1.537119 22.193474 0.229743
v -2.017119 19.338591 0.229743
v 2.355748 20.766033 0.709744
v -0.524433 22.478962 -1.370257
v 2.311160 20.766033 -3.610256
v 1.662881 22.193474 -2.970257
v 1.982881 19.338591 -2.970257
v 1.342881 22.193474 0.229743
v 1.822881 19.338591 0.229743
v 1.822881 19.338591 -7.699738
v 1.342881 22.193474 -7.699738
v 1.982881 19.338591 -10.899737
v 1.662881 22.193474 -10.899737
v 2.311160 20.766033 -11.539737
v -0.524433 22.478962 -9.299738
v 2.355748 20.766033 -7.219738
v -2.017119 19.338591 -7.699738
v -1.537119 22.193474 -7.699738
v -2.017119 19.338591 -10.899737
v -1.857119 22.193474 -10.899737
v -3.297119 20.766033 -11.059738
v -3.297119 20.766033 -7.219738
v 0.049701 18.910358 -9.299738
v 2.882754 20.766033 -9.379738
v 1.681381 22.193474 -9.299738
v 1.681381 26.831470 -13.538768
v 2.882754 25.404030 -13.618769
v 0.049701 23.548355 -13.538768
v -3.297120 25.404030 -11.458768
v -3.297119 25.404030 -15.298769
v -1.857119 26.831470 -15.138768
v -2.017119 23.976589 -15.138768
v -1.537119 26.831470 -11.938768
v -2.017119 23.976589 -11.938768
v 2.355748 25.404030 -11.458768
v -0.524433 27.116959 -13.538768
v 2.311160 25.404030 -15.778768
v 1.662881 26.831470 -15.138768
v 1.982881 23.976589 -15.138768
v 1.342881 26.831470 -11.938768
v 1.822881 23.976589 -11.938768
vn 0.0000 -0.3187 -0.9478
vn -0.7657 -0.6186 -0.1763
vn 0.8248 -0.5639 0.0412
vn 0.0000 0.3187 -0.9478
vn 0.8885 -0.4046 0.2168
vn -0.0000 -0.9845 0.1757
vn -0.8865 0.4626 -0.0136
vn 0.6637 -0.7474 -0.0302
vn -0.2251 0.9743 -0.0113
vn -0.8172 -0.5618 0.1283
vn 0.9161 -0.3194 -0.2424
vn 0.0478 0.2843 0.9575
vn 0.0504 -0.2824 0.9580
vn 0.0000 0.9660 0.2585
vn 0.2365 -0.9714 -0.0236
vn 0.2029 0.9792 0.0000
vn 0.0000 -0.9845 -0.1757
vn 0.7445 0.6676 0.0000
vn 0.0000 0.9660 -0.2585
vn -0.1283 -0.9916 -0.0128
vn 0.2365 -0.9713 -0.0236
usemtl Material.003
s off
f 50//1 55//1 61//1 57//1
f 66//2 74//2 79//2 65//2
f 63//3 49//3 51//3
f 55//4 49//4 56//4 61//4
f 49//5 63//5 55//5
f 63//2 55//2 50//2 64//2
f 54//6 59//6 52//6
f 53//7 51//7 49//7 55//7 63//7
f 61//8 60//8 59//8 57//8
f 51//9 62//9 49//9
f 68//8 69//8 70//8 72//8
f 64//10 52//10 53//10 63//10
f 53//11 63//11 51//11
f 75//6 70//6 77//6
f 80//5 66//5 74//5
f 51//12 53//12 60//12 58//12
f 21//9 32//9 19//9
f 24//6 29//6 22//6
f 21//12 23//12 30//12 28//12
f 23//13 22//13 29//13 30//13
f 25//4 19//4 26//4 31//4
f 28//14 32//14 21//14
f 29//15 24//15 27//15
f 20//1 25//1 31//1 27//1
f 32//16 28//16 26//16
f 20//17 27//17 24//17
f 30//18 31//18 26//18 28//18
f 31//8 30//8 29//8 27//8
f 19//19 32//19 26//19
f 23//7 21//7 19//7 25//7 33//7
f 23//11 33//11 21//11
f 22//20 34//20 20//20 24//20
f 76//7 78//7 80//7 74//7 66//7
f 74//4 80//4 73//4 68//4
f 78//9 67//9 80//9
f 65//10 77//10 76//10 66//10
f 78//12 76//12 69//12 71//12
f 79//1 74//1 68//1 72//1
f 66//3 80//3 78//3
f 76//11 66//11 78//11
f 79//17 72//17 75//17
f 80//19 67//19 73//19
f 67//16 71//16 73//16
f 69//18 68//18 73//18 71//18
f 77//20 65//20 79//20 75//20
f 76//13 77//13 70//13 69//13
f 71//14 67//14 78//14
f 70//15 75//15 72//15
f 94//16 90//16 88//16
f 82//1 87//1 93//1 89//1
f 90//14 94//14 83//14
f 82//17 89//17 86//17
f 92//18 93//18 88//18 90//18
f 96//10 84//10 85//10 95//10
f 87//4 81//4 88//4 93//4
f 95//3 81//3 83//3
f 85//13 84//13 91//13 92//13
f 91//15 86//15 89//15
f 83//12 85//12 92//12 90//12
f 85//11 95//11 83//11
f 81//19 94//19 88//19
f 84//20 96//20 82//20 86//20
f 85//7 83//7 81//7 87//7 95//7
f 83//9 94//9 81//9
f 100//8 101//8 102//8 104//8
f 98//2 106//2 111//2 97//2
f 107//6 102//6 109//6
f 112//5 98//5 106//5
f 102//15 107//15 104//15
f 103//14 99//14 110//14
f 97//10 109//10 108//10 98//10
f 111//1 106//1 100//1 104//1
f 101//18 100//18 105//18 103//18
f 111//17 104//17 107//17
f 86//6 91//6 84//6
f 108//11 98//11 110//11
f 95//2 87//2 82//2 96//2
f 93//8 92//8 91//8 89//8
f 98//3 112//3 110//3
f 81//5 95//5 87//5
f 108//7 110//7 112//7 106//7 98//7
f 126//16 122//16 120//16
f 115//12 117//12 124//12 122//12
f 115//9 126//9 113//9
f 113//19 126//19 120//19
f 106//4 112//4 105//4 100//4
f 116//20 128//20 114//20 118//20
f 112//19 99//19 105//19
f 99//16 103//16 105//16
f 108//13 109//13 102//13 101//13
f 117//13 116//13 123//13 124//13
f 117//7 115//7 113//7 119//7 127//7
f 119//4 113//4 120//4 125//4
f 109//20 97//20 111//20 107//20
f 110//12 108//12 101//12 103//12
f 110//9 99//9 112//9
f 122//14 126//14 115//14
f 127//2 119//2 114//2 128//2
f 144//5 130//5 138//5
f 129//10 141//10 140//10 130//10
f 130//3 144//3 142//3
f 123//15 118//15 121//15
f 114//1 119//1 125//1 121//1
f 128//10 116//10 117//10 127//10
f 124//18 125//18 120//18 122//18
f 118//6 123//6 116//6
f 127//3 113//3 115//3
f 130//2 138//2 143//2 129//2
f 125//8 124//8 123//8 121//8
f 114//17 121//17 118//17
f 113//5 127//5 119//5
f 117//11 127//11 115//11
f 132//8 133//8 134//8 136//8
f 143//17 136//17 139//17
f 143//1 138//1 132//1 136//1
f 133//18 132//18 137//18 135//18
f 140//11 130//11 142//11
f 139//6 134//6 141//6
f 135//14 131//14 142//14
f 134//15 139//15 136//15
f 138//4 144//4 137//4 132//4
f 144//19 131//19 137//19
f 140//13 141//13 134//13 133//13
f 142//12 140//12 133//12 135//12
f 140//7 142//7 144//7 138//7 130//7
f 141//20 129//20 143//20 139//20
f 131//16 135//16 137//16
f 142//9 131//9 144//9
f 47//1 42//1 36//1 40//1
f 62//16 58//16 56//16
f 50//17 57//17 54//17
f 44//7 46//7 48//7 42//7 18//7
f 42//4 48//4 41//4 36//4
f 52//20 64//20 50//20 54//20
f 60//18 61//18 56//18 58//18
f 48//5 18//5 42//5
f 58//14 62//14 51//14
f 53//13 52//13 59//13 60//13
f 18//3 48//3 46//3
f 36//8 37//8 38//8 40//8
f 59//21 54//21 57//21
f 43//6 38//6 45//6
f 18//2 42//2 47//2 17//2
f 49//19 62//19 56//19
f 33//3 19//3 21//3
f 19//5 33//5 25//5
f 33//2 25//2 20//2 34//2
f 34//10 22//10 23//10 33//10
f 46//9 35//9 48//9
f 17//10 45//10 44//10 18//10
f 44//11 18//11 46//11
f 46//12 44//12 37//12 39//12
f 35//16 39//16 41//16
f 47//17 40//17 43//17
f 45//20 17//20 47//20 43//20
f 37//18 36//18 41//18 39//18
f 39//14 35//14 46//14
f 44//13 45//13 38//13 37//13
f 38//15 43//15 40//15
f 48//19 35//19 41//19
f 2//1 7//1 13//1 9//1
f 5//7 3//7 1//7 7//7 15//7
f 7//4 1//4 8//4 13//4
f 1//5 15//5 7//5
f 15//3 1//3 3//3
f 13//8 12//8 11//8 9//8
f 6//6 11//6 4//6
f 15//2 7//2 2//2 16//2
f 3//9 14//9 1//9
f 16//10 4//10 5//10 15//10
f 5//11 15//11 3//11
f 3//12 5//12 12//12 10//12
f 14//16 10//16 8//16
f 2//17 9//17 6//17
f 4//20 16//20 2//20 6//20
f 12//18 13//18 8//18 10//18
f 10//14 14//14 3//14
f 5//13 4//13 11//13 12//13
f 11//15 6//15 9//15
f 1//19 14//19 8//19
o Cube_Cube.002
v 15.523667 -17.817097 15.627989
v 13.955668 3.750900 14.059990
v -15.836329 -17.817097 15.627987
v -14.268331 3.750900 14.059988
v 15.523669 -17.817097 -15.732008
v 13.955670 3.750900 -14.164009
v -15.836328 -17.817097 -15.732010
v -14.268329 3.750900 -14.164011
v -15.836329 3.526900 15.627987
v -15.836328 3.526900 -15.732010
v 15.523669 3.526900 -15.732008
v 15.523667 3.526900 15.627989
v 12.387668 8.390901 12.491989
v -12.700330 8.390901 12.491987
v 12.387670 8.390901 -12.596008
v -12.700328 8.390901 -12.596010
v 1.243670 8.390901 1.347989
v -1.554013 8.390901 1.347989
v 1.243669 8.390901 9.019989
v 1.243670 8.390901 -6.324010
v -1.553338 8.390901 9.019989
v -1.554688 8.390901 -6.324010
v 1.243669 8.390901 5.883989
v -1.553676 8.390901 5.883989
v -1.554351 8.390901 -1.788011
v 1.243670 8.390901 -1.788011
v 1.243670 8.390901 -9.460010
v -1.555026 8.390901 -9.460010
v 1.243669 17.350901 9.019989
v -1.553338 17.350901 9.019989
v 1.243669 17.350901 5.883989
v -1.553676 17.350901 5.883989
v 1.243670 17.350901 1.347989
v -1.554013 17.350901 1.347989
v -1.554351 17.350901 -1.788011
v 1.243670 17.350901 -1.788011
v 1.243670 17.350901 -6.324010
v -1.554688 17.350901 -6.324010
v 1.243670 17.350901 -9.460010
v -1.555026 17.350901 -9.460010
vn 0.0000 0.0000 -1.0000
vn 1.0000 0.0000 0.0000
vn -0.0000 0.0000 1.0000
vn -1.0000 0.0000 -0.0000
vn 0.0000 -1.0000 0.0000
vn 0.9474 0.3201 0.0000
vn -0.9474 0.3201 -0.0000
vn 0.0000 0.3201 -0.9474
vn -0.0000 0.3201 0.9474
vn 0.0000 1.0000 0.0000
vn -0.1414 0.9899 -0.0000
vn -0.0000 0.9899 0.1414
vn 0.1414 0.9899 0.0000
vn 0.0000 0.9899 -0.1414
vn -1.0000 0.0000 0.0001
vn 1.0000 0.0000 -0.0001
usemtl Material
s off
f 151//22 154//22 155//22 149//22
f 155//23 156//23 145//23 149//23
f 145//24 156//24 153//24 147//24
f 147//25 153//25 154//25 151//25
f 147//26 151//26 149//26 145//26
f 146//27 150//27 159//27 157//27
f 152//28 148//28 158//28 160//28
f 150//29 152//29 160//29 159//29
f 146//30 157//30 158//30 148//30
f 158//31 157//31 159//31 160//31
f 152//32 154//32 153//32 148//32
f 156//33 146//33 148//33 153//33
f 156//34 155//34 150//34 146//34
f 150//35 155//35 154//35 152//35
usemtl Material.001
f 175//31 176//31 174//31 173//31
f 167//22 168//22 176//22 175//22
f 168//36 165//36 174//36 176//36
f 165//24 163//24 173//24 174//24
f 163//23 167//23 175//23 173//23
f 179//26 180//26 177//26 178//26
f 161//22 162//22 178//22 177//22
f 170//25 161//25 177//25 180//25
f 169//24 170//24 180//24 179//24
f 162//37 169//37 179//37 178//37
f 183//31 184//31 182//31 181//31
f 172//36 166//36 182//36 184//36
f 171//22 172//22 184//22 183//22
f 164//23 171//23 183//23 181//23
f 166//24 164//24 181//24 182//24
