# Blender v2.78 (sub 0) OBJ File: 'kiln.blend'
# www.blender.org
mtllib kiln.mtl
o Cylinder_Cylinder.001
v 0.000000 -16.000000 -16.000000
v 0.000001 16.000000 -4.503526
v 3.121445 -16.000000 -15.692564
v 0.859588 16.000000 -4.418864
v 6.122935 -16.000000 -14.782072
v 1.686141 16.000000 -4.168132
v 8.889124 -16.000000 -13.303514
v 2.447897 16.000000 -3.760965
v 11.313708 -16.000000 -11.313708
v 3.115581 16.000000 -3.213010
v 13.303514 -16.000000 -8.889123
v 3.663536 16.000000 -2.545326
v 14.782072 -16.000000 -6.122935
v 4.070703 16.000000 -1.783570
v 15.692564 -16.000000 -3.121446
v 4.321435 16.000000 -0.957017
v 16.000000 -16.000000 -0.000001
v 4.406097 16.000000 -0.097430
v 15.692565 -16.000000 3.121443
v 4.321435 16.000000 0.762156
v 14.782073 -16.000000 6.122932
v 4.070704 16.000000 1.588709
v 13.303514 -16.000000 8.889123
v 3.663536 16.000000 2.350465
v 11.313708 -16.000000 11.313708
v 3.115581 16.000000 3.018150
v 8.889123 -16.000000 13.303514
v 2.447896 16.000000 3.566105
v 6.122932 -16.000000 14.782074
v 1.686140 16.000000 3.973272
v 3.121441 -16.000000 15.692565
v 0.859587 16.000000 4.224004
v -0.000005 -16.000000 16.000000
v -0.000001 16.000000 4.364835
v -3.121452 -16.000000 15.692563
v -0.859587 16.000000 4.224003
v -6.122942 -16.000000 14.782069
v -1.686141 16.000000 3.973271
v -8.889132 -16.000000 13.303509
v -2.447896 16.000000 3.566103
v -11.313716 -16.000000 11.313702
v -3.115581 16.000000 3.018148
v -13.303520 -16.000000 8.889114
v -3.663535 16.000000 2.350463
v -14.782078 -16.000000 6.122923
v -4.070702 16.000000 1.588707
v -15.692567 -16.000000 3.121431
v -4.321433 16.000000 0.762153
v -16.000000 -16.000000 -0.000015
v -4.406095 16.000000 -0.097434
v -15.692561 -16.000000 -3.121462
v -4.321432 16.000000 -0.957021
v -14.782065 -16.000000 -6.122952
v -4.070699 16.000000 -1.783574
v -13.303503 -16.000000 -8.889140
v -3.663530 16.000000 -2.545330
v -11.313694 -16.000000 -11.313723
v -3.115575 16.000000 -3.213014
v -8.889106 -16.000000 -13.303526
v -2.447889 16.000000 -3.760968
v -6.122913 -16.000000 -14.782082
v -1.686133 16.000000 -4.168134
v -3.121421 -16.000000 -15.692569
v -0.859579 16.000000 -4.418865
v 0.000001 16.000000 -3.718819
v 0.725506 16.000000 -3.647363
v 1.423131 16.000000 -3.435741
v 2.066064 16.000000 -3.092086
v 2.629601 16.000000 -2.629603
v 3.092083 16.000000 -2.066067
v 3.435739 16.000000 -1.423133
v 3.647361 16.000000 -0.725509
v 3.718816 16.000000 -0.000004
v 3.647361 16.000000 0.725501
v 3.435739 16.000000 1.423125
v 3.092083 16.000000 2.066059
v 2.629601 16.000000 2.629596
v 2.066064 16.000000 3.092078
v 1.423130 16.000000 3.435734
v 0.725505 16.000000 3.647356
v 0.000000 16.000000 3.718812
v -0.725505 16.000000 3.647355
v -1.423129 16.000000 3.435733
v -2.066064 16.000000 3.092077
v -2.629600 16.000000 2.629594
v -3.092082 16.000000 2.066057
v -3.435737 16.000000 1.423123
v -3.647359 16.000000 0.725498
v -3.718814 16.000000 -0.000007
v -3.647357 16.000000 -0.725512
v -3.435735 16.000000 -1.423136
v -3.092078 16.000000 -2.066071
v -2.629595 16.000000 -2.629606
v -2.066058 16.000000 -3.092088
v -1.423123 16.000000 -3.435743
v -0.725498 16.000000 -3.647364
v 0.000001 16.000000 -3.775137
v 0.736493 16.000000 -3.702599
v 1.444682 16.000000 -3.487772
v 2.097353 16.000000 -3.138912
v 2.669424 16.000000 -2.669426
v 3.138910 16.000000 -2.097355
v 3.487770 16.000000 -1.444685
v 3.702597 16.000000 -0.736496
v 3.775135 16.000000 -0.000004
v 3.702597 16.000000 0.736488
v 3.487770 16.000000 1.444677
v 3.138910 16.000000 2.097348
v 2.669424 16.000000 2.669419
v 2.097353 16.000000 3.138905
v 1.444682 16.000000 3.487765
v 0.736492 16.000000 3.702592
v 0.000000 16.000000 3.775130
v -0.736492 16.000000 3.702591
v -1.444681 16.000000 3.487764
v -2.097352 16.000000 3.138904
v -2.669423 16.000000 2.669417
v -3.138909 16.000000 2.097346
v -3.487769 16.000000 1.444674
v -3.702595 16.000000 0.736485
v -3.775132 16.000000 -0.000007
v -3.702593 16.000000 -0.736500
v -3.487766 16.000000 -1.444689
v -3.138905 16.000000 -2.097359
v -2.669418 16.000000 -2.669430
v -2.097346 16.000000 -3.138916
v -1.444674 16.000000 -3.487774
v -0.736485 16.000000 -3.702600
v 0.000000 -15.000000 -13.281314
v 2.591056 -15.000000 -13.026115
v 5.082538 -15.000000 -12.270332
v 7.378701 -15.000000 -11.043009
v 9.391306 -15.000000 -9.391306
v 11.043008 -15.000000 -7.378702
v 12.270331 -15.000000 -5.082539
v 13.026115 -15.000000 -2.591056
v 13.281312 -15.000000 -0.000002
v 13.026115 -15.000000 2.591053
v 12.270332 -15.000000 5.082535
v 11.043008 -15.000000 7.378700
v 9.391306 -15.000000 9.391305
v 7.378700 -15.000000 11.043007
v 5.082536 -15.000000 12.270332
v 2.591053 -15.000000 13.026115
v 3.121441 -9.705318 15.115195
v -2.591060 -15.000000 13.026113
v -5.082543 -15.000000 12.270329
v -7.378708 -15.000000 11.043002
v -9.391312 -15.000000 9.391298
v -11.043012 -15.000000 7.378692
v -12.270336 -15.000000 5.082527
v -13.026117 -15.000000 2.591043
v -13.281311 -15.000000 -0.000014
v -13.026112 -15.000000 -2.591070
v -12.270326 -15.000000 -5.082552
v -11.042997 -15.000000 -7.378716
v -9.391293 -15.000000 -9.391318
v -7.378686 -15.000000 -11.043018
v -5.082520 -15.000000 -12.270340
v -2.591035 -15.000000 -13.026118
v -0.000005 -8.172664 15.422630
v -3.121452 -9.705318 15.115193
v 2.638215 -9.705318 13.329408
v -0.000005 -8.172664 14.371464
v -2.667029 -9.705318 13.291018
v 2.172530 -9.705318 12.283933
v -0.000005 -8.172664 11.824249
v -2.255992 -9.705318 12.090681
v 0.000000 -15.000000 -13.281314
v 2.591056 -15.000000 -13.026115
v 5.082538 -15.000000 -12.270332
v 7.378701 -15.000000 -11.043009
v 9.391306 -15.000000 -9.391306
v 11.043008 -15.000000 -7.378702
v 12.270331 -15.000000 -5.082539
v 13.026115 -15.000000 -2.591056
v 13.281312 -15.000000 -0.000002
v 13.026115 -15.000000 2.591053
v 12.270332 -15.000000 5.082535
v 11.043008 -15.000000 7.378700
v 9.391306 -15.000000 9.391305
v 7.378700 -15.000000 11.043007
v 5.082536 -15.000000 12.270332
v 2.591053 -15.000000 13.026115
v -2.591060 -15.000000 13.026113
v -5.082543 -15.000000 12.270329
v -7.378708 -15.000000 11.043002
v -9.391312 -15.000000 9.391298
v -11.043012 -15.000000 7.378692
v -12.270336 -15.000000 5.082527
v -13.026117 -15.000000 2.591043
v -13.281311 -15.000000 -0.000014
v -13.026112 -15.000000 -2.591070
v -12.270326 -15.000000 -5.082552
v -11.042997 -15.000000 -7.378716
v -9.391293 -15.000000 -9.391318
v -7.378686 -15.000000 -11.043018
v -5.082520 -15.000000 -12.270340
v -2.591035 -15.000000 -13.026118
vn 0.0923 0.3367 -0.9371
vn 0.2733 0.3368 -0.9010
vn 0.4438 0.3370 -0.8303
vn 0.5972 0.3372 -0.7277
vn 0.7276 0.3376 -0.5972
vn 0.8300 0.3380 -0.4437
vn 0.9005 0.3385 -0.2732
vn 0.9363 0.3389 -0.0922
vn 0.9361 0.3394 0.0922
vn 0.9000 0.3399 0.2730
vn 0.8293 0.3404 0.4432
vn 0.7267 0.3408 0.5964
vn 0.5963 0.3411 0.7266
vn 0.4431 0.3414 0.8289
vn 0.2728 0.3416 0.8994
vn -0.2728 0.3416 0.8994
vn -0.4431 0.3414 0.8289
vn -0.5963 0.3411 0.7266
vn -0.7267 0.3408 0.5964
vn -0.8293 0.3404 0.4432
vn -0.9000 0.3399 0.2730
vn -0.9361 0.3394 0.0922
vn -0.9363 0.3389 -0.0922
vn -0.9005 0.3385 -0.2732
vn -0.8300 0.3380 -0.4437
vn -0.7276 0.3376 -0.5972
vn -0.5972 0.3372 -0.7277
vn -0.4438 0.3370 -0.8303
vn 0.0000 1.0000 0.0000
vn -0.2733 0.3368 -0.9010
vn -0.0923 0.3367 -0.9371
vn 0.0000 -1.0000 -0.0000
vn -0.9518 -0.2919 0.0937
vn 0.8435 -0.2919 -0.4509
vn -0.9518 -0.2919 -0.0937
vn 0.9153 -0.2919 -0.2776
vn -0.9153 -0.2919 -0.2776
vn 0.9518 -0.2919 -0.0937
vn -0.8435 -0.2919 -0.4509
vn 0.9518 -0.2919 0.0937
vn -0.7393 -0.2919 -0.6068
vn 0.9153 -0.2919 0.2776
vn -0.6068 -0.2919 -0.7393
vn 0.8435 -0.2919 0.4509
vn -0.4509 -0.2919 -0.8435
vn -0.0937 -0.2919 0.9518
vn 0.7393 -0.2919 0.6068
vn -0.2776 -0.2919 -0.9153
vn -0.2776 -0.2919 0.9153
vn 0.6068 -0.2919 0.7393
vn -0.4509 -0.2919 0.8435
vn 0.4509 -0.2919 0.8435
vn -0.6068 -0.2919 0.7393
vn 0.2776 -0.2919 0.9153
vn 0.2776 -0.2919 -0.9153
vn -0.7393 -0.2919 0.6068
vn 0.0937 -0.2919 0.9518
vn 0.4509 -0.2919 -0.8435
vn -0.8435 -0.2919 0.4509
vn 0.6068 -0.2919 -0.7393
vn -0.9153 -0.2919 0.2776
vn 0.7393 -0.2919 -0.6068
vn 0.0000 0.0000 1.0000
vn -0.0050 0.3725 0.9280
vn 0.0307 -0.3183 -0.9475
vn 0.9889 0.0943 0.1149
vn -0.9973 0.0680 0.0278
vn -0.4533 0.8885 -0.0716
vn 0.4542 0.8875 -0.0774
vn -0.5302 -0.8451 0.0687
vn 0.9650 -0.0240 -0.2611
vn -0.9701 -0.0222 -0.2417
vn 0.5209 -0.8517 0.0571
vn -0.9715 -0.0021 -0.2371
vn 0.9662 0.0062 -0.2576
vn -0.0000 0.9430 0.3327
usemtl Material.001
s off
f 1//1 2//1 4//1 3//1
f 3//2 4//2 6//2 5//2
f 5//3 6//3 8//3 7//3
f 7//4 8//4 10//4 9//4
f 9//5 10//5 12//5 11//5
f 11//6 12//6 14//6 13//6
f 13//7 14//7 16//7 15//7
f 15//8 16//8 18//8 17//8
f 17//9 18//9 20//9 19//9
f 19//10 20//10 22//10 21//10
f 21//11 22//11 24//11 23//11
f 23//12 24//12 26//12 25//12
f 25//13 26//13 28//13 27//13
f 27//14 28//14 30//14 29//14
f 29//15 30//15 32//15 31//15
f 35//16 36//16 38//16 37//16
f 37//17 38//17 40//17 39//17
f 39//18 40//18 42//18 41//18
f 41//19 42//19 44//19 43//19
f 43//20 44//20 46//20 45//20
f 45//21 46//21 48//21 47//21
f 47//22 48//22 50//22 49//22
f 49//23 50//23 52//23 51//23
f 51//24 52//24 54//24 53//24
f 53//25 54//25 56//25 55//25
f 55//26 56//26 58//26 57//26
f 57//27 58//27 60//27 59//27
f 59//28 60//28 62//28 61//28
f 14//29 12//29 70//29 71//29
f 61//30 62//30 64//30 63//30
f 63//31 64//31 2//31 1//31
f 1//32 3//32 5//32 7//32 9//32 11//32 13//32 15//32 17//32 19//32 21//32 23//32 25//32 27//32 29//32 31//32 33//32 35//32 37//32 39//32 41//32 43//32 45//32 47//32 49//32 51//32 53//32 55//32 57//32 59//32 61//32 63//32
f 32//29 30//29 79//29 80//29
f 50//29 48//29 88//29 89//29
f 6//29 4//29 66//29 67//29
f 24//29 22//29 75//29 76//29
f 42//29 40//29 84//29 85//29
f 60//29 58//29 93//29 94//29
f 16//29 14//29 71//29 72//29
f 34//29 32//29 80//29 81//29
f 52//29 50//29 89//29 90//29
f 8//29 6//29 67//29 68//29
f 26//29 24//29 76//29 77//29
f 44//29 42//29 85//29 86//29
f 62//29 60//29 94//29 95//29
f 18//29 16//29 72//29 73//29
f 36//29 34//29 81//29 82//29
f 54//29 52//29 90//29 91//29
f 10//29 8//29 68//29 69//29
f 28//29 26//29 77//29 78//29
f 46//29 44//29 86//29 87//29
f 64//29 62//29 95//29 96//29
f 20//29 18//29 73//29 74//29
f 38//29 36//29 82//29 83//29
f 56//29 54//29 91//29 92//29
f 12//29 10//29 69//29 70//29
f 30//29 28//29 78//29 79//29
f 48//29 46//29 87//29 88//29
f 4//29 2//29 65//29 66//29
f 2//29 64//29 96//29 65//29
f 22//29 20//29 74//29 75//29
f 40//29 38//29 83//29 84//29
f 58//29 56//29 92//29 93//29
f 105//33 104//33 136//33 137//33
f 119//34 118//34 150//34 151//34
f 106//35 105//35 137//35 138//35
f 120//36 119//36 151//36 152//36
f 107//37 106//37 138//37 139//37
f 121//38 120//38 152//38 153//38
f 108//39 107//39 139//39 140//39
f 122//40 121//40 153//40 154//40
f 109//41 108//41 140//41 141//41
f 123//42 122//42 154//42 155//42
f 110//43 109//43 141//43 142//43
f 124//44 123//44 155//44 156//44
f 111//45 110//45 142//45 143//45
f 98//46 97//46 129//46 130//46
f 125//47 124//47 156//47 157//47
f 112//48 111//48 143//48 144//48
f 99//49 98//49 130//49 131//49
f 126//50 125//50 157//50 158//50
f 100//51 99//51 131//51 132//51
f 127//52 126//52 158//52 159//52
f 101//53 100//53 132//53 133//53
f 128//54 127//54 159//54 160//54
f 115//55 114//55 146//55 147//55
f 102//56 101//56 133//56 134//56
f 97//57 128//57 160//57 129//57
f 116//58 115//58 147//58 148//58
f 103//59 102//59 134//59 135//59
f 117//60 116//60 148//60 149//60
f 104//61 103//61 135//61 136//61
f 118//62 117//62 149//62 150//62
f 140//63 139//63 179//63 180//63
f 154//63 153//63 192//63 193//63
f 141//63 140//63 180//63 181//63
f 155//63 154//63 193//63 194//63
f 142//63 141//63 181//63 182//63
f 156//63 155//63 194//63 195//63
f 143//63 142//63 182//63 183//63
f 130//63 129//63 169//63 170//63
f 157//63 156//63 195//63 196//63
f 144//63 143//63 183//63 184//63
f 131//63 130//63 170//63 171//63
f 158//63 157//63 196//63 197//63
f 132//63 131//63 171//63 172//63
f 159//63 158//63 197//63 198//63
f 133//63 132//63 172//63 173//63
f 160//63 159//63 198//63 199//63
f 147//63 146//63 185//63 186//63
f 134//63 133//63 173//63 174//63
f 129//63 160//63 199//63 169//63
f 148//63 147//63 186//63 187//63
f 135//63 134//63 174//63 175//63
f 149//63 148//63 187//63 188//63
f 136//63 135//63 175//63 176//63
f 150//63 149//63 188//63 189//63
f 137//63 136//63 176//63 177//63
f 151//63 150//63 189//63 190//63
f 138//63 137//63 177//63 178//63
f 152//63 151//63 190//63 191//63
f 139//63 138//63 178//63 179//63
f 153//63 152//63 191//63 192//63
f 34//64 36//64 165//64 164//64 163//64 32//64
f 81//65 80//65 166//65 167//65 168//65 82//65
f 166//66 184//66 80//66
f 185//67 168//67 114//67
usemtl Material.002
f 162//68 161//68 164//68 165//68
f 161//69 145//69 163//69 164//69
f 163//70 164//70 167//70 166//70
f 145//71 31//71 163//71
f 162//72 165//72 35//72
f 164//73 165//73 168//73 167//73
f 169//29 199//29 198//29 197//29 196//29 195//29 194//29 193//29 192//29 191//29 190//29 189//29 188//29 187//29 186//29 185//29 184//29 183//29 182//29 181//29 180//29 179//29 178//29 177//29 176//29 175//29 174//29 173//29 172//29 171//29 170//29
f 165//74 168//74 185//74 35//74
f 163//75 31//75 184//75 166//75
f 33//76 31//76 184//76 185//76 35//76
l 113 112
l 114 113
