# Blender v2.79 (sub 0) OBJ File: 'wooden_tower.blend'
# www.blender.org
mtllib wooden_tower.mtl
o Cube
v -4.000000 -16.099998 4.000000
v -4.000000 0.099999 4.000000
v -4.000000 -16.000000 -4.000000
v -4.000000 -0.000000 -4.000000
v 4.000000 -16.000000 4.000000
v 4.000000 -0.000000 4.000000
v 4.000000 -16.000000 -4.000000
v 4.000000 -0.000000 -4.000000
v -5.999999 8.000000 -5.999999
v 5.999999 8.000000 -4.500000
v 4.000000 -0.000000 -3.000000
v 5.999999 8.000000 -5.999999
v -3.000000 -0.000000 -4.000000
v -4.500000 8.000000 -5.999999
v -3.000000 -0.000000 -3.000000
v -4.500000 8.000000 -4.500000
v -4.000000 -0.000000 -3.000000
v -5.999999 8.000000 -4.500000
v 3.000000 -0.000000 -3.000000
v 4.500000 8.000000 -4.500000
v 3.000000 -0.000000 -4.000000
v 4.500000 8.000000 -5.999999
v 4.500000 8.000000 5.999999
v 3.000000 -0.000000 4.000000
v 5.999999 8.000000 5.999999
v 3.000000 -0.000000 3.000000
v 4.500000 8.000000 4.500000
v 4.000000 -0.000000 3.000000
v 5.999999 8.000000 4.500000
v -5.999999 8.000000 4.500000
v -4.000000 -0.000000 3.000000
v -5.999999 8.000000 5.999999
v -3.000000 -0.000000 3.000000
v -4.500000 8.000000 4.500000
v -3.000000 -0.000000 4.000000
v -4.500000 8.000000 5.999999
v 0.000000 12.000000 0.000000
vn -1.0000 0.0000 0.0000
vn 0.0000 0.0000 -1.0000
vn 1.0000 0.0000 0.0000
vn -0.0000 0.0000 1.0000
vn 0.0062 -1.0000 -0.0062
vn 0.0062 1.0000 -0.0062
vn 0.0000 0.1843 0.9829
vn 0.0000 -0.2425 -0.9701
vn 0.9829 0.1843 0.0000
vn -0.9701 -0.2425 0.0000
vn -0.9829 0.1843 0.0000
vn 0.0000 0.1843 -0.9829
vn -0.0098 -0.2460 0.9692
vn -0.9692 -0.2460 0.0098
vn 0.0000 -0.2425 0.9701
vn 0.9701 -0.2425 0.0000
vn 0.0000 0.8321 -0.5547
vn -0.5547 0.8321 0.0000
vn 0.0000 0.8321 0.5547
vn 0.5547 0.8321 0.0000
usemtl Material
s off
f 1//1 2//1 4//1 3//1
f 3//2 4//2 8//2 7//2
f 7//3 8//3 6//3 5//3
f 5//4 6//4 2//4 1//4
f 3//5 7//5 5//5 1//5
f 8//6 4//6 2//6 6//6
f 11//7 10//7 20//7 19//7
f 4//8 9//8 14//8 13//8
f 13//9 14//9 16//9 15//9
f 15//7 16//7 18//7 17//7
f 9//10 4//10 17//10 18//10
f 19//11 20//11 22//11 21//11
f 24//11 23//11 27//11 26//11
f 26//12 27//12 29//12 28//12
f 31//12 30//12 34//12 33//12
f 33//9 34//9 36//9 35//9
f 36//13 32//13 2//13 35//13
f 32//14 30//14 31//14 2//14
f 25//15 23//15 24//15 6//15
f 29//16 25//16 6//16 28//16
f 12//16 10//16 11//16 8//16
f 22//8 12//8 8//8 21//8
f 37//17 12//17 9//17
f 37//18 9//18 32//18
f 37//19 32//19 25//19
f 37//20 25//20 12//20
o Boundary_Cube.001
v -16.000000 -16.000000 16.000000
v -16.000000 16.000000 16.000000
v -16.000000 -16.000000 -16.000000
v -16.000000 16.000000 -16.000000
v 16.000000 -16.000000 16.000000
v 16.000000 16.000000 16.000000
v 16.000000 -16.000000 -16.000000
v 16.000000 16.000000 -16.000000
l 40 38
l 38 39
l 39 41
l 41 40
l 44 40
l 41 45
l 45 44
l 42 44
l 45 43
l 43 42
l 38 42
l 43 39
