# Blender v2.79 (sub 0) OBJ File: 'flag.blend'
# www.blender.org
mtllib blueflag.mtl
o Cylinder.001
v 0.000000 -10.000000 -0.880000
v 0.000000 10.000000 -0.880000
v 0.622254 -10.000000 -0.622254
v 0.622254 10.000000 -0.622254
v 0.880000 -10.000000 0.000000
v 0.880000 10.000000 0.000000
v 0.622254 -10.000000 0.622254
v 0.622254 10.000000 0.622254
v -0.000000 -10.000000 0.880000
v -0.000000 10.000000 0.880000
v -0.622254 -10.000000 0.622254
v -0.622254 10.000000 0.622254
v -0.880000 -10.000000 -0.000000
v -0.880000 10.000000 -0.000000
v -0.622254 -10.000000 -0.622254
v -0.622254 10.000000 -0.622254
vn 0.3827 0.0000 -0.9239
vn 0.9239 0.0000 -0.3827
vn 0.9239 0.0000 0.3827
vn 0.3827 0.0000 0.9239
vn -0.3827 0.0000 0.9239
vn -0.9239 0.0000 0.3827
vn 0.0000 1.0000 -0.0000
vn -0.9239 0.0000 -0.3827
vn -0.3827 0.0000 -0.9239
vn 0.0000 -1.0000 0.0000
usemtl Material.004
s off
f 1//1 2//1 4//1 3//1
f 3//2 4//2 6//2 5//2
f 5//3 6//3 8//3 7//3
f 7//4 8//4 10//4 9//4
f 9//5 10//5 12//5 11//5
f 11//6 12//6 14//6 13//6
f 4//7 2//7 16//7 14//7 12//7 10//7 8//7 6//7
f 13//8 14//8 16//8 15//8
f 15//9 16//9 2//9 1//9
f 1//10 3//10 5//10 7//10 9//10 11//10 13//10 15//10
o Grid
v 10.356328 8.687382 0.361293
v 9.241588 6.988578 0.361293
v 8.126846 6.542084 0.361293
v 7.012107 6.286945 0.361293
v 5.897366 6.286945 0.361293
v 4.782625 6.286945 0.361293
v 3.667885 6.807855 0.361293
v 2.553144 7.105479 0.361293
v 1.438404 6.807855 0.361293
v 0.323663 6.286945 0.361293
v 10.356328 10.062211 0.361293
v 9.241588 9.293590 0.361293
v 8.126846 8.805364 0.361293
v 7.012107 8.626766 0.361293
v 5.897366 8.843635 0.361293
v 4.782625 9.290129 0.361293
v 3.667885 9.685595 0.361293
v 2.553144 9.927978 0.361293
v 1.438404 9.902463 0.361293
v 0.323663 9.290129 0.361293
v 10.356328 8.687382 0.361293
v 9.241588 6.988578 0.361293
v 8.126846 6.542084 0.361293
v 7.012107 6.286945 0.361293
v 5.897366 6.286945 0.361293
v 4.782625 6.286945 0.361293
v 3.667885 6.807855 0.361293
v 2.553144 7.105479 0.361293
v 1.438404 6.807855 0.361293
v 0.323663 6.286945 0.361293
v 10.356328 10.062211 0.361293
v 9.241588 9.293590 0.361293
v 8.126846 8.805364 0.361293
v 7.012107 8.626766 0.361293
v 5.897366 8.843635 0.361293
v 4.782625 9.290129 0.361293
v 3.667885 9.685595 0.361293
v 2.553144 9.927978 0.361293
v 1.438404 9.902463 0.361293
v 0.323663 9.290129 0.361293
v 10.356328 8.687382 0.361293
v 9.241588 6.988578 0.361293
v 8.126846 6.542084 0.361293
v 7.012107 6.286945 0.361293
v 5.897366 6.286945 0.361293
v 4.782625 6.286945 0.361293
v 3.667885 6.807855 0.361293
v 2.553144 7.105479 0.361293
v 1.438404 6.807855 0.361293
v 0.323663 6.286945 0.361293
v 10.356328 10.062211 0.361293
v 9.241588 9.293590 0.361293
v 8.126846 8.805364 0.361293
v 7.012107 8.626766 0.361293
v 5.897366 8.843635 0.361293
v 4.782625 9.290129 0.361293
v 3.667885 9.685595 0.361293
v 2.553144 9.927978 0.361293
v 1.438404 9.902463 0.361293
v 0.323663 9.290129 0.361293
v 10.356328 8.687382 0.361293
v 9.241588 6.988578 0.361293
v 8.126846 6.542084 0.361293
v 7.012107 6.286945 0.361293
v 5.897366 6.286945 0.361293
v 4.782625 6.286945 0.361293
v 3.667885 6.807855 0.361293
v 2.553144 7.105479 0.361293
v 1.438404 6.807855 0.361293
v 0.323663 6.286945 0.361293
v 10.356328 10.062211 0.361293
v 9.241588 9.293590 0.361293
v 8.126846 8.805364 0.361293
v 7.012107 8.626766 0.361293
v 5.897366 8.843635 0.361293
v 4.782625 9.290129 0.361293
v 3.667885 9.685595 0.361293
v 2.553144 9.927978 0.361293
v 1.438404 9.902463 0.361293
v 0.323663 9.290129 0.361293
v 10.356328 8.687382 0.361293
v 9.241588 6.988578 0.361293
v 8.126846 6.542084 0.361293
v 7.012107 6.286945 0.361293
v 5.897366 6.286945 0.361293
v 4.782625 6.286945 0.361293
v 3.667885 6.807855 0.361293
v 2.553144 7.105479 0.361293
v 1.438404 6.807855 0.361293
v 0.323663 6.286945 0.361293
v 10.356328 10.062211 0.361293
v 9.241588 9.293590 0.361293
v 8.126846 8.805364 0.361293
v 7.012107 8.626766 0.361293
v 5.897366 8.843635 0.361293
v 4.782625 9.290129 0.361293
v 3.667885 9.685595 0.361293
v 2.553144 9.927978 0.361293
v 1.438404 9.902463 0.361293
v 0.323663 9.290129 0.361293
v 10.356328 8.687382 0.361293
v 9.241588 6.988578 0.361293
v 8.126846 6.542084 0.361293
v 7.012107 6.286945 0.361293
v 5.897366 6.286945 0.361293
v 4.782625 6.286945 0.361293
v 3.667885 6.807855 0.361293
v 2.553144 7.105479 0.361293
v 1.438404 6.807855 0.361293
v 0.323663 6.286945 0.361293
v 10.356328 10.062211 0.361293
v 9.241588 9.293590 0.361293
v 8.126846 8.805364 0.361293
v 7.012107 8.626766 0.361293
v 5.897366 8.843635 0.361293
v 4.782625 9.290129 0.361293
v 3.667885 9.685595 0.361293
v 2.553144 9.927978 0.361293
v 1.438404 9.902463 0.361293
v 0.323663 9.290129 0.361293
v 10.356328 8.687382 0.361293
v 9.241588 6.988578 0.361293
v 8.126846 6.542084 0.361293
v 7.012107 6.286945 0.361293
v 5.897366 6.286945 0.361293
v 4.782625 6.286945 0.361293
v 3.667885 6.807855 0.361293
v 2.553144 7.105479 0.361293
v 1.438404 6.807855 0.361293
v 0.323663 6.286945 0.361293
v 10.356328 10.062211 0.361293
v 9.241588 9.293590 0.361293
v 8.126846 8.805364 0.361293
v 7.012107 8.626766 0.361293
v 5.897366 8.843635 0.361293
v 4.782625 9.290129 0.361293
v 3.667885 9.685595 0.361293
v 2.553144 9.927978 0.361293
v 1.438404 9.902463 0.361293
v 0.323663 9.290129 0.361293
v 10.356328 8.687382 0.361293
v 9.241588 6.988578 0.361293
v 8.126846 6.542084 0.361293
v 7.012107 6.286945 0.361293
v 5.897366 6.286945 0.361293
v 4.782625 6.286945 0.361293
v 3.667885 6.807855 0.361293
v 2.553144 7.105479 0.361293
v 1.438404 6.807855 0.361293
v 0.323663 6.286945 0.361293
v 10.356328 10.062211 0.361293
v 9.241588 9.293590 0.361293
v 8.126846 8.805364 0.361293
v 7.012107 8.626766 0.361293
v 5.897366 8.843635 0.361293
v 4.782625 9.290129 0.361293
v 3.667885 9.685595 0.361293
v 2.553144 9.927978 0.361293
v 1.438404 9.902463 0.361293
v 0.323663 9.290129 0.361293
v 10.356328 8.687382 -0.238707
v 9.241588 6.988578 -0.238707
v 8.126846 6.542084 -0.238707
v 7.012107 6.286945 -0.238707
v 5.897366 6.286945 -0.238707
v 4.782625 6.286945 -0.238707
v 3.667885 6.807855 -0.238707
v 2.553144 7.105479 -0.238707
v 1.438404 6.807855 -0.238707
v 0.323663 6.286945 -0.238707
v 10.356328 10.062211 -0.238707
v 9.241588 9.293590 -0.238707
v 8.126846 8.805364 -0.238707
v 7.012107 8.626766 -0.238707
v 5.897366 8.843635 -0.238707
v 4.782625 9.290129 -0.238707
v 3.667885 9.685595 -0.238707
v 2.553144 9.927978 -0.238707
v 1.438404 9.902463 -0.238707
v 0.323663 9.290129 -0.238707
v 0.323663 6.286945 -0.238707
v 0.323663 9.290129 -0.238707
vn 0.0000 0.0000 1.0000
vn -0.3718 0.9283 0.0000
vn -0.3718 -0.9283 0.0000
vn -0.8361 0.5486 0.0000
vn -0.1910 -0.9816 0.0000
vn 0.1582 -0.9874 0.0000
vn 0.4012 -0.9160 0.0000
vn 0.5677 -0.8233 0.0000
vn -1.0000 0.0000 0.0000
vn -0.3343 -0.9425 0.0000
vn -0.2231 0.9748 0.0000
vn -0.2125 -0.9772 0.0000
vn 0.0000 1.0000 0.0000
vn 0.0229 -0.9997 0.0000
vn 0.4234 0.9060 0.0000
vn 0.4815 -0.8765 0.0000
vn 0.2580 0.9662 0.0000
vn -0.2580 0.9662 0.0000
vn -0.4234 0.9060 0.0000
usemtl Material.001
s off
f 86//11 126//11 136//11 96//11
f 46//11 86//11 96//11 56//11
f 126//11 166//11 176//11 136//11
f 178//11 177//11 187//11 188//11 189//11 190//11 191//11 192//11 193//11 194//11 195//11 196//11 198//11 197//11 186//11 185//11 184//11 183//11 182//11 181//11 180//11 179//11
f 176//11 166//11 165//11 164//11 163//11 162//11 161//11 160//11 159//11 158//11 157//11 167//11 168//11 169//11 170//11 171//11 172//11 173//11 174//11 175//11
usemtl Material.003
f 22//11 23//11 43//11 42//11
f 29//11 28//11 48//11 49//11
f 23//11 24//11 44//11 43//11
f 30//11 29//11 49//11 50//11
f 24//11 25//11 45//11 44//11
f 31//11 30//11 50//11 51//11
f 25//11 26//11 46//11 45//11
f 32//11 31//11 51//11 52//11
f 33//11 32//11 52//11 53//11
f 34//11 33//11 53//11 54//11
f 35//11 34//11 54//11 55//11
f 17//11 18//11 38//11 37//11
f 36//11 35//11 55//11 56//11
f 18//11 19//11 39//11 38//11
f 19//11 20//11 40//11 39//11
f 20//11 21//11 41//11 40//11
f 27//11 17//11 37//11 47//11
f 21//11 22//11 42//11 41//11
f 28//11 27//11 47//11 48//11
f 66//11 106//11 126//11 86//11
f 78//11 118//11 117//11 77//11
f 90//11 130//11 131//11 91//11
f 63//11 103//11 104//11 64//11
f 76//11 116//11 115//11 75//11
f 89//11 129//11 130//11 90//11
f 62//11 102//11 103//11 63//11
f 88//11 128//11 129//11 89//11
f 61//11 101//11 102//11 62//11
f 75//11 115//11 114//11 74//11
f 87//11 127//11 128//11 88//11
f 60//11 100//11 101//11 61//11
f 74//11 114//11 113//11 73//11
f 77//11 117//11 127//11 87//11
f 59//11 99//11 100//11 60//11
f 73//11 113//11 112//11 72//11
f 86//11 126//11 125//11 85//11
f 58//11 98//11 99//11 59//11
f 38//11 78//11 77//11 37//11
f 26//11 66//11 86//11 46//11
f 24//11 64//11 65//11 25//11
f 51//11 91//11 92//11 52//11
f 39//11 79//11 78//11 38//11
f 25//11 65//11 66//11 26//11
f 52//11 92//11 93//11 53//11
f 40//11 80//11 79//11 39//11
f 27//11 67//11 57//11 17//11
f 53//11 93//11 94//11 54//11
f 41//11 81//11 80//11 40//11
f 28//11 68//11 67//11 27//11
f 54//11 94//11 95//11 55//11
f 42//11 82//11 81//11 41//11
f 29//11 69//11 68//11 28//11
f 55//11 95//11 96//11 56//11
f 43//11 83//11 82//11 42//11
f 56//11 96//11 76//11 36//11
f 30//11 70//11 69//11 29//11
f 44//11 84//11 83//11 43//11
f 31//11 71//11 70//11 30//11
f 17//11 57//11 58//11 18//11
f 45//11 85//11 84//11 44//11
f 32//11 72//11 71//11 31//11
f 18//11 58//11 59//11 19//11
f 46//11 86//11 85//11 45//11
f 33//11 73//11 72//11 32//11
f 19//11 59//11 60//11 20//11
f 37//11 77//11 87//11 47//11
f 34//11 74//11 73//11 33//11
f 20//11 60//11 61//11 21//11
f 47//11 87//11 88//11 48//11
f 35//11 75//11 74//11 34//11
f 21//11 61//11 62//11 22//11
f 48//11 88//11 89//11 49//11
f 22//11 62//11 63//11 23//11
f 49//11 89//11 90//11 50//11
f 36//11 76//11 75//11 35//11
f 23//11 63//11 64//11 24//11
f 50//11 90//11 91//11 51//11
f 99//11 139//11 140//11 100//11
f 113//11 153//11 152//11 112//11
f 126//11 166//11 165//11 125//11
f 98//11 138//11 139//11 99//11
f 112//11 152//11 151//11 111//11
f 125//11 165//11 164//11 124//11
f 97//11 137//11 138//11 98//11
f 111//11 151//11 150//11 110//11
f 124//11 164//11 163//11 123//11
f 110//11 150//11 149//11 109//11
f 136//11 176//11 156//11 116//11
f 123//11 163//11 162//11 122//11
f 135//11 175//11 176//11 136//11
f 109//11 149//11 148//11 108//11
f 122//11 162//11 161//11 121//11
f 134//11 174//11 175//11 135//11
f 108//11 148//11 147//11 107//11
f 121//11 161//11 160//11 120//11
f 133//11 173//11 174//11 134//11
f 64//11 104//11 105//11 65//11
f 91//11 131//11 132//11 92//11
f 79//11 119//11 118//11 78//11
f 65//11 105//11 106//11 66//11
f 92//11 132//11 133//11 93//11
f 80//11 120//11 119//11 79//11
f 67//11 107//11 97//11 57//11
f 93//11 133//11 134//11 94//11
f 81//11 121//11 120//11 80//11
f 68//11 108//11 107//11 67//11
f 94//11 134//11 135//11 95//11
f 82//11 122//11 121//11 81//11
f 69//11 109//11 108//11 68//11
f 95//11 135//11 136//11 96//11
f 83//11 123//11 122//11 82//11
f 96//11 136//11 116//11 76//11
f 70//11 110//11 109//11 69//11
f 84//11 124//11 123//11 83//11
f 71//11 111//11 110//11 70//11
f 57//11 97//11 98//11 58//11
f 85//11 125//11 124//11 84//11
f 72//11 112//11 111//11 71//11
f 138//12 178//12 179//12 139//12
f 152//13 192//13 191//13 151//13
f 137//14 177//14 178//14 138//14
f 151//15 191//15 190//15 150//15
f 150//16 190//16 189//16 149//16
f 176//11 198//11 196//11 156//11
f 149//17 189//17 188//17 148//17
f 148//18 188//18 187//18 147//18
f 147//19 187//19 177//19 137//19
f 117//11 157//11 167//11 127//11
f 114//11 154//11 153//11 113//11
f 100//11 140//11 141//11 101//11
f 127//11 167//11 168//11 128//11
f 115//11 155//11 154//11 114//11
f 101//11 141//11 142//11 102//11
f 128//11 168//11 169//11 129//11
f 102//11 142//11 143//11 103//11
f 129//11 169//11 170//11 130//11
f 116//11 156//11 155//11 115//11
f 103//11 143//11 144//11 104//11
f 130//11 170//11 171//11 131//11
f 118//11 158//11 157//11 117//11
f 106//11 146//11 166//11 126//11
f 104//11 144//11 145//11 105//11
f 131//11 171//11 172//11 132//11
f 119//11 159//11 158//11 118//11
f 105//11 145//11 146//11 106//11
f 132//11 172//11 173//11 133//11
f 120//11 160//11 159//11 119//11
f 107//11 147//11 137//11 97//11
f 153//20 193//20 192//20 152//20
f 139//21 179//21 180//21 140//21
f 154//22 194//22 193//22 153//22
f 140//23 180//23 181//23 141//23
f 155//24 195//24 194//24 154//24
f 141//23 181//23 182//23 142//23
f 142//25 182//25 183//25 143//25
f 156//26 196//26 195//26 155//26
f 143//27 183//27 184//27 144//27
f 146//11 186//11 197//11 166//11
f 144//28 184//28 185//28 145//28
f 145//29 185//29 186//29 146//29
