# Blender v2.78 (sub 0) OBJ File: 'flag.blend'
# www.blender.org
mtllib blueflag.mtl
o Cylinder.001
v 0.000000 -10.000000 -0.440000
v 0.000000 10.000000 -0.440000
v 0.311127 -10.000000 -0.311127
v 0.311127 10.000000 -0.311127
v 0.440000 -10.000000 0.000000
v 0.440000 10.000000 0.000000
v 0.311127 -10.000000 0.311127
v 0.311127 10.000000 0.311127
v -0.000000 -10.000000 0.440000
v -0.000000 10.000000 0.440000
v -0.311127 -10.000000 0.311127
v -0.311127 10.000000 0.311127
v -0.440000 -10.000000 -0.000000
v -0.440000 10.000000 -0.000000
v -0.311127 -10.000000 -0.311127
v -0.311127 10.000000 -0.311127
vn 0.3827 0.0000 -0.9239
vn 0.9239 0.0000 -0.3827
vn 0.9239 0.0000 0.3827
vn 0.3827 0.0000 0.9239
vn -0.3827 0.0000 0.9239
vn -0.9239 0.0000 0.3827
vn 0.0000 1.0000 -0.0000
vn -0.9239 0.0000 -0.3827
vn -0.3827 0.0000 -0.9239
vn 0.0000 -1.0000 0.0000
usemtl Material.004
s off
f 1//1 2//1 4//1 3//1
f 3//2 4//2 6//2 5//2
f 5//3 6//3 8//3 7//3
f 7//4 8//4 10//4 9//4
f 9//5 10//5 12//5 11//5
f 11//6 12//6 14//6 13//6
f 4//7 2//7 16//7 14//7 12//7 10//7 8//7 6//7
f 13//8 14//8 16//8 15//8
f 15//9 16//9 2//9 1//9
f 1//10 3//10 5//10 7//10 9//10 11//10 13//10 15//10
o Grid
v 10.356329 8.687382 0.161064
v 9.241590 6.988578 0.161064
v 8.126848 6.542084 0.161064
v 7.012108 6.286945 0.161064
v 5.897367 6.286945 0.161064
v 4.782626 6.286945 0.161064
v 3.667886 6.807855 0.161064
v 2.553145 7.105479 0.161064
v 1.438404 6.807855 0.161064
v 0.323663 6.286945 0.161064
v 10.356329 10.062211 0.161064
v 9.241590 9.293590 0.161064
v 8.126848 8.805364 0.161064
v 7.012108 8.626766 0.161064
v 5.897367 8.843635 0.161064
v 4.782626 9.290129 0.161064
v 3.667886 9.685595 0.161064
v 2.553145 9.927978 0.161064
v 1.438404 9.902463 0.161064
v 0.323663 9.290129 0.161064
v 10.356329 8.687382 0.161064
v 9.241590 6.988578 0.161064
v 8.126848 6.542084 0.161064
v 7.012108 6.286945 0.161064
v 5.897367 6.286945 0.161064
v 4.782626 6.286945 0.161064
v 3.667886 6.807855 0.161064
v 2.553145 7.105479 0.161064
v 1.438404 6.807855 0.161064
v 0.323663 6.286945 0.161064
v 10.356329 10.062211 0.161064
v 9.241590 9.293590 0.161064
v 8.126848 8.805364 0.161064
v 7.012108 8.626766 0.161064
v 5.897367 8.843635 0.161064
v 4.782626 9.290129 0.161064
v 3.667886 9.685595 0.161064
v 2.553145 9.927978 0.161064
v 1.438404 9.902463 0.161064
v 0.323663 9.290129 0.161064
v 10.356329 8.687382 0.161064
v 9.241590 6.988578 0.161064
v 8.126848 6.542084 0.161064
v 7.012108 6.286945 0.161064
v 5.897367 6.286945 0.161064
v 4.782626 6.286945 0.161064
v 3.667886 6.807855 0.161064
v 2.553145 7.105479 0.161064
v 1.438404 6.807855 0.161064
v 0.323663 6.286945 0.161064
v 10.356329 10.062211 0.161064
v 9.241590 9.293590 0.161064
v 8.126848 8.805364 0.161064
v 7.012108 8.626766 0.161064
v 5.897367 8.843635 0.161064
v 4.782626 9.290129 0.161064
v 3.667886 9.685595 0.161064
v 2.553145 9.927978 0.161064
v 1.438404 9.902463 0.161064
v 0.323663 9.290129 0.161064
v 10.356329 8.687382 0.161064
v 9.241590 6.988578 0.161064
v 8.126848 6.542084 0.161064
v 7.012108 6.286945 0.161064
v 5.897367 6.286945 0.161064
v 4.782626 6.286945 0.161064
v 3.667886 6.807855 0.161064
v 2.553145 7.105479 0.161064
v 1.438404 6.807855 0.161064
v 0.323663 6.286945 0.161064
v 10.356329 10.062211 0.161064
v 9.241590 9.293590 0.161064
v 8.126848 8.805364 0.161064
v 7.012108 8.626766 0.161064
v 5.897367 8.843635 0.161064
v 4.782626 9.290129 0.161064
v 3.667886 9.685595 0.161064
v 2.553145 9.927978 0.161064
v 1.438404 9.902463 0.161064
v 0.323663 9.290129 0.161064
v 10.356329 8.687382 0.161064
v 9.241590 6.988578 0.161064
v 8.126848 6.542084 0.161064
v 7.012108 6.286945 0.161064
v 5.897367 6.286945 0.161064
v 4.782626 6.286945 0.161064
v 3.667886 6.807855 0.161064
v 2.553145 7.105479 0.161064
v 1.438404 6.807855 0.161064
v 0.323663 6.286945 0.161064
v 10.356329 10.062211 0.161064
v 9.241590 9.293590 0.161064
v 8.126848 8.805364 0.161064
v 7.012108 8.626766 0.161064
v 5.897367 8.843635 0.161064
v 4.782626 9.290129 0.161064
v 3.667886 9.685595 0.161064
v 2.553145 9.927978 0.161064
v 1.438404 9.902463 0.161064
v 0.323663 9.290129 0.161064
v 10.356329 8.687382 0.161064
v 9.241590 6.988578 0.161064
v 8.126848 6.542084 0.161064
v 7.012108 6.286945 0.161064
v 5.897367 6.286945 0.161064
v 4.782626 6.286945 0.161064
v 3.667886 6.807855 0.161064
v 2.553145 7.105479 0.161064
v 1.438404 6.807855 0.161064
v 0.323663 6.286945 0.161064
v 10.356329 10.062211 0.161064
v 9.241590 9.293590 0.161064
v 8.126848 8.805364 0.161064
v 7.012108 8.626766 0.161064
v 5.897367 8.843635 0.161064
v 4.782626 9.290129 0.161064
v 3.667886 9.685595 0.161064
v 2.553145 9.927978 0.161064
v 1.438404 9.902463 0.161064
v 0.323663 9.290129 0.161064
v 10.356329 8.687382 0.161064
v 9.241590 6.988578 0.161064
v 8.126848 6.542084 0.161064
v 7.012108 6.286945 0.161064
v 5.897367 6.286945 0.161064
v 4.782626 6.286945 0.161064
v 3.667886 6.807855 0.161064
v 2.553145 7.105479 0.161064
v 1.438404 6.807855 0.161064
v 0.323663 6.286945 0.161064
v 10.356329 10.062211 0.161064
v 9.241590 9.293590 0.161064
v 8.126848 8.805364 0.161064
v 7.012108 8.626766 0.161064
v 5.897367 8.843635 0.161064
v 4.782626 9.290129 0.161064
v 3.667886 9.685595 0.161064
v 2.553145 9.927978 0.161064
v 1.438404 9.902463 0.161064
v 0.323663 9.290129 0.161064
v 10.356329 8.687382 0.161064
v 9.241590 6.988578 0.161064
v 8.126848 6.542084 0.161064
v 7.012108 6.286945 0.161064
v 5.897367 6.286945 0.161064
v 4.782626 6.286945 0.161064
v 3.667886 6.807855 0.161064
v 2.553145 7.105479 0.161064
v 1.438404 6.807855 0.161064
v 0.323663 6.286945 0.161064
v 10.356329 10.062211 0.161064
v 9.241590 9.293590 0.161064
v 8.126848 8.805364 0.161064
v 7.012108 8.626766 0.161064
v 5.897367 8.843635 0.161064
v 4.782626 9.290129 0.161064
v 3.667886 9.685595 0.161064
v 2.553145 9.927978 0.161064
v 1.438404 9.902463 0.161064
v 0.323663 9.290129 0.161064
v 10.356329 8.687382 -0.138936
v 9.241590 6.988578 -0.138936
v 8.126848 6.542084 -0.138936
v 7.012108 6.286945 -0.138936
v 5.897367 6.286945 -0.138936
v 4.782626 6.286945 -0.138936
v 3.667886 6.807855 -0.138936
v 2.553145 7.105479 -0.138936
v 1.438404 6.807855 -0.138936
v 0.323663 6.286945 -0.138936
v 10.356329 10.062211 -0.138936
v 9.241590 9.293590 -0.138936
v 8.126848 8.805364 -0.138936
v 7.012108 8.626766 -0.138936
v 5.897367 8.843635 -0.138936
v 4.782626 9.290129 -0.138936
v 3.667886 9.685595 -0.138936
v 2.553145 9.927978 -0.138936
v 1.438404 9.902463 -0.138936
v 0.323663 9.290129 -0.138936
v 0.323663 6.286945 -0.138936
v 0.323663 9.290129 -0.138936
vn 0.0000 0.0000 1.0000
vn 0.0000 0.0000 -1.0000
vn 0.3718 -0.9283 0.0000
vn 0.3718 0.9283 0.0000
vn 0.8361 -0.5486 0.0000
vn 0.1910 0.9816 0.0000
vn -0.1582 0.9874 0.0000
vn -0.4012 0.9160 0.0000
vn -0.5677 0.8233 0.0000
vn 1.0000 0.0000 0.0000
vn 0.3343 0.9425 0.0000
vn 0.2231 -0.9748 0.0000
vn 0.2125 0.9772 0.0000
vn 0.0000 -1.0000 0.0000
vn -0.0229 0.9997 0.0000
vn -0.4234 -0.9060 0.0000
vn -0.4815 0.8765 0.0000
vn -0.2580 -0.9662 0.0000
vn 0.2580 -0.9662 0.0000
vn 0.4234 -0.9060 0.0000
usemtl Material.001
s off
f 86//11 96//11 136//11 126//11
f 46//11 56//11 96//11 86//11
f 126//11 136//11 176//11 166//11
f 178//12 179//12 180//12 181//12 182//12 183//12 184//12 185//12 186//12 197//12 198//12 196//12 195//12 194//12 193//12 192//12 191//12 190//12 189//12 188//12 187//12 177//12
f 176//12 175//12 174//12 173//12 172//12 171//12 170//12 169//12 168//12 167//12 157//12 158//12 159//12 160//12 161//12 162//12 163//12 164//12 165//12 166//12
usemtl Material.003
f 22//11 42//11 43//11 23//11
f 29//11 49//11 48//11 28//11
f 23//11 43//11 44//11 24//11
f 30//11 50//11 49//11 29//11
f 24//11 44//11 45//11 25//11
f 31//11 51//11 50//11 30//11
f 25//11 45//11 46//11 26//11
f 32//11 52//11 51//11 31//11
f 33//11 53//11 52//11 32//11
f 34//11 54//11 53//11 33//11
f 35//11 55//11 54//11 34//11
f 17//11 37//11 38//11 18//11
f 36//11 56//11 55//11 35//11
f 18//11 38//11 39//11 19//11
f 19//11 39//11 40//11 20//11
f 20//11 40//11 41//11 21//11
f 27//11 47//11 37//11 17//11
f 21//11 41//11 42//11 22//11
f 28//11 48//11 47//11 27//11
f 66//11 86//11 126//11 106//11
f 78//11 77//11 117//11 118//11
f 90//11 91//11 131//11 130//11
f 63//11 64//11 104//11 103//11
f 76//11 75//11 115//11 116//11
f 89//11 90//11 130//11 129//11
f 62//11 63//11 103//11 102//11
f 88//11 89//11 129//11 128//11
f 61//11 62//11 102//11 101//11
f 75//11 74//11 114//11 115//11
f 87//11 88//11 128//11 127//11
f 60//11 61//11 101//11 100//11
f 74//11 73//11 113//11 114//11
f 77//11 87//11 127//11 117//11
f 59//11 60//11 100//11 99//11
f 73//11 72//11 112//11 113//11
f 86//11 85//11 125//11 126//11
f 58//11 59//11 99//11 98//11
f 38//11 37//11 77//11 78//11
f 26//11 46//11 86//11 66//11
f 24//11 25//11 65//11 64//11
f 51//11 52//11 92//11 91//11
f 39//11 38//11 78//11 79//11
f 25//11 26//11 66//11 65//11
f 52//11 53//11 93//11 92//11
f 40//11 39//11 79//11 80//11
f 27//11 17//11 57//11 67//11
f 53//11 54//11 94//11 93//11
f 41//11 40//11 80//11 81//11
f 28//11 27//11 67//11 68//11
f 54//11 55//11 95//11 94//11
f 42//11 41//11 81//11 82//11
f 29//11 28//11 68//11 69//11
f 55//11 56//11 96//11 95//11
f 43//11 42//11 82//11 83//11
f 56//11 36//11 76//11 96//11
f 30//11 29//11 69//11 70//11
f 44//11 43//11 83//11 84//11
f 31//11 30//11 70//11 71//11
f 17//11 18//11 58//11 57//11
f 45//11 44//11 84//11 85//11
f 32//11 31//11 71//11 72//11
f 18//11 19//11 59//11 58//11
f 46//11 45//11 85//11 86//11
f 33//11 32//11 72//11 73//11
f 19//11 20//11 60//11 59//11
f 37//11 47//11 87//11 77//11
f 34//11 33//11 73//11 74//11
f 20//11 21//11 61//11 60//11
f 47//11 48//11 88//11 87//11
f 35//11 34//11 74//11 75//11
f 21//11 22//11 62//11 61//11
f 48//11 49//11 89//11 88//11
f 22//11 23//11 63//11 62//11
f 49//11 50//11 90//11 89//11
f 36//11 35//11 75//11 76//11
f 23//11 24//11 64//11 63//11
f 50//11 51//11 91//11 90//11
f 99//11 100//11 140//11 139//11
f 113//11 112//11 152//11 153//11
f 126//11 125//11 165//11 166//11
f 98//11 99//11 139//11 138//11
f 112//11 111//11 151//11 152//11
f 125//11 124//11 164//11 165//11
f 97//11 98//11 138//11 137//11
f 111//11 110//11 150//11 151//11
f 124//11 123//11 163//11 164//11
f 110//11 109//11 149//11 150//11
f 136//11 116//11 156//11 176//11
f 123//11 122//11 162//11 163//11
f 135//11 136//11 176//11 175//11
f 109//11 108//11 148//11 149//11
f 122//11 121//11 161//11 162//11
f 134//11 135//11 175//11 174//11
f 108//11 107//11 147//11 148//11
f 121//11 120//11 160//11 161//11
f 133//11 134//11 174//11 173//11
f 64//11 65//11 105//11 104//11
f 91//11 92//11 132//11 131//11
f 79//11 78//11 118//11 119//11
f 65//11 66//11 106//11 105//11
f 92//11 93//11 133//11 132//11
f 80//11 79//11 119//11 120//11
f 67//11 57//11 97//11 107//11
f 93//11 94//11 134//11 133//11
f 81//11 80//11 120//11 121//11
f 68//11 67//11 107//11 108//11
f 94//11 95//11 135//11 134//11
f 82//11 81//11 121//11 122//11
f 69//11 68//11 108//11 109//11
f 95//11 96//11 136//11 135//11
f 83//11 82//11 122//11 123//11
f 96//11 76//11 116//11 136//11
f 70//11 69//11 109//11 110//11
f 84//11 83//11 123//11 124//11
f 71//11 70//11 110//11 111//11
f 57//11 58//11 98//11 97//11
f 85//11 84//11 124//11 125//11
f 72//11 71//11 111//11 112//11
f 138//13 139//13 179//13 178//13
f 152//14 151//14 191//14 192//14
f 137//15 138//15 178//15 177//15
f 151//16 150//16 190//16 191//16
f 150//17 149//17 189//17 190//17
f 176//11 156//11 196//11 198//11
f 149//18 148//18 188//18 189//18
f 148//19 147//19 187//19 188//19
f 147//20 137//20 177//20 187//20
f 117//11 127//11 167//11 157//11
f 114//11 113//11 153//11 154//11
f 100//11 101//11 141//11 140//11
f 127//11 128//11 168//11 167//11
f 115//11 114//11 154//11 155//11
f 101//11 102//11 142//11 141//11
f 128//11 129//11 169//11 168//11
f 102//11 103//11 143//11 142//11
f 129//11 130//11 170//11 169//11
f 116//11 115//11 155//11 156//11
f 103//11 104//11 144//11 143//11
f 130//11 131//11 171//11 170//11
f 118//11 117//11 157//11 158//11
f 106//11 126//11 166//11 146//11
f 104//11 105//11 145//11 144//11
f 131//11 132//11 172//11 171//11
f 119//11 118//11 158//11 159//11
f 105//11 106//11 146//11 145//11
f 132//11 133//11 173//11 172//11
f 120//11 119//11 159//11 160//11
f 107//11 97//11 137//11 147//11
f 153//21 152//21 192//21 193//21
f 139//22 140//22 180//22 179//22
f 154//23 153//23 193//23 194//23
f 140//24 141//24 181//24 180//24
f 155//25 154//25 194//25 195//25
f 141//24 142//24 182//24 181//24
f 142//26 143//26 183//26 182//26
f 156//27 155//27 195//27 196//27
f 143//28 144//28 184//28 183//28
f 146//11 166//11 197//11 186//11
f 144//29 145//29 185//29 184//29
f 145//30 146//30 186//30 185//30
