# Blender v2.79 (sub 0) OBJ File: ''
# www.blender.org
mtllib construction.mtl
o Plank.004_Cube.007
v -16.044638 7.160736 0.497179
v -16.044638 7.160736 -0.502821
v -16.044636 15.160736 -0.502821
v -16.044636 15.160736 0.497179
v 15.955367 7.160733 0.497189
v 15.955367 7.160734 -0.502812
v 15.955367 15.160734 -0.502811
v 15.955367 15.160734 0.497189
vn -1.0000 0.0000 0.0000
vn 1.0000 0.0000 0.0000
vn -0.0000 -1.0000 -0.0000
vn 0.0000 0.0000 -1.0000
vn 0.0000 1.0000 0.0000
vn -0.0000 -0.0000 1.0000
usemtl Material
s off
f 1//1 4//1 3//1 2//1
f 5//2 6//2 7//2 8//2
f 1//3 2//3 6//3 5//3
f 2//4 3//4 7//4 6//4
f 3//5 4//5 8//5 7//5
f 5//6 8//6 4//6 1//6
o Plank.000_Cube.004
v -15.390000 -15.494273 -16.050413
v -15.390000 -15.994273 -15.184387
v -7.390000 -15.994273 -15.184387
v -7.390001 -15.494273 -16.050413
v -15.390001 11.387163 -0.530415
v -15.389999 10.887163 0.335611
v -7.390000 10.887163 0.335610
v -7.390000 11.387163 -0.530415
v 15.610000 -15.849313 15.067520
v 15.610000 -15.349314 15.933546
v 7.610000 -15.349314 15.933546
v 7.610000 -15.849313 15.067520
v 15.610000 11.032120 -0.452478
v 15.610000 11.532120 0.413546
v 7.610000 11.532118 0.413545
v 7.610000 11.032118 -0.452479
v -15.390000 -15.849313 15.067520
v -15.390000 -15.349313 15.933546
v -7.390000 -15.349314 15.933546
v -7.390001 -15.849313 15.067520
v -15.390001 11.032120 -0.452478
v -15.389999 11.532120 0.413546
v -7.390000 11.532118 0.413545
v -7.390000 11.032118 -0.452479
v 15.610000 -15.502934 -16.055412
v 15.610000 -16.002934 -15.189387
v 7.610000 -16.002934 -15.189387
v 7.610000 -15.502933 -16.055412
v 15.610000 11.655628 -0.375415
v 15.610000 11.155628 0.490610
v 7.609999 11.155628 0.490610
v 7.610000 11.655628 -0.375416
vn 0.0000 -0.8660 -0.5000
vn 0.0000 0.8660 0.5000
vn -1.0000 -0.0000 0.0000
vn 0.0000 -0.5000 0.8660
vn 1.0000 -0.0000 -0.0000
vn 0.0000 0.5000 -0.8660
vn 0.0000 0.8660 -0.5000
vn 0.0000 -0.8660 0.5000
vn 0.0000 -0.5000 -0.8660
vn 0.0000 0.5000 0.8660
usemtl Material
s off
f 9//7 12//7 11//7 10//7
f 13//8 14//8 15//8 16//8
f 9//9 10//9 14//9 13//9
f 10//10 11//10 15//10 14//10
f 11//11 12//11 16//11 15//11
f 13//12 16//12 12//12 9//12
f 17//13 20//13 19//13 18//13
f 21//14 22//14 23//14 24//14
f 17//9 18//9 22//9 21//9
f 18//15 19//15 23//15 22//15
f 19//11 20//11 24//11 23//11
f 21//16 24//16 20//16 17//16
f 25//14 28//14 27//14 26//14
f 29//13 30//13 31//13 32//13
f 25//9 26//9 30//9 29//9
f 26//16 27//16 31//16 30//16
f 27//11 28//11 32//11 31//11
f 29//15 32//15 28//15 25//15
f 33//8 36//8 35//8 34//8
f 37//7 38//7 39//7 40//7
f 33//9 34//9 38//9 37//9
f 34//12 35//12 39//12 38//12
f 35//11 36//11 40//11 39//11
f 37//10 40//10 36//10 33//10
o Boundary_Cube.001
v -15.985732 -16.000000 16.000000
v -15.985732 16.000000 16.000000
v -15.985732 -16.000000 -16.000000
v -15.985732 16.000000 -16.000000
v 16.014269 -16.000000 16.000000
v 16.014269 16.000000 16.000000
v 16.014269 -16.000000 -16.000000
v 16.014269 16.000000 -16.000000
l 43 41
l 41 42
l 42 44
l 44 43
l 47 43
l 44 48
l 48 47
l 45 47
l 48 46
l 46 45
l 41 45
l 46 42
