# Blender v2.79 (sub 0) OBJ File: 'construction.blend'
# www.blender.org
mtllib construction-start.mtl
o Cube
v -6.000000 9.000000 2.000000
v -6.000000 14.000000 2.000000
v -6.000000 9.000000 -2.000000
v -6.000000 14.000000 -2.000000
v -2.000000 9.000000 2.000000
v -2.000000 14.000000 2.000000
v -2.000000 9.000000 -2.000000
v -2.000000 14.000000 -2.000000
v -5.000000 13.000000 1.800000
v -5.000000 13.000000 -1.800000
v -3.000000 13.000000 1.800000
v -3.000000 13.000000 -1.800000
v -3.000000 10.000000 1.800000
v -3.000000 10.000000 -1.800000
v -5.000000 10.000000 1.800000
v -5.000000 10.000000 -1.800000
vn -1.0000 0.0000 0.0000
vn 1.0000 0.0000 0.0000
vn 0.0000 -1.0000 0.0000
vn 0.0000 1.0000 0.0000
vn 0.0000 0.1961 -0.9806
vn 0.0000 -0.1961 0.9806
vn -0.1961 0.0000 -0.9806
vn 0.1961 0.0000 -0.9806
vn 0.0000 -0.1961 -0.9806
vn 0.1961 0.0000 0.9806
vn -0.1961 0.0000 0.9806
vn 0.0000 0.0000 1.0000
vn 0.0000 0.0000 -1.0000
usemtl Material
s off
f 1//1 2//1 4//1 3//1
f 7//2 8//2 6//2 5//2
f 3//3 7//3 5//3 1//3
f 8//4 4//4 2//4 6//4
f 14//5 7//5 3//5 16//5
f 11//6 6//6 2//6 9//6
f 12//7 8//7 7//7 14//7
f 4//8 10//8 16//8 3//8
f 10//9 4//9 8//9 12//9
f 1//10 15//10 9//10 2//10
f 6//11 11//11 13//11 5//11
usemtl Material.004
f 11//12 9//12 15//12 13//12
f 10//13 12//13 14//13 16//13
o Plank.001_Cube.000
v -16.044638 2.598557 7.337377
v -16.044638 9.526761 3.337378
v 13.955369 1.598564 5.873286
v 15.955365 8.526768 1.873286
v -16.044636 1.598557 5.873275
v -16.044636 8.526762 1.873276
v 15.955361 9.526768 3.337389
v 13.955365 2.598564 7.337387
v 8.955363 2.598563 7.337387
v 12.955363 9.526767 3.337388
v 12.955367 8.526768 1.873286
v 8.955369 1.598563 5.873285
v 3.976798 2.598562 7.337383
v 7.919066 9.526766 3.337384
v 7.919070 8.526766 1.873282
v 3.976802 1.598562 5.873281
v 7.955361 9.526766 3.337387
v 7.955365 8.526767 1.873285
v 3.955367 1.598562 5.873284
v -1.023201 2.598561 7.337382
v 2.919066 9.526765 3.337384
v 2.919070 8.526766 1.873282
v 15.955369 1.598564 5.873286
v -1.023201 2.598561 7.337382
v 2.919066 9.526765 3.337384
v 2.919070 8.526766 1.873282
v -1.023199 1.598561 5.873281
v -1.044634 1.598561 5.873283
v -6.023202 2.598560 7.337381
v -2.080932 9.526764 3.337383
v -2.080930 8.526765 1.873281
v 15.955365 5.062666 3.873286
v -6.044635 1.598560 5.873282
v -11.023202 2.598559 7.337380
v -7.080933 9.526763 3.337382
v -7.080930 8.526764 1.873280
v 15.955361 6.062665 5.337389
v -11.044634 1.598559 5.873281
v -16.023201 2.598558 7.337379
v -12.080933 9.526762 3.337381
v -12.080931 8.526763 1.873279
v 15.955365 2.598564 7.337388
v -16.044634 1.598559 5.873281
v -16.052067 3.464583 6.837380
v -16.052065 2.464584 5.373278
vn 1.0000 0.0000 0.0000
vn 0.0000 0.5000 0.8660
vn 0.0000 0.8258 -0.5640
vn 0.0000 -0.5000 -0.8660
vn -0.0000 -0.8258 0.5640
vn -1.0000 -0.0062 0.0042
vn -1.0000 -0.0000 -0.0000
vn -1.0000 0.0009 -0.0006
usemtl Material.002
s off
f 58//14 39//14 48//14 53//14
f 24//15 58//15 53//15
f 25//15 26//15 30//15 29//15
f 27//16 31//16 30//16 26//16
f 27//17 28//17 32//17 31//17
f 25//18 29//18 35//18 32//18 28//18
f 52//17 54//17 21//17 61//17 57//17
f 40//18 45//18 49//18 44//18
f 42//16 47//16 46//16 41//16
f 41//15 46//15 45//15 40//15
f 52//16 57//16 56//16 51//16
f 51//15 56//15 60//15 55//15 50//15
f 50//18 55//18 59//18 54//18
f 44//17 49//17 47//17 38//17
f 61//19 59//19 17//19 60//19
f 19//18 39//18 58//18 24//18
f 48//17 39//17 19//17
usemtl Material.003
f 28//18 19//18 24//18 25//18
f 23//15 26//15 25//15 24//15 53//15
f 26//16 23//16 20//16 27//16
f 17//20 18//20 22//20 21//20
f 29//18 40//18 44//18 35//18
f 32//17 43//17 42//17 31//17
f 30//15 41//15 40//15 29//15
f 31//16 42//16 41//16 30//16
f 47//16 52//16 51//16 46//16
f 46//15 51//15 50//15 45//15
f 54//17 52//17 47//17 49//17
f 45//18 50//18 54//18 49//18
f 60//15 56//15 18//15
f 22//17 57//17 61//17
f 22//16 18//16 56//16 57//16
f 61//21 60//21 18//21 22//21
f 28//17 27//17 20//17 48//17 19//17
f 23//14 53//14 48//14 20//14
o Plank.004_Cube.007
v -16.044638 1.598558 -5.662622
v -16.044638 8.526761 -1.662622
v 13.955367 2.598556 -7.126720
v 15.955363 9.526759 -3.126719
v -16.044636 2.598558 -7.126725
v -16.044636 9.526762 -3.126724
v 15.955363 8.526758 -1.662617
v 13.955367 1.598556 -5.662619
v 8.955367 1.598556 -5.662619
v 12.955365 8.526758 -1.662617
v 12.955365 9.526759 -3.126719
v 8.955367 2.598556 -7.126719
v 3.976800 1.598557 -5.662621
v 7.919068 8.526760 -1.662620
v 7.919068 9.526760 -3.126721
v 3.976800 2.598557 -7.126722
v 7.955363 8.526758 -1.662618
v 7.955363 9.526759 -3.126719
v 3.955365 2.598556 -7.126720
v -1.023201 1.598557 -5.662621
v 2.919068 8.526760 -1.662620
v 2.919068 9.526761 -3.126721
v 15.955367 2.598556 -7.126719
v -1.023201 1.598557 -5.662621
v 2.919068 8.526760 -1.662620
v 2.919068 9.526761 -3.126721
v -1.023200 2.598557 -7.126722
v -1.044635 2.598555 -7.126720
v -6.023202 1.598557 -5.662621
v -2.080932 8.526760 -1.662620
v -2.080932 9.526760 -3.126721
v 15.955363 6.062657 -5.126719
v -6.044636 2.598555 -7.126721
v -11.023201 1.598557 -5.662621
v -7.080933 8.526760 -1.662620
v -7.080930 9.526760 -3.126721
v 15.955363 5.062657 -3.662618
v -11.044634 2.598555 -7.126720
v -16.023201 1.598557 -5.662621
v -12.080933 8.526760 -1.662620
v -12.080931 9.526760 -3.126721
v 15.955367 1.598556 -5.662619
v -16.044634 2.598554 -7.126721
v -16.052067 2.464581 -5.162621
v -16.052065 3.464582 -6.626722
vn 1.0000 0.0000 0.0000
vn 0.0000 -0.5000 0.8660
vn 0.0000 0.8258 0.5640
vn 0.0000 0.5000 -0.8660
vn 0.0000 -0.8258 -0.5640
vn -1.0000 -0.0062 -0.0042
vn -1.0000 0.0000 -0.0000
vn -1.0000 0.0009 0.0006
usemtl Material.002
s off
f 103//22 84//22 93//22 98//22
f 69//23 103//23 98//23
f 70//23 71//23 75//23 74//23
f 72//24 76//24 75//24 71//24
f 72//25 73//25 77//25 76//25
f 70//26 74//26 80//26 77//26 73//26
f 97//25 99//25 66//25 106//25 102//25
f 85//26 90//26 94//26 89//26
f 87//24 92//24 91//24 86//24
f 86//23 91//23 90//23 85//23
f 97//24 102//24 101//24 96//24
f 96//23 101//23 105//23 100//23 95//23
f 95//26 100//26 104//26 99//26
f 89//25 94//25 92//25 83//25
f 106//27 104//27 62//27 105//27
f 64//26 84//26 103//26 69//26
f 93//25 84//25 64//25
usemtl Material.003
f 73//26 64//26 69//26 70//26
f 68//23 71//23 70//23 69//23 98//23
f 71//24 68//24 65//24 72//24
f 62//28 63//28 67//28 66//28
f 74//26 85//26 89//26 80//26
f 77//25 88//25 87//25 76//25
f 75//23 86//23 85//23 74//23
f 76//24 87//24 86//24 75//24
f 92//24 97//24 96//24 91//24
f 91//23 96//23 95//23 90//23
f 99//25 97//25 92//25 94//25
f 90//26 95//26 99//26 94//26
f 105//23 101//23 63//23
f 67//25 102//25 106//25
f 67//24 63//24 101//24 102//24
f 106//29 105//29 63//29 67//29
f 73//25 72//25 65//25 93//25 64//25
f 68//22 98//22 93//22 65//22
o Plank.000_Cube.004
v -15.508117 -15.494273 -16.050413
v -7.508117 -15.494273 -16.050413
v 15.491883 -15.349314 15.933546
v 7.491883 -15.349314 15.933546
v -7.508117 -15.349314 15.933546
v 15.491883 -15.502934 -16.055412
v 7.491883 -15.502933 -16.055412
v -15.508117 -16.494272 -14.318361
v -7.508117 -16.494272 -14.318361
v 15.491883 -16.502934 -14.323361
v 7.491883 -16.502934 -14.323362
v 15.491883 -16.325954 14.188423
v 7.491883 -16.325954 14.188423
v -15.508117 -16.325954 14.188423
v -7.508117 -16.325954 14.188423
v -15.508117 -15.325952 15.988420
v 15.491883 10.617014 -0.709039
v 7.491883 10.617014 -0.709040
v 15.491883 9.617014 1.023012
v 7.491883 9.617014 1.023012
v 15.491883 10.757256 1.130087
v 7.491883 10.757256 1.130087
v 15.491883 9.680620 -0.515036
v 7.491883 9.680620 -0.515036
v -7.520360 10.726425 1.096125
v -15.520361 9.649788 -0.548998
v -7.520360 9.649788 -0.548998
v -15.520361 10.749786 1.151001
v -15.508117 10.718542 -0.650418
v -7.508117 10.718542 -0.650418
v -15.508117 9.718542 1.081633
v -7.508117 9.718544 1.081633
vn 0.0000 -0.8726 0.4884
vn 0.0000 -0.8660 -0.5000
vn 0.0004 -0.8734 0.4870
vn 0.0000 0.5066 -0.8622
vn -0.0000 -0.5066 0.8622
vn 1.0000 0.0000 0.0000
vn -1.0000 0.0000 0.0000
vn 0.0000 0.8367 -0.5476
vn 0.0000 0.4933 0.8699
vn 0.0000 -0.4922 -0.8705
vn -0.0006 0.8382 -0.5454
vn -1.0000 -0.0004 0.0002
vn 0.0000 -0.4935 -0.8698
vn 0.0074 0.4945 0.8691
vn 1.0000 0.0003 -0.0002
vn 0.0000 -0.5065 0.8622
vn 0.0000 0.5065 -0.8622
vn 0.0014 0.9999 -0.0110
vn 0.0000 0.9971 -0.0760
vn 0.9999 -0.0108 0.0071
vn -0.9999 -0.0114 -0.0066
usemtl Material.001
s off
f 110//30 119//30 118//30 109//30
f 113//31 112//31 116//31 117//31
f 120//32 121//32 111//32 122//32
f 108//31 115//31 114//31 107//31
f 113//33 124//33 123//33 112//33
f 116//34 125//34 126//34 117//34
f 112//35 123//35 125//35 116//35
f 117//36 126//36 124//36 113//36
f 128//37 127//37 129//37 130//37
f 109//38 127//38 128//38 110//38
f 118//35 129//35 127//35 109//35
f 110//36 128//36 130//36 119//36
f 119//39 130//39 129//39 118//39
f 132//40 134//40 131//40 133//40
f 122//41 134//41 132//41 120//41
f 120//42 132//42 133//42 121//42
f 111//43 131//43 134//43 122//43
f 121//44 133//44 131//44 111//44
f 114//36 137//36 135//36 107//36
f 115//45 138//45 137//45 114//45
f 108//35 136//35 138//35 115//35
f 107//46 135//46 136//46 108//46
f 134//47 131//47 136//47 135//47
f 127//48 123//48 124//48 128//48
f 127//35 129//35 123//35
f 126//36 128//36 124//36
f 131//49 133//49 136//49
f 135//50 137//50 134//50
o Boundary_Cube.001
v -15.985732 -16.000000 16.000000
v -15.985732 16.000000 16.000000
v -15.985732 -16.000000 -16.000000
v -15.985732 16.000000 -16.000000
v 16.014269 -16.000000 16.000000
v 16.014269 16.000000 16.000000
v 16.014269 -16.000000 -16.000000
v 16.014269 16.000000 -16.000000
l 141 139
l 139 140
l 140 142
l 142 141
l 145 141
l 142 146
l 146 145
l 143 145
l 146 144
l 144 143
l 139 143
l 144 140
