# Blender v2.79 (sub 0) OBJ File: 'construction.blend'
# www.blender.org
mtllib construction.mtl
o Plank.004_Cube.007
v -16.044638 7.160736 1.971352
v -16.044638 15.160736 1.971353
v 13.955367 7.160735 -2.028643
v 15.955365 15.160735 -2.028643
v -16.044636 7.160736 -2.028647
v -16.044636 15.160736 -2.028647
v 15.955363 15.160735 1.971358
v 13.955367 7.160735 1.971357
v 8.955367 7.160735 1.971357
v 12.955365 15.160735 1.971358
v 12.955367 15.160735 -2.028643
v 8.955367 7.160735 -2.028643
v 3.976800 7.160736 1.971355
v 7.919068 15.160735 1.971355
v 7.919070 15.160736 -2.028645
v 3.976800 7.160736 -2.028646
v 7.955363 15.160735 1.971358
v 7.955365 15.160735 -2.028643
v 3.955365 7.160735 -2.028643
v -1.023201 7.160736 1.971355
v 2.919068 15.160735 1.971355
v 2.919070 15.160736 -2.028645
v 15.955367 7.160735 -2.028643
v -1.023201 7.160736 1.971355
v 2.919068 15.160735 1.971355
v 2.919070 15.160736 -2.028645
v -1.023200 7.160736 -2.028646
v -1.044635 7.160735 -2.028643
v -6.023202 7.160736 1.971355
v -2.080932 15.160735 1.971355
v -2.080931 15.160736 -2.028645
v 15.955363 11.160735 -2.028643
v -6.044636 7.160735 -2.028643
v -11.023202 7.160735 1.971355
v -7.080933 15.160735 1.971355
v -7.080931 15.160736 -2.028645
v 15.955363 11.160734 1.971358
v -11.044636 7.160734 -2.028643
v -16.023201 7.160735 1.971355
v -12.080933 15.160735 1.971355
v -12.080931 15.160736 -2.028645
v 15.955367 7.160735 1.971357
v -16.044636 7.160734 -2.028642
v -16.052067 8.160735 1.971355
v -16.052065 8.160736 -2.028645
vn 1.0000 0.0000 0.0000
vn 0.0000 -0.0000 1.0000
vn 0.0000 1.0000 0.0000
vn 0.0000 -0.0000 -1.0000
vn -0.0000 -1.0000 0.0000
vn -1.0000 -0.0074 -0.0000
vn -1.0000 0.0000 -0.0000
vn -1.0000 0.0011 -0.0000
usemtl Material.002
s off
f 42//1 23//1 32//1 37//1
f 8//2 42//2 37//2
f 9//2 10//2 14//2 13//2
f 11//3 15//3 14//3 10//3
f 11//4 12//4 16//4 15//4
f 9//5 13//5 19//5 16//5 12//5
f 36//4 38//4 5//4 45//4 41//4
f 24//5 29//5 33//5 28//5
f 26//3 31//3 30//3 25//3
f 25//2 30//2 29//2 24//2
f 36//3 41//3 40//3 35//3
f 35//2 40//2 44//2 39//2 34//2
f 34//5 39//5 43//5 38//5
f 28//4 33//4 31//4 22//4
f 45//6 43//6 1//6 44//6
f 3//5 23//5 42//5 8//5
f 32//4 23//4 3//4
usemtl Material.003
f 12//5 3//5 8//5 9//5
f 7//2 10//2 9//2 8//2 37//2
f 10//3 7//3 4//3 11//3
f 1//7 2//7 6//7 5//7
f 13//5 24//5 28//5 19//5
f 16//4 27//4 26//4 15//4
f 14//2 25//2 24//2 13//2
f 15//3 26//3 25//3 14//3
f 31//3 36//3 35//3 30//3
f 30//2 35//2 34//2 29//2
f 38//4 36//4 31//4 33//4
f 29//5 34//5 38//5 33//5
f 44//2 40//2 2//2
f 6//4 41//4 45//4
f 6//3 2//3 40//3 41//3
f 45//8 44//8 2//8 6//8
f 12//4 11//4 4//4 32//4 3//4
f 7//1 37//1 32//1 4//1
o Plank.000_Cube.004
v -15.508117 -15.494273 -16.050413
v -15.508117 -15.994273 -15.184387
v -7.508117 -15.994273 -15.184387
v -7.508117 -15.494273 -16.050413
v -15.508118 11.387163 -0.530415
v -15.508116 10.887163 0.335611
v -7.508116 10.887163 0.335610
v -7.508117 11.387163 -0.530415
v 15.491883 -15.849313 15.067520
v 15.491883 -15.349314 15.933546
v 7.491883 -15.349314 15.933546
v 7.491883 -15.849313 15.067520
v 15.491883 11.032120 -0.452478
v 15.491883 11.532120 0.413546
v 7.491883 11.532118 0.413545
v 7.491883 11.032118 -0.452479
v -15.508117 -15.849313 15.067520
v -15.508117 -15.349313 15.933546
v -7.508117 -15.349314 15.933546
v -7.508117 -15.849313 15.067520
v -15.508118 11.032120 -0.452478
v -15.508116 11.532120 0.413546
v -7.508116 11.532118 0.413545
v -7.508117 11.032118 -0.452479
v 15.491883 -15.502934 -16.055412
v 15.491883 -16.002934 -15.189387
v 7.491883 -16.002934 -15.189387
v 7.491883 -15.502933 -16.055412
v 15.491883 11.655628 -0.375415
v 15.491883 11.155628 0.490610
v 7.491882 11.155628 0.490610
v 7.491883 11.655628 -0.375416
v -15.508117 -15.994273 -15.184387
v -7.508117 -15.994273 -15.184387
v -15.508116 10.887163 0.335611
v -7.508116 10.887163 0.335610
v 15.491883 -15.849313 15.067520
v 7.491883 -15.849313 15.067520
v 15.491883 11.032120 -0.452478
v 7.491883 11.032118 -0.452479
v -15.508117 -15.849313 15.067520
v -7.508117 -15.849313 15.067520
v -15.508118 11.032120 -0.452478
v -7.508117 11.032118 -0.452479
v 15.491883 -16.002934 -15.189387
v 7.491883 -16.002934 -15.189387
v 15.491883 11.155628 0.490610
v 7.491882 11.155628 0.490610
v -15.508117 -15.994273 -15.184387
v -7.508117 -15.994273 -15.184387
v -15.508116 10.887163 0.335611
v -7.508116 10.887163 0.335610
v 15.491883 -16.002934 -15.189387
v 7.491883 -16.002934 -15.189387
v 15.491883 11.155628 0.490610
v 7.491882 11.155628 0.490610
v -15.508117 -15.994273 -15.184387
v -7.508117 -15.994273 -15.184387
v -15.508116 10.887163 0.335611
v -7.508116 10.887163 0.335610
v 15.491883 -16.002934 -15.189387
v 7.491883 -16.002934 -15.189387
v 15.491883 11.155628 0.490610
v 7.491882 11.155628 0.490610
v -15.508117 -15.994273 -15.184387
v -7.508117 -15.994273 -15.184387
v -15.508116 10.887163 0.335611
v -7.508116 10.887163 0.335610
v 15.491883 -16.002934 -15.189387
v 7.491883 -16.002934 -15.189387
v 15.491883 11.155628 0.490610
v 7.491882 11.155628 0.490610
v -15.508117 -15.994273 -15.184387
v -7.508117 -15.994273 -15.184387
v -15.508116 10.887163 0.335611
v -7.508116 10.887163 0.335610
v 15.491883 -16.002934 -15.189387
v 7.491883 -16.002934 -15.189387
v 15.491883 11.155628 0.490610
v 7.491882 11.155628 0.490610
v -15.508117 -16.494272 -14.318361
v -7.508117 -16.494272 -14.318361
v -15.508116 10.387163 1.201637
v -7.508116 10.387163 1.201635
v 15.491883 -16.502934 -14.323361
v 7.491883 -16.502934 -14.323362
v 15.491883 10.655628 1.356636
v 7.491882 10.655628 1.356636
v 15.491883 -15.849313 15.067520
v 7.491883 -15.849313 15.067520
v 15.491883 11.032120 -0.452478
v 7.491883 11.032118 -0.452479
v -15.508117 -15.849313 15.067520
v -7.508117 -15.849313 15.067520
v -15.508118 11.032120 -0.452478
v -7.508117 11.032118 -0.452479
v 15.491883 -15.849313 15.067520
v 7.491883 -15.849313 15.067520
v 15.491883 11.032120 -0.452478
v 7.491883 11.032118 -0.452479
v -15.508117 -15.849313 15.067520
v -7.508117 -15.849313 15.067520
v -15.508118 11.032120 -0.452478
v -7.508117 11.032118 -0.452479
v 15.491883 -15.849313 15.067520
v 7.491883 -15.849313 15.067520
v 15.491883 11.032120 -0.452478
v 7.491883 11.032118 -0.452479
v -15.508117 -15.849313 15.067520
v -7.508117 -15.849313 15.067520
v -15.508118 11.032120 -0.452478
v -7.508117 11.032118 -0.452479
v 15.491883 -15.849313 15.067520
v 7.491883 -15.849313 15.067520
v 15.491883 11.032120 -0.452478
v 7.491883 11.032118 -0.452479
v -15.508117 -15.849313 15.067520
v -7.508117 -15.849313 15.067520
v -15.508118 11.032120 -0.452478
v -7.508117 11.032118 -0.452479
v 15.491883 -16.325954 14.188423
v 7.491883 -16.325954 14.188423
v 15.491883 10.555481 -1.331578
v 7.491883 10.555479 -1.331579
v -15.508117 -16.325954 14.188423
v -7.508117 -16.325954 14.188423
v -15.508118 10.555481 -1.331578
v -7.508117 10.555479 -1.331579
vn 0.0000 -0.8660 -0.5000
vn 0.0000 0.8660 0.5000
vn -1.0000 -0.0000 0.0000
vn 0.0000 0.0000 1.0000
vn 1.0000 0.0000 -0.0000
vn 0.0000 0.5000 -0.8660
vn 0.0000 0.8660 -0.5000
vn 0.0000 -0.8660 0.5000
vn 0.0000 -0.5000 -0.8660
vn 0.0000 0.5000 0.8660
vn -0.0000 -0.5000 0.8660
vn 0.0000 0.8791 -0.4766
vn 0.0000 -0.8791 0.4766
usemtl Material.001
s off
f 46//9 49//9 48//9 47//9
f 50//10 51//10 52//10 53//10
f 46//11 47//11 51//11 50//11
f 57//12 83//12 85//12 61//12
f 48//13 49//13 53//13 52//13
f 50//14 53//14 49//14 46//14
f 54//15 57//15 56//15 55//15
f 58//16 59//16 60//16 61//16
f 54//11 55//11 59//11 58//11
f 55//17 56//17 60//17 59//17
f 56//13 57//13 61//13 60//13
f 47//12 78//12 80//12 51//12
f 62//16 65//16 64//16 63//16
f 66//15 67//15 68//15 69//15
f 62//11 63//11 67//11 66//11
f 63//18 64//18 68//18 67//18
f 64//13 65//13 69//13 68//13
f 66//12 88//12 86//12 62//12
f 70//10 73//10 72//10 71//10
f 74//9 75//9 76//9 77//9
f 70//11 71//11 75//11 74//11
f 69//12 89//12 88//12 66//12
f 72//13 73//13 77//13 76//13
f 74//19 77//19 73//19 70//19
f 90//12 98//12 100//12 92//12
f 89//12 141//12 140//12 88//12
f 82//12 134//12 135//12 83//12
f 92//12 100//12 101//12 93//12
f 76//12 93//12 91//12 72//12
f 54//12 82//12 83//12 57//12
f 52//12 81//12 79//12 48//12
f 61//12 85//12 84//12 58//12
f 58//12 84//12 82//12 54//12
f 65//12 87//12 89//12 69//12
f 75//12 92//12 93//12 76//12
f 72//12 91//12 90//12 71//12
f 51//12 80//12 81//12 52//12
f 62//12 86//12 87//12 65//12
f 71//12 90//12 92//12 75//12
f 48//12 79//12 78//12 47//12
f 98//12 106//12 108//12 100//12
f 100//12 108//12 109//12 101//12
f 81//12 97//12 95//12 79//12
f 79//12 95//12 94//12 78//12
f 93//12 101//12 99//12 91//12
f 80//12 96//12 97//12 81//12
f 91//12 99//12 98//12 90//12
f 78//12 94//12 96//12 80//12
f 105//12 113//12 111//12 103//12
f 107//12 115//12 114//12 106//12
f 96//12 104//12 105//12 97//12
f 94//12 102//12 104//12 96//12
f 101//12 109//12 107//12 99//12
f 99//12 107//12 106//12 98//12
f 97//12 105//12 103//12 95//12
f 95//12 103//12 102//12 94//12
f 115//12 123//12 122//12 114//12
f 117//12 125//12 123//12 115//12
f 103//12 111//12 110//12 102//12
f 108//12 116//12 117//12 109//12
f 106//12 114//12 116//12 108//12
f 104//12 112//12 113//12 105//12
f 102//12 110//12 112//12 104//12
f 109//12 117//12 115//12 107//12
f 120//10 128//10 129//10 121//10
f 122//11 130//11 132//11 124//11
f 113//12 121//12 119//12 111//12
f 111//12 119//12 118//12 110//12
f 116//12 124//12 125//12 117//12
f 114//12 122//12 124//12 116//12
f 112//12 120//12 121//12 113//12
f 110//12 118//12 120//12 112//12
f 126//19 127//19 129//19 128//19
f 130//14 131//14 133//14 132//14
f 118//11 126//11 128//11 120//11
f 125//13 133//13 131//13 123//13
f 123//10 131//10 130//10 122//10
f 121//13 129//13 127//13 119//13
f 119//9 127//9 126//9 118//9
f 124//9 132//9 133//9 125//9
f 134//12 142//12 143//12 135//12
f 135//12 143//12 145//12 137//12
f 88//12 140//12 138//12 86//12
f 85//12 137//12 136//12 84//12
f 84//12 136//12 134//12 82//12
f 87//12 139//12 141//12 89//12
f 86//12 138//12 139//12 87//12
f 83//12 135//12 137//12 85//12
f 146//12 154//12 155//12 147//12
f 147//12 155//12 157//12 149//12
f 141//12 149//12 148//12 140//12
f 140//12 148//12 146//12 138//12
f 137//12 145//12 144//12 136//12
f 136//12 144//12 142//12 134//12
f 139//12 147//12 149//12 141//12
f 138//12 146//12 147//12 139//12
f 152//12 160//12 158//12 150//12
f 153//12 161//12 160//12 152//12
f 143//12 151//12 153//12 145//12
f 142//12 150//12 151//12 143//12
f 149//12 157//12 156//12 148//12
f 148//12 156//12 154//12 146//12
f 145//12 153//12 152//12 144//12
f 144//12 152//12 150//12 142//12
f 164//11 172//11 170//11 162//11
f 165//20 173//20 172//20 164//20
f 155//12 163//12 165//12 157//12
f 154//12 162//12 163//12 155//12
f 151//12 159//12 161//12 153//12
f 150//12 158//12 159//12 151//12
f 157//12 165//12 164//12 156//12
f 156//12 164//12 162//12 154//12
f 168//18 169//18 167//18 166//18
f 172//17 173//17 171//17 170//17
f 161//21 169//21 168//21 160//21
f 160//11 168//11 166//11 158//11
f 163//13 171//13 173//13 165//13
f 162//21 170//21 171//21 163//21
f 159//13 167//13 169//13 161//13
f 158//20 166//20 167//20 159//20
o Boundary_Cube.001
v -15.985732 -16.000000 16.000000
v -15.985732 16.000000 16.000000
v -15.985732 -16.000000 -16.000000
v -15.985732 16.000000 -16.000000
v 16.014269 -16.000000 16.000000
v 16.014269 16.000000 16.000000
v 16.014269 -16.000000 -16.000000
v 16.014269 16.000000 -16.000000
l 176 174
l 174 175
l 175 177
l 177 176
l 180 176
l 177 181
l 181 180
l 178 180
l 181 179
l 179 178
l 174 178
l 179 175
