# Blender v2.79 (sub 0) OBJ File: 'construction.blend'
# www.blender.org
mtllib construction.mtl
o Plank.001_Cube.000
v -16.044638 2.598557 7.337377
v -16.044638 9.526761 3.337378
v 13.955369 1.598564 5.873286
v 15.955365 8.526768 1.873286
v -16.044636 1.598557 5.873275
v -16.044636 8.526762 1.873276
v 15.955361 9.526768 3.337389
v 13.955365 2.598564 7.337387
v 8.955363 2.598563 7.337387
v 12.955363 9.526767 3.337388
v 12.955367 8.526768 1.873286
v 8.955369 1.598563 5.873285
v 3.976798 2.598562 7.337383
v 7.919066 9.526766 3.337384
v 7.919070 8.526766 1.873282
v 3.976802 1.598562 5.873281
v 7.955361 9.526766 3.337387
v 7.955365 8.526767 1.873285
v 3.955367 1.598562 5.873284
v -1.023201 2.598561 7.337382
v 2.919066 9.526765 3.337384
v 2.919070 8.526766 1.873282
v 15.955369 1.598564 5.873286
v -1.023201 2.598561 7.337382
v 2.919066 9.526765 3.337384
v 2.919070 8.526766 1.873282
v -1.023199 1.598561 5.873281
v -1.044634 1.598561 5.873283
v -6.023202 2.598560 7.337381
v -2.080932 9.526764 3.337383
v -2.080930 8.526765 1.873281
v 15.955365 5.062666 3.873286
v -6.044635 1.598560 5.873282
v -11.023202 2.598559 7.337380
v -7.080933 9.526763 3.337382
v -7.080930 8.526764 1.873280
v 15.955361 6.062665 5.337389
v -11.044634 1.598559 5.873281
v -16.023201 2.598558 7.337379
v -12.080933 9.526762 3.337381
v -12.080931 8.526763 1.873279
v 15.955365 2.598564 7.337388
v -16.044634 1.598559 5.873281
v -16.052067 3.464583 6.837380
v -16.052065 2.464584 5.373278
vn 1.0000 0.0000 0.0000
vn 0.0000 0.5000 0.8660
vn 0.0000 0.8258 -0.5640
vn 0.0000 -0.5000 -0.8660
vn -0.0000 -0.8258 0.5640
vn -1.0000 -0.0062 0.0042
vn -1.0000 -0.0000 -0.0000
vn -1.0000 0.0009 -0.0006
usemtl Material.002
s off
f 42//1 23//1 32//1 37//1
f 8//2 42//2 37//2
f 9//2 10//2 14//2 13//2
f 11//3 15//3 14//3 10//3
f 11//4 12//4 16//4 15//4
f 9//5 13//5 19//5 16//5 12//5
f 36//4 38//4 5//4 45//4 41//4
f 24//5 29//5 33//5 28//5
f 26//3 31//3 30//3 25//3
f 25//2 30//2 29//2 24//2
f 36//3 41//3 40//3 35//3
f 35//2 40//2 44//2 39//2 34//2
f 34//5 39//5 43//5 38//5
f 28//4 33//4 31//4 22//4
f 45//6 43//6 1//6 44//6
f 3//5 23//5 42//5 8//5
f 32//4 23//4 3//4
usemtl Material.003
f 12//5 3//5 8//5 9//5
f 7//2 10//2 9//2 8//2 37//2
f 10//3 7//3 4//3 11//3
f 1//7 2//7 6//7 5//7
f 13//5 24//5 28//5 19//5
f 16//4 27//4 26//4 15//4
f 14//2 25//2 24//2 13//2
f 15//3 26//3 25//3 14//3
f 31//3 36//3 35//3 30//3
f 30//2 35//2 34//2 29//2
f 38//4 36//4 31//4 33//4
f 29//5 34//5 38//5 33//5
f 44//2 40//2 2//2
f 6//4 41//4 45//4
f 6//3 2//3 40//3 41//3
f 45//8 44//8 2//8 6//8
f 12//4 11//4 4//4 32//4 3//4
f 7//1 37//1 32//1 4//1
o Plank.004_Cube.007
v -16.044638 1.598558 -5.662622
v -16.044638 8.526761 -1.662622
v 13.955367 2.598556 -7.126720
v 15.955363 9.526759 -3.126719
v -16.044636 2.598558 -7.126725
v -16.044636 9.526762 -3.126724
v 15.955363 8.526758 -1.662617
v 13.955367 1.598556 -5.662619
v 8.955367 1.598556 -5.662619
v 12.955365 8.526758 -1.662617
v 12.955365 9.526759 -3.126719
v 8.955367 2.598556 -7.126719
v 3.976800 1.598557 -5.662621
v 7.919068 8.526760 -1.662620
v 7.919068 9.526760 -3.126721
v 3.976800 2.598557 -7.126722
v 7.955363 8.526758 -1.662618
v 7.955363 9.526759 -3.126719
v 3.955365 2.598556 -7.126720
v -1.023201 1.598557 -5.662621
v 2.919068 8.526760 -1.662620
v 2.919068 9.526761 -3.126721
v 15.955367 2.598556 -7.126719
v -1.023201 1.598557 -5.662621
v 2.919068 8.526760 -1.662620
v 2.919068 9.526761 -3.126721
v -1.023200 2.598557 -7.126722
v -1.044635 2.598555 -7.126720
v -6.023202 1.598557 -5.662621
v -2.080932 8.526760 -1.662620
v -2.080932 9.526760 -3.126721
v 15.955363 6.062657 -5.126719
v -6.044636 2.598555 -7.126721
v -11.023201 1.598557 -5.662621
v -7.080933 8.526760 -1.662620
v -7.080930 9.526760 -3.126721
v 15.955363 5.062657 -3.662618
v -11.044634 2.598555 -7.126720
v -16.023201 1.598557 -5.662621
v -12.080933 8.526760 -1.662620
v -12.080931 9.526760 -3.126721
v 15.955367 1.598556 -5.662619
v -16.044634 2.598554 -7.126721
v -16.052067 2.464581 -5.162621
v -16.052065 3.464582 -6.626722
vn 1.0000 0.0000 0.0000
vn 0.0000 -0.5000 0.8660
vn 0.0000 0.8258 0.5640
vn 0.0000 0.5000 -0.8660
vn 0.0000 -0.8258 -0.5640
vn -1.0000 -0.0062 -0.0042
vn -1.0000 0.0000 -0.0000
vn -1.0000 0.0009 0.0006
usemtl Material.002
s off
f 87//9 68//9 77//9 82//9
f 53//10 87//10 82//10
f 54//10 55//10 59//10 58//10
f 56//11 60//11 59//11 55//11
f 56//12 57//12 61//12 60//12
f 54//13 58//13 64//13 61//13 57//13
f 81//12 83//12 50//12 90//12 86//12
f 69//13 74//13 78//13 73//13
f 71//11 76//11 75//11 70//11
f 70//10 75//10 74//10 69//10
f 81//11 86//11 85//11 80//11
f 80//10 85//10 89//10 84//10 79//10
f 79//13 84//13 88//13 83//13
f 73//12 78//12 76//12 67//12
f 90//14 88//14 46//14 89//14
f 48//13 68//13 87//13 53//13
f 77//12 68//12 48//12
usemtl Material.003
f 57//13 48//13 53//13 54//13
f 52//10 55//10 54//10 53//10 82//10
f 55//11 52//11 49//11 56//11
f 46//15 47//15 51//15 50//15
f 58//13 69//13 73//13 64//13
f 61//12 72//12 71//12 60//12
f 59//10 70//10 69//10 58//10
f 60//11 71//11 70//11 59//11
f 76//11 81//11 80//11 75//11
f 75//10 80//10 79//10 74//10
f 83//12 81//12 76//12 78//12
f 74//13 79//13 83//13 78//13
f 89//10 85//10 47//10
f 51//12 86//12 90//12
f 51//11 47//11 85//11 86//11
f 90//16 89//16 47//16 51//16
f 57//12 56//12 49//12 77//12 48//12
f 52//9 82//9 77//9 49//9
o Plank.000_Cube.004
v -15.508117 -15.494273 -16.050413
v -7.508117 -15.494273 -16.050413
v 15.491883 -15.349314 15.933546
v 7.491883 -15.349314 15.933546
v -7.508117 -15.349314 15.933546
v 15.491883 -15.502934 -16.055412
v 7.491883 -15.502933 -16.055412
v -15.508117 -16.494272 -14.318361
v -7.508117 -16.494272 -14.318361
v 15.491883 -16.502934 -14.323361
v 7.491883 -16.502934 -14.323362
v 15.491883 -16.325954 14.188423
v 7.491883 -16.325954 14.188423
v -15.508117 -16.325954 14.188423
v -7.508117 -16.325954 14.188423
v -15.508117 -15.325952 15.988420
v 15.491883 10.617014 -0.709039
v 7.491883 10.617014 -0.709040
v 15.491883 9.617014 1.023012
v 7.491883 9.617014 1.023012
v 15.491883 10.757256 1.130087
v 7.491883 10.757256 1.130087
v 15.491883 9.680620 -0.515036
v 7.491883 9.680620 -0.515036
v -7.520360 10.726425 1.096125
v -15.520361 9.649788 -0.548998
v -7.520360 9.649788 -0.548998
v -15.520361 10.749786 1.151001
v -15.508117 10.718542 -0.650418
v -7.508117 10.718542 -0.650418
v -15.508117 9.718542 1.081633
v -7.508117 9.718544 1.081633
vn 0.0000 -0.8726 0.4884
vn 0.0000 -0.8660 -0.5000
vn 0.0004 -0.8734 0.4870
vn 0.0000 0.5066 -0.8622
vn -0.0000 -0.5066 0.8622
vn 1.0000 0.0000 0.0000
vn -1.0000 0.0000 0.0000
vn 0.0000 0.8367 -0.5476
vn 0.0000 0.4933 0.8699
vn 0.0000 -0.4922 -0.8705
vn -0.0006 0.8382 -0.5454
vn -1.0000 -0.0004 0.0002
vn 0.0000 -0.4935 -0.8698
vn 0.0074 0.4945 0.8691
vn 1.0000 0.0003 -0.0002
vn 0.0000 -0.5065 0.8622
vn 0.0000 0.5065 -0.8622
vn 0.0014 0.9999 -0.0110
vn 0.0000 0.9971 -0.0760
vn 0.9999 -0.0108 0.0071
vn -0.9999 -0.0114 -0.0066
usemtl Material.001
s off
f 94//17 103//17 102//17 93//17
f 97//18 96//18 100//18 101//18
f 104//19 105//19 95//19 106//19
f 92//18 99//18 98//18 91//18
f 97//20 108//20 107//20 96//20
f 100//21 109//21 110//21 101//21
f 96//22 107//22 109//22 100//22
f 101//23 110//23 108//23 97//23
f 112//24 111//24 113//24 114//24
f 93//25 111//25 112//25 94//25
f 102//22 113//22 111//22 93//22
f 94//23 112//23 114//23 103//23
f 103//26 114//26 113//26 102//26
f 116//27 118//27 115//27 117//27
f 106//28 118//28 116//28 104//28
f 104//29 116//29 117//29 105//29
f 95//30 115//30 118//30 106//30
f 105//31 117//31 115//31 95//31
f 98//23 121//23 119//23 91//23
f 99//32 122//32 121//32 98//32
f 92//22 120//22 122//22 99//22
f 91//33 119//33 120//33 92//33
f 118//34 115//34 120//34 119//34
f 111//35 107//35 108//35 112//35
f 111//22 113//22 107//22
f 110//23 112//23 108//23
f 115//36 117//36 120//36
f 119//37 121//37 118//37
o Boundary_Cube.001
v -15.985732 -16.000000 16.000000
v -15.985732 16.000000 16.000000
v -15.985732 -16.000000 -16.000000
v -15.985732 16.000000 -16.000000
v 16.014269 -16.000000 16.000000
v 16.014269 16.000000 16.000000
v 16.014269 -16.000000 -16.000000
v 16.014269 16.000000 -16.000000
l 125 123
l 123 124
l 124 126
l 126 125
l 129 125
l 126 130
l 130 129
l 127 129
l 130 128
l 128 127
l 123 127
l 128 124
