# Blender v2.79 (sub 0) OBJ File: 'factory.blend'
# www.blender.org
mtllib factory.mtl
o Cube.008_Cube.009
v -0.613451 25.479738 2.016272
v -0.613451 27.479738 1.716272
v 1.386549 25.479738 2.116272
v 1.386549 27.479738 1.916272
v 1.786549 26.479738 2.321446
v 0.386549 27.679739 1.516272
v -0.913450 26.479738 2.349314
v 0.386549 25.179739 1.316272
v -0.613451 25.479738 -0.383728
v -0.613451 27.479738 -0.083728
v 1.386549 25.479738 -0.383728
v 1.386549 27.479738 -0.283728
v 1.486549 26.479738 -1.183728
v 0.386549 27.679739 0.416272
v -0.913450 26.479738 -1.183728
v 0.386549 25.179739 0.216272
v 0.436550 26.479738 2.678693
v 0.386549 27.479738 2.144593
v 10.815790 24.717789 2.016272
v 10.815790 26.717789 1.716272
v 12.815790 24.717789 2.116272
v 12.815790 26.717789 1.916272
v 13.215790 25.717789 2.321446
v 11.815790 26.917789 1.516272
v 10.515791 25.717789 2.349314
v 11.815790 24.417789 1.316272
v 10.815790 24.717789 -0.383728
v 10.815790 26.717789 -0.083728
v 12.815790 24.717789 -0.383728
v 12.815790 26.717789 -0.283728
v 12.915791 25.717789 -1.183728
v 11.815790 26.917789 0.416272
v 10.515791 25.717789 -1.183728
v 11.815790 24.417789 0.216272
v 11.865791 25.717789 2.678693
v 11.815790 26.717789 2.144593
v 4.118656 24.597481 2.016272
v 4.118656 26.597481 1.716272
v 6.118656 24.597481 2.116272
v 6.118656 26.597481 1.916272
v 6.518656 25.597481 2.321446
v 5.118656 26.797482 1.516272
v 3.818656 25.597481 2.349314
v 5.118656 24.297482 1.316272
v 4.118656 24.597481 -0.383728
v 4.118656 26.597481 -0.083728
v 6.118656 24.597481 -0.383728
v 6.118656 26.597481 -0.283728
v 6.218656 25.597481 -1.183728
v 5.118656 26.797482 0.416272
v 3.818656 25.597481 -1.183728
v 5.118656 24.297482 0.216272
v 5.168656 25.597481 2.678693
v 5.118656 26.597481 2.144593
v 1.351577 21.710093 2.016272
v 1.351577 23.710093 1.716272
v 3.351577 21.710093 2.116272
v 3.351577 23.710093 1.916272
v 3.751577 22.710093 2.321446
v 2.351577 23.910093 1.516272
v 1.051577 22.710093 2.349314
v 2.351577 21.410091 1.316272
v 1.351577 21.710093 -0.383728
v 1.351577 23.710093 -0.083728
v 3.351577 21.710093 -0.383728
v 3.351577 23.710093 -0.283728
v 3.451577 22.710093 -1.183728
v 2.351577 23.910093 0.416272
v 1.051577 22.710093 -1.183728
v 2.351577 21.410091 0.216272
v 2.401577 22.710093 2.678693
v 2.351577 23.710093 2.144593
v -3.540940 22.191324 2.016272
v -3.540940 24.191324 1.716272
v -1.540940 22.191324 2.116272
v -1.540940 24.191324 1.916272
v -1.140940 23.191324 2.321446
v -2.540940 24.391325 1.516272
v -3.840940 23.191324 2.349314
v -2.540940 21.891323 1.316272
v -3.540940 22.191324 -0.383728
v -3.540940 24.191324 -0.083728
v -1.540940 22.191324 -0.383728
v -1.540940 24.191324 -0.283728
v -1.440940 23.191324 -1.183728
v -2.540940 24.391325 0.416272
v -3.840940 23.191324 -1.183728
v -2.540940 21.891323 0.216272
v -2.490940 23.191324 2.678693
v -2.540940 24.191324 2.144593
v -5.540940 18.191324 2.016272
v -5.540940 20.191324 1.716272
v -3.540940 18.191324 2.116272
v -3.540940 20.191324 1.916272
v -3.140940 19.191324 2.321446
v -4.540940 20.391323 1.516272
v -5.840940 19.191324 2.349314
v -4.540940 17.891323 1.316272
v -5.540940 18.191324 -0.383728
v -5.540940 20.191324 -0.083728
v -3.540940 18.191324 -0.383728
v -3.540940 20.191324 -0.283728
v -3.440940 19.191324 -1.183728
v -4.540940 20.391323 0.416272
v -5.840940 19.191324 -1.183728
v -4.540940 17.891323 0.216272
v -4.490940 19.191324 2.678693
v -4.540940 20.191324 2.144593
v -0.540940 18.191324 2.016272
v -0.540940 20.191324 1.716272
v 1.459060 18.191324 2.116272
v 1.459060 20.191324 1.916272
v 1.859060 19.191324 2.321446
v 0.459060 20.391323 1.516272
v -0.840940 19.191324 2.349314
v 0.459060 17.891323 1.316272
v -0.540940 18.191324 -0.383728
v -0.540940 20.191324 -0.083728
v 1.459060 18.191324 -0.383728
v 1.459060 20.191324 -0.283728
v 1.559060 19.191324 -1.183728
v 0.459060 20.391323 0.416272
v -0.840940 19.191324 -1.183728
v 0.459060 17.891323 0.216272
v 0.509060 19.191324 2.678693
v 0.459060 20.191324 2.144593
v 4.459060 18.191324 2.016272
v 4.459060 20.191324 1.716272
v 6.459060 18.191324 2.116272
v 6.459060 20.191324 1.916272
v 6.859060 19.191324 2.321446
v 5.459060 20.391323 1.516272
v 4.159060 19.191324 2.349314
v 5.459060 17.891323 1.316272
v 4.459060 18.191324 -0.383728
v 4.459060 20.191324 -0.083728
v 6.459060 18.191324 -0.383728
v 6.459060 20.191324 -0.283728
v 6.559060 19.191324 -1.183728
v 5.459060 20.391323 0.416272
v 4.159060 19.191324 -1.183728
v 5.459060 17.891323 0.216272
v 5.509060 19.191324 2.678693
v 5.459060 20.191324 2.144593
v 8.459059 22.191324 2.016272
v 8.459059 24.191324 1.716272
v 10.459059 22.191324 2.116272
v 10.459059 24.191324 1.916272
v 10.859058 23.191324 2.321446
v 9.459059 24.391325 1.516272
v 8.159060 23.191324 2.349314
v 9.459059 21.891323 1.316272
v 8.459059 22.191324 -0.383728
v 8.459059 24.191324 -0.083728
v 10.459059 22.191324 -0.383728
v 10.459059 24.191324 -0.283728
v 10.559059 23.191324 -1.183728
v 9.459059 24.391325 0.416272
v 8.159060 23.191324 -1.183728
v 9.459059 21.891323 0.216272
v 9.509060 23.191324 2.678693
v 9.459059 24.191324 2.144593
vn 0.2873 0.9578 0.0000
vn 0.1961 -0.9806 0.0000
vn -0.9655 0.2557 0.0482
vn -0.9659 -0.2540 0.0508
vn 0.9578 0.2873 0.0000
vn -0.2873 0.9578 0.0000
vn -0.1961 -0.9806 0.0000
vn 0.9578 -0.2873 0.0000
vn -0.0000 0.8944 0.4472
vn 0.0316 -0.9482 0.3161
vn -0.0000 0.6247 0.7809
vn 0.0321 -0.7083 0.7051
vn 0.0186 0.9283 -0.3713
vn 0.0139 0.4220 -0.9065
vn 0.0317 -0.4981 -0.8665
vn 0.0303 -0.9525 -0.3032
usemtl Material.003
s off
f 1//1 8//1 16//1 9//1
f 6//2 2//2 10//2 14//2
f 3//3 5//3 13//3 11//3
f 5//4 4//4 12//4 13//4
f 7//5 1//5 9//5 15//5
f 8//6 3//6 11//6 16//6
f 4//7 6//7 14//7 12//7
f 2//8 7//8 15//8 10//8
f 16//9 11//9 9//9
f 12//10 14//10 10//10
f 13//11 15//11 9//11 11//11
f 15//12 13//12 12//12 10//12
f 8//13 1//13 3//13
f 5//14 3//14 1//14 7//14 17//14
f 7//15 2//15 18//15 4//15 5//15 17//15
f 4//16 18//16 2//16 6//16
f 19//1 26//1 34//1 27//1
f 24//2 20//2 28//2 32//2
f 21//3 23//3 31//3 29//3
f 23//4 22//4 30//4 31//4
f 25//5 19//5 27//5 33//5
f 26//6 21//6 29//6 34//6
f 22//7 24//7 32//7 30//7
f 20//8 25//8 33//8 28//8
f 34//9 29//9 27//9
f 30//10 32//10 28//10
f 31//11 33//11 27//11 29//11
f 33//12 31//12 30//12 28//12
f 26//13 19//13 21//13
f 23//14 21//14 19//14 25//14 35//14
f 25//15 20//15 36//15 22//15 23//15 35//15
f 22//16 36//16 20//16 24//16
f 37//1 44//1 52//1 45//1
f 42//2 38//2 46//2 50//2
f 39//3 41//3 49//3 47//3
f 41//4 40//4 48//4 49//4
f 43//5 37//5 45//5 51//5
f 44//6 39//6 47//6 52//6
f 40//7 42//7 50//7 48//7
f 38//8 43//8 51//8 46//8
f 52//9 47//9 45//9
f 48//10 50//10 46//10
f 49//11 51//11 45//11 47//11
f 51//12 49//12 48//12 46//12
f 44//13 37//13 39//13
f 41//14 39//14 37//14 43//14 53//14
f 43//15 38//15 54//15 40//15 41//15 53//15
f 40//16 54//16 38//16 42//16
f 55//1 62//1 70//1 63//1
f 60//2 56//2 64//2 68//2
f 57//3 59//3 67//3 65//3
f 59//4 58//4 66//4 67//4
f 61//5 55//5 63//5 69//5
f 62//6 57//6 65//6 70//6
f 58//7 60//7 68//7 66//7
f 56//8 61//8 69//8 64//8
f 70//9 65//9 63//9
f 66//10 68//10 64//10
f 67//11 69//11 63//11 65//11
f 69//12 67//12 66//12 64//12
f 62//13 55//13 57//13
f 59//14 57//14 55//14 61//14 71//14
f 61//15 56//15 72//15 58//15 59//15 71//15
f 58//16 72//16 56//16 60//16
f 73//1 80//1 88//1 81//1
f 78//2 74//2 82//2 86//2
f 75//3 77//3 85//3 83//3
f 77//4 76//4 84//4 85//4
f 79//5 73//5 81//5 87//5
f 80//6 75//6 83//6 88//6
f 76//7 78//7 86//7 84//7
f 74//8 79//8 87//8 82//8
f 88//9 83//9 81//9
f 84//10 86//10 82//10
f 85//11 87//11 81//11 83//11
f 87//12 85//12 84//12 82//12
f 80//13 73//13 75//13
f 77//14 75//14 73//14 79//14 89//14
f 79//15 74//15 90//15 76//15 77//15 89//15
f 76//16 90//16 74//16 78//16
f 91//1 98//1 106//1 99//1
f 96//2 92//2 100//2 104//2
f 93//3 95//3 103//3 101//3
f 95//4 94//4 102//4 103//4
f 97//5 91//5 99//5 105//5
f 98//6 93//6 101//6 106//6
f 94//7 96//7 104//7 102//7
f 92//8 97//8 105//8 100//8
f 106//9 101//9 99//9
f 102//10 104//10 100//10
f 103//11 105//11 99//11 101//11
f 105//12 103//12 102//12 100//12
f 98//13 91//13 93//13
f 95//14 93//14 91//14 97//14 107//14
f 97//15 92//15 108//15 94//15 95//15 107//15
f 94//16 108//16 92//16 96//16
f 109//1 116//1 124//1 117//1
f 114//2 110//2 118//2 122//2
f 111//3 113//3 121//3 119//3
f 113//4 112//4 120//4 121//4
f 115//5 109//5 117//5 123//5
f 116//6 111//6 119//6 124//6
f 112//7 114//7 122//7 120//7
f 110//8 115//8 123//8 118//8
f 124//9 119//9 117//9
f 120//10 122//10 118//10
f 121//11 123//11 117//11 119//11
f 123//12 121//12 120//12 118//12
f 116//13 109//13 111//13
f 113//14 111//14 109//14 115//14 125//14
f 115//15 110//15 126//15 112//15 113//15 125//15
f 112//16 126//16 110//16 114//16
f 127//1 134//1 142//1 135//1
f 132//2 128//2 136//2 140//2
f 129//3 131//3 139//3 137//3
f 131//4 130//4 138//4 139//4
f 133//5 127//5 135//5 141//5
f 134//6 129//6 137//6 142//6
f 130//7 132//7 140//7 138//7
f 128//8 133//8 141//8 136//8
f 142//9 137//9 135//9
f 138//10 140//10 136//10
f 139//11 141//11 135//11 137//11
f 141//12 139//12 138//12 136//12
f 134//13 127//13 129//13
f 131//14 129//14 127//14 133//14 143//14
f 133//15 128//15 144//15 130//15 131//15 143//15
f 130//16 144//16 128//16 132//16
f 145//1 152//1 160//1 153//1
f 150//2 146//2 154//2 158//2
f 147//3 149//3 157//3 155//3
f 149//4 148//4 156//4 157//4
f 151//5 145//5 153//5 159//5
f 152//6 147//6 155//6 160//6
f 148//7 150//7 158//7 156//7
f 146//8 151//8 159//8 154//8
f 160//9 155//9 153//9
f 156//10 158//10 154//10
f 157//11 159//11 153//11 155//11
f 159//12 157//12 156//12 154//12
f 152//13 145//13 147//13
f 149//14 147//14 145//14 151//14 161//14
f 151//15 146//15 162//15 148//15 149//15 161//15
f 148//16 162//16 146//16 150//16
o Cube_Cube.002
v -11.200000 -15.861927 11.200000
v -10.080000 -4.461927 10.080000
v -11.200000 -15.861927 -11.200000
v -10.080000 -4.461927 -10.080000
v 11.200000 -15.861927 11.200000
v 10.080000 -4.461927 10.080000
v 11.200000 -15.861927 -11.200000
v 10.080000 -4.461927 -10.080000
v -11.200000 -4.661927 -11.200000
v 11.200000 -4.661927 -11.200000
v 11.200000 -4.661927 11.200000
v -11.200000 -4.661927 11.200000
v -8.960000 7.538073 8.960000
v -8.960000 7.538073 -8.960000
v 8.960000 7.538073 8.960000
v 8.960000 7.538073 -8.960000
v 8.960000 7.538073 1.000000
v -1.000000 7.538073 1.000000
v 8.960000 7.538073 -0.999310
v -1.000000 7.538073 -0.998345
v -6.480000 7.538073 1.000000
v 4.480000 7.538073 1.000000
v -6.480000 7.538073 -0.997862
v 4.480000 7.538073 -0.998828
v -4.240000 7.538073 1.000000
v -4.240000 7.538073 -0.998104
v 1.240000 7.538073 -0.998586
v 1.240000 7.538073 1.000000
v 6.720000 7.538073 1.000000
v 6.720000 7.538073 -0.999069
v -6.480000 15.538074 1.000000
v -6.480000 15.538074 -0.997862
v -4.240000 15.538074 1.000000
v -4.240000 15.538074 -0.998104
v -1.000000 15.538074 1.000000
v -1.000000 15.538074 -0.998345
v 1.240000 15.538074 -0.998586
v 1.240000 15.538074 1.000000
v 4.480000 15.538074 1.000000
v 4.480000 15.538074 -0.998828
v 6.720000 15.538074 1.000000
v 6.720000 15.538074 -0.999069
vn 1.0000 0.0000 0.0000
vn 0.0000 0.0000 1.0000
vn -1.0000 0.0000 0.0000
vn 0.0000 0.0000 -1.0000
vn 0.0000 -1.0000 0.0000
vn 0.0000 0.0929 0.9957
vn 0.0000 0.0929 -0.9957
vn 0.9957 0.0929 0.0000
vn -0.9957 0.0929 0.0000
vn 0.0000 1.0000 0.0000
vn 0.0000 0.9844 -0.1758
vn -0.1758 0.9844 0.0000
vn 0.0000 0.9844 0.1758
vn 0.1758 0.9844 0.0000
vn -0.0001 0.0000 -1.0000
vn 0.0001 0.0000 1.0000
usemtl Material
s off
f 169//17 172//17 173//17 167//17
f 173//18 174//18 163//18 167//18
f 163//19 174//19 171//19 165//19
f 165//20 171//20 172//20 169//20
f 165//21 169//21 167//21 163//21
f 164//22 168//22 177//22 175//22
f 187//21 183//21 185//21 188//21
f 170//23 166//23 176//23 178//23
f 168//24 170//24 178//24 181//24 179//24 177//24
f 164//25 175//25 176//25 166//25
f 189//26 182//26 180//26 190//26
f 191//21 184//21 186//21 192//21
f 176//26 175//26 177//26 178//26
f 170//27 172//27 171//27 166//27
f 174//28 164//28 166//28 171//28
f 174//29 173//29 168//29 164//29
f 168//30 173//30 172//30 170//30
usemtl Material.001
f 195//26 196//26 194//26 193//26
f 187//17 188//17 196//17 195//17
f 188//31 185//31 194//31 196//31
f 185//19 183//19 193//19 194//19
f 183//18 187//18 195//18 193//18
f 199//21 200//21 197//21 198//21
f 180//17 182//17 198//17 197//17
f 190//20 180//20 197//20 200//20
f 189//19 190//19 200//19 199//19
f 182//32 189//32 199//32 198//32
f 203//26 204//26 202//26 201//26
f 192//31 186//31 202//31 204//31
f 191//17 192//17 204//17 203//17
f 184//18 191//18 203//18 201//18
f 186//19 184//19 201//19 202//19
o Boundary_Cube.001
v -16.000000 -16.000000 16.000000
v -16.000000 16.000000 16.000000
v -16.000000 -16.000000 -16.000000
v -16.000000 16.000000 -16.000000
v 16.000000 -16.000000 16.000000
v 16.000000 16.000000 16.000000
v 16.000000 -16.000000 -16.000000
v 16.000000 16.000000 -16.000000
l 207 205
l 205 206
l 206 208
l 208 207
l 211 207
l 208 212
l 212 211
l 209 211
l 212 210
l 210 209
l 205 209
l 210 206
