# Blender v2.79 (sub 0) OBJ File: 'houses.blend'
# www.blender.org
mtllib houses.mtl
o Cube.004_Cube.005
v -1.600003 -16.000000 -13.599998
v -1.600003 -8.000000 -13.599998
v -1.600002 -16.000000 -5.599999
v -1.600002 -8.000000 -5.599999
v -9.600002 -16.000000 -13.599998
v -9.600002 -8.000000 -13.599998
v -9.600001 -16.000000 -5.599998
v -9.600001 -8.000000 -5.599998
v -5.600002 -5.000000 -9.599998
v -4.600003 -16.000000 -13.599998
v -6.600003 -16.000000 -13.599998
v -4.600003 -13.000000 -13.599998
v -6.600003 -13.000000 -13.599998
vn 1.0000 0.0000 -0.0000
vn 0.0000 0.0000 1.0000
vn -1.0000 0.0000 0.0000
vn -0.0000 0.0000 -1.0000
vn 0.0000 -1.0000 0.0000
vn 0.0000 0.8000 0.6000
vn 0.6000 0.8000 -0.0000
vn -0.6000 0.8000 0.0000
vn 0.0000 0.8000 -0.6000
usemtl Material.005
s off
f 1//1 2//1 4//1 3//1
f 3//2 4//2 8//2 7//2
f 7//3 8//3 6//3 5//3
f 5//4 6//4 2//4 1//4 10//4 12//4 13//4 11//4
f 3//5 7//5 5//5 11//5 10//5 1//5
usemtl Material.006
f 13//4 12//4 10//4 11//4
usemtl Material.007
f 8//6 4//6 9//6
f 4//7 2//7 9//7
f 6//8 8//8 9//8
f 2//9 6//9 9//9
o Cube.003_Cube.004
v 11.399997 -16.000000 -13.600002
v 11.399997 -8.000000 -13.600002
v 11.399998 -16.000000 -5.600003
v 11.399998 -8.000000 -5.600003
v 3.399997 -16.000000 -13.600001
v 3.399997 -8.000000 -13.600001
v 3.399998 -16.000000 -5.600002
v 3.399998 -8.000000 -5.600002
v 7.399998 -5.000000 -9.600002
v 8.399997 -16.000000 -13.600002
v 6.399997 -16.000000 -13.600002
v 8.399997 -13.000000 -13.600002
v 6.399997 -13.000000 -13.600002
vn 1.0000 0.0000 -0.0000
vn 0.0000 0.0000 1.0000
vn -1.0000 0.0000 0.0000
vn -0.0000 0.0000 -1.0000
vn 0.0000 -1.0000 0.0000
vn 0.0000 0.8000 0.6000
vn 0.6000 0.8000 -0.0000
vn -0.6000 0.8000 0.0000
vn 0.0000 0.8000 -0.6000
usemtl Material.005
s off
f 14//10 15//10 17//10 16//10
f 16//11 17//11 21//11 20//11
f 20//12 21//12 19//12 18//12
f 18//13 19//13 15//13 14//13 23//13 25//13 26//13 24//13
f 16//14 20//14 18//14 24//14 23//14 14//14
usemtl Material.006
f 26//13 25//13 23//13 24//13
usemtl Material.007
f 21//15 17//15 22//15
f 17//16 15//16 22//16
f 19//17 21//17 22//17
f 15//18 19//18 22//18
o Cube.002_Cube.003
v 11.400001 -16.000000 2.399998
v 11.400001 -8.000000 2.399998
v 11.400002 -16.000000 10.399998
v 11.400002 -8.000000 10.399998
v 3.400001 -16.000000 2.399999
v 3.400001 -8.000000 2.399999
v 3.400002 -16.000000 10.400000
v 3.400002 -8.000000 10.400000
v 7.400002 -5.000000 6.399999
v 8.400001 -16.000000 2.399999
v 6.400001 -16.000000 2.399999
v 8.400001 -13.000000 2.399999
v 6.400001 -13.000000 2.399999
vn 1.0000 0.0000 -0.0000
vn 0.0000 0.0000 1.0000
vn -1.0000 0.0000 0.0000
vn -0.0000 -0.0000 -1.0000
vn 0.0000 -1.0000 0.0000
vn 0.0000 0.8000 0.6000
vn 0.6000 0.8000 -0.0000
vn -0.6000 0.8000 0.0000
vn -0.0000 0.8000 -0.6000
usemtl Material.005
s off
f 27//19 28//19 30//19 29//19
f 29//20 30//20 34//20 33//20
f 33//21 34//21 32//21 31//21
f 31//22 32//22 28//22 27//22 36//22 38//22 39//22 37//22
f 29//23 33//23 31//23 37//23 36//23 27//23
usemtl Material.006
f 39//22 38//22 36//22 37//22
usemtl Material.007
f 34//24 30//24 35//24
f 30//25 28//25 35//25
f 32//26 34//26 35//26
f 28//27 32//27 35//27
o Cube.001_Cube.000
v -7.599999 -16.000000 7.400001
v -7.599999 -8.000000 7.400001
v -7.599998 -16.000000 15.400001
v -7.599998 -8.000000 15.400001
v -15.599998 -16.000000 7.400002
v -15.599998 -8.000000 7.400002
v -15.599998 -16.000000 15.400002
v -15.599998 -8.000000 15.400002
v -11.599998 -5.000000 11.400002
v -10.599999 -16.000000 7.400002
v -12.599999 -16.000000 7.400002
v -10.599999 -13.000000 7.400002
v -12.599999 -13.000000 7.400002
vn 1.0000 0.0000 -0.0000
vn 0.0000 0.0000 1.0000
vn -1.0000 0.0000 0.0000
vn -0.0000 0.0000 -1.0000
vn 0.0000 -1.0000 0.0000
vn 0.0000 0.8000 0.6000
vn 0.6000 0.8000 -0.0000
vn -0.6000 0.8000 0.0000
vn 0.0000 0.8000 -0.6000
usemtl Material.005
s off
f 40//28 41//28 43//28 42//28
f 42//29 43//29 47//29 46//29
f 46//30 47//30 45//30 44//30
f 44//31 45//31 41//31 40//31 49//31 51//31 52//31 50//31
f 42//32 46//32 44//32 50//32 49//32 40//32
usemtl Material.006
f 52//31 51//31 49//31 50//31
usemtl Material.007
f 47//33 43//33 48//33
f 43//34 41//34 48//34
f 45//35 47//35 48//35
f 41//36 45//36 48//36
o Cube_Cube.002
v 2.400000 -16.000000 -1.600000
v 2.400000 -8.000000 -1.600000
v 2.400001 -16.000000 6.400000
v 2.400001 -8.000000 6.400000
v -5.600000 -16.000000 -1.599999
v -5.600000 -8.000000 -1.599999
v -5.599999 -16.000000 6.400001
v -5.599999 -8.000000 6.400001
v -1.600000 -5.000000 2.400001
v -0.600000 -16.000000 -1.599999
v -2.600000 -16.000000 -1.599999
v -0.600000 -13.000000 -1.599999
v -2.600000 -13.000000 -1.599999
vn 1.0000 0.0000 -0.0000
vn 0.0000 0.0000 1.0000
vn -1.0000 0.0000 0.0000
vn -0.0000 -0.0000 -1.0000
vn 0.0000 -1.0000 0.0000
vn 0.0000 0.8000 0.6000
vn 0.6000 0.8000 -0.0000
vn -0.6000 0.8000 0.0000
vn -0.0000 0.8000 -0.6000
usemtl Material.005
s off
f 53//37 54//37 56//37 55//37
f 55//38 56//38 60//38 59//38
f 59//39 60//39 58//39 57//39
f 57//40 58//40 54//40 53//40 62//40 64//40 65//40 63//40
f 55//41 59//41 57//41 63//41 62//41 53//41
usemtl Material.006
f 65//40 64//40 62//40 63//40
usemtl Material.007
f 60//42 56//42 61//42
f 56//43 54//43 61//43
f 58//44 60//44 61//44
f 54//45 58//45 61//45
