# Blender v2.79 (sub 0) OBJ File: 'mine.blend'
# www.blender.org
mtllib mine.mtl
o Cube
v 15.865729 -15.962260 -7.559999
v 15.865729 -0.842259 -7.559999
v 15.865727 -15.962260 7.560001
v 15.865727 -0.842259 7.560001
v 0.745728 -15.962260 -7.560001
v 0.745728 -0.842259 -7.560001
v 0.745727 -15.962260 7.559999
v 0.745727 -0.842259 7.559999
v 15.865729 -15.962260 -6.360000
v 15.865729 -2.042259 -6.360000
v 15.865727 -15.962260 6.360002
v 15.865727 -2.042259 6.360002
v 6.865730 -16.042259 -7.584866
v 6.865727 -16.042259 7.696186
vn 0.8412 -0.5408 0.0000
vn 1.0000 0.0000 0.0000
vn -0.0000 0.0000 1.0000
vn -1.0000 0.0000 -0.0000
vn 0.0000 0.0000 -1.0000
vn 0.0000 1.0000 0.0000
usemtl Material
s off
f 12//1 14//1 13//1 10//1
usemtl Material.001
f 2//2 4//2 12//2 10//2
f 3//3 4//3 8//3 7//3
f 7//4 8//4 6//4 5//4
f 5//5 6//5 2//5 1//5
f 8//6 4//6 2//6 6//6
f 4//2 3//2 11//2 12//2
f 1//2 2//2 10//2 9//2
o Boundary_Cube.001
v -16.000000 -16.000000 16.000000
v -16.000000 16.000000 16.000000
v -16.000000 -16.000000 -16.000000
v -16.000000 16.000000 -16.000000
v 16.000000 -16.000000 16.000000
v 16.000000 16.000000 16.000000
v 16.000000 -16.000000 -16.000000
v 16.000000 16.000000 -16.000000
l 17 15
l 15 16
l 16 18
l 18 17
l 21 17
l 18 22
l 22 21
l 19 21
l 22 20
l 20 19
l 15 19
l 20 16
