# Blender v2.78 (sub 0) OBJ File: 'flag.blend'
# www.blender.org
mtllib redflag.mtl
o Grid
v 10.397248 8.687382 -0.106536
v 9.282508 6.988578 -0.106536
v 8.167767 6.542084 -0.106536
v 7.053026 6.286945 -0.106536
v 5.938285 6.286945 -0.106536
v 4.823545 6.286945 -0.106536
v 3.708804 6.807855 -0.106536
v 2.594064 7.179933 -0.106536
v 1.479323 6.807855 -0.106536
v 0.364582 6.286945 -0.106536
v 10.397248 8.881664 -0.106537
v 9.282508 7.311221 -0.106537
v 8.167767 6.809504 -0.106537
v 7.053026 6.620632 -0.106537
v 5.938285 6.620632 -0.106537
v 4.823545 6.620632 -0.106537
v 3.708804 7.006246 -0.106537
v 2.594064 7.416980 -0.106537
v 1.479323 7.006246 -0.106537
v 0.364582 6.620632 -0.106537
v 10.397248 8.962916 -0.106536
v 9.282508 7.624413 -0.106536
v 8.167767 7.020226 -0.106536
v 7.053026 6.954319 -0.106536
v 5.938285 6.954319 -0.106536
v 4.823545 6.954319 -0.106536
v 3.708804 7.088879 -0.106536
v 2.594064 7.571343 -0.106536
v 1.479323 7.088879 -0.106536
v 0.364582 6.954319 -0.106536
v 10.397248 9.128155 -0.106536
v 9.282508 7.947117 -0.106536
v 8.167767 7.288006 -0.106536
v 7.053026 7.288006 -0.106536
v 5.938285 7.288006 -0.106536
v 4.823545 7.288006 -0.106536
v 3.708804 7.288006 -0.106536
v 2.594064 7.808916 -0.106536
v 1.479323 7.288006 -0.106536
v 0.364582 7.288006 -0.106536
v 10.397248 9.283196 -0.106536
v 9.282508 8.280804 -0.106536
v 8.167767 7.621693 -0.106536
v 7.053026 7.621693 -0.106536
v 5.938285 7.621693 -0.106536
v 4.823545 7.621693 -0.106536
v 3.708804 7.621693 -0.106536
v 2.594064 8.007307 -0.106536
v 1.479323 7.621693 -0.106536
v 0.364582 7.621693 -0.106536
v 10.397248 9.485816 -0.106536
v 9.282508 8.562029 -0.106536
v 8.167767 7.955380 -0.106536
v 7.053026 7.955380 -0.106536
v 5.938285 7.955380 -0.106536
v 4.823545 7.955380 -0.106536
v 3.708804 7.955380 -0.106536
v 2.594064 8.089940 -0.106536
v 1.479323 7.955380 -0.106536
v 0.364582 7.955380 -0.106536
v 10.397248 9.666261 -0.106536
v 9.282508 8.798368 -0.106536
v 8.167767 8.289067 -0.106536
v 7.053026 8.289067 -0.106536
v 5.938285 8.289067 -0.106536
v 4.823545 8.289067 -0.106536
v 3.708804 8.289067 -0.106536
v 2.594064 8.289067 -0.106536
v 1.479323 8.289067 -0.106536
v 0.364582 8.289067 -0.106536
v 10.397248 9.846386 -0.106536
v 9.282508 8.991596 -0.106536
v 8.167767 8.497532 -0.106536
v 7.053026 8.451397 -0.106536
v 5.938285 8.507418 -0.106536
v 4.823545 8.622755 -0.106536
v 3.708804 8.724910 -0.106536
v 2.594064 8.787521 -0.106536
v 1.479323 8.780931 -0.106536
v 0.364582 8.622755 -0.106536
v 10.397248 9.982559 -0.106536
v 9.282508 9.107411 -0.106536
v 8.167767 8.597585 -0.106536
v 7.053026 8.465375 -0.106536
v 5.938285 8.625916 -0.106536
v 4.823545 8.956442 -0.106536
v 3.708804 9.249192 -0.106536
v 2.594064 9.428621 -0.106536
v 1.479323 9.409733 -0.106536
v 0.364582 8.956442 -0.106536
v 10.397248 10.062211 -0.106536
v 9.282508 9.293590 -0.106536
v 8.167767 8.805364 -0.106536
v 7.053026 8.626766 -0.106536
v 5.938285 8.843635 -0.106536
v 4.823545 9.290129 -0.106536
v 3.708804 9.685595 -0.106536
v 2.594064 9.927978 -0.106536
v 1.479323 9.902463 -0.106536
v 0.364582 9.290129 -0.106536
v 10.397248 8.687382 -0.106536
v 9.282508 6.988578 -0.106536
v 8.167767 6.542084 -0.106536
v 7.053026 6.286945 -0.106536
v 5.938285 6.286945 -0.106536
v 4.823545 6.286945 -0.106536
v 3.708804 6.807855 -0.106536
v 2.594064 7.179933 -0.106536
v 1.479323 6.807855 -0.106536
v 0.364582 6.286945 -0.106536
v 10.397248 8.881664 -0.106537
v 0.364582 6.620632 -0.106537
v 10.397248 8.962916 -0.106536
v 0.364582 6.954319 -0.106536
v 10.397248 9.128155 -0.106536
v 0.364582 7.288006 -0.106536
v 10.397248 9.283196 -0.106536
v 0.364582 7.621693 -0.106536
v 10.397248 9.485816 -0.106536
v 0.364582 7.955380 -0.106536
v 10.397248 9.666261 -0.106536
v 0.364582 8.289067 -0.106536
v 10.397248 9.846386 -0.106536
v 0.364582 8.622755 -0.106536
v 10.397248 9.982559 -0.106536
v 0.364582 8.956442 -0.106536
v 10.397248 10.062211 -0.106536
v 9.282508 9.293590 -0.106536
v 8.167767 8.805364 -0.106536
v 7.053026 8.626766 -0.106536
v 5.938285 8.843635 -0.106536
v 4.823545 9.290129 -0.106536
v 3.708804 9.685595 -0.106536
v 2.594064 9.927978 -0.106536
v 1.479323 9.902463 -0.106536
v 0.364582 9.290129 -0.106536
v 10.397248 8.687382 0.161064
v 9.282508 6.988578 0.161064
v 8.167767 6.542084 0.161064
v 7.053026 6.286945 0.161064
v 5.938285 6.286945 0.161064
v 4.823545 6.286945 0.161064
v 3.708804 6.807855 0.161064
v 2.594064 7.179933 0.161064
v 1.479323 6.807855 0.161064
v 0.364582 6.286945 0.161064
v 10.397248 8.881664 0.161064
v 9.282508 7.311221 0.161064
v 8.167767 6.809504 0.161064
v 7.053026 6.620632 0.161064
v 5.938285 6.620632 0.161064
v 4.823545 6.620632 0.161064
v 3.708804 7.006246 0.161064
v 2.594064 7.416980 0.161064
v 1.479323 7.006246 0.161064
v 0.364582 6.620632 0.161064
v 10.397248 8.962916 0.161064
v 9.282508 7.624413 0.161064
v 8.167767 7.020226 0.161064
v 7.053026 6.954319 0.161064
v 5.938285 6.954319 0.161064
v 4.823545 6.954319 0.161064
v 3.708804 7.088879 0.161064
v 2.594064 7.571343 0.161064
v 1.479323 7.088879 0.161064
v 0.364582 6.954319 0.161064
v 10.397248 9.128155 0.161064
v 9.282508 7.947117 0.161064
v 8.167767 7.288006 0.161064
v 7.053026 7.288006 0.161064
v 5.938285 7.288006 0.161064
v 4.823545 7.288006 0.161064
v 3.708804 7.288006 0.161064
v 2.594064 7.808916 0.161064
v 1.479323 7.288006 0.161064
v 0.364582 7.288006 0.161064
v 10.397248 9.283196 0.161064
v 9.282508 8.280804 0.161064
v 8.167767 7.621693 0.161064
v 7.053026 7.621693 0.161064
v 5.938285 7.621693 0.161064
v 4.823545 7.621693 0.161064
v 3.708804 7.621693 0.161064
v 2.594064 8.007307 0.161064
v 1.479323 7.621693 0.161064
v 0.364582 7.621693 0.161064
v 10.397248 9.485816 0.161064
v 9.282508 8.562029 0.161064
v 8.167767 7.955380 0.161064
v 7.053026 7.955380 0.161064
v 5.938285 7.955380 0.161064
v 4.823545 7.955380 0.161064
v 3.708804 7.955380 0.161064
v 2.594064 8.089940 0.161064
v 1.479323 7.955380 0.161064
v 0.364582 7.955380 0.161064
v 10.397248 9.666261 0.161064
v 9.282508 8.798368 0.161064
v 8.167767 8.289067 0.161064
v 7.053026 8.289067 0.161064
v 5.938285 8.289067 0.161064
v 4.823545 8.289067 0.161064
v 3.708804 8.289067 0.161064
v 2.594064 8.289067 0.161064
v 1.479323 8.289067 0.161064
v 0.364582 8.289067 0.161064
v 10.397248 9.846386 0.161064
v 9.282508 8.991596 0.161064
v 8.167767 8.497532 0.161064
v 7.053026 8.451397 0.161064
v 5.938285 8.507418 0.161064
v 4.823545 8.622755 0.161064
v 3.708804 8.724910 0.161064
v 2.594064 8.787521 0.161064
v 1.479323 8.780931 0.161064
v 0.364582 8.622755 0.161064
v 10.397248 9.982559 0.161064
v 9.282508 9.107411 0.161064
v 8.167767 8.597585 0.161064
v 7.053026 8.465375 0.161064
v 5.938285 8.625916 0.161064
v 4.823545 8.956442 0.161064
v 3.708804 9.249192 0.161064
v 2.594064 9.428621 0.161064
v 1.479323 9.409733 0.161064
v 0.364582 8.956442 0.161064
v 10.397248 10.062211 0.161064
v 9.282508 9.293590 0.161064
v 8.167767 8.805364 0.161064
v 7.053026 8.626766 0.161064
v 5.938285 8.843635 0.161064
v 4.823545 9.290129 0.161064
v 3.708804 9.685595 0.161064
v 2.594064 9.927978 0.161064
v 1.479323 9.902463 0.161064
v 0.364582 9.290129 0.161064
vn -0.0000 0.0000 1.0000
vn 1.0000 -0.0000 0.0000
vn 0.0000 -0.0000 -1.0000
vn 0.4815 -0.8765 0.0000
vn -1.0000 0.0000 0.0000
vn 0.4012 -0.9160 0.0000
vn -0.3718 0.9283 0.0000
vn 0.0229 -0.9997 0.0000
vn 0.4234 0.9060 0.0000
vn 0.5677 -0.8233 0.0000
vn -0.8361 0.5486 0.0000
vn -0.2125 -0.9772 0.0000
vn 0.0000 1.0000 0.0000
vn -0.3343 -0.9425 0.0000
vn -0.4234 0.9060 0.0000
vn -0.3718 -0.9283 0.0000
vn -0.3166 0.9486 0.0000
vn -0.1910 -0.9816 0.0000
vn -0.2231 0.9748 0.0000
vn 0.1582 -0.9874 0.0000
vn 0.3166 0.9486 0.0000
usemtl Material.001
s off
f 1//1 11//1 12//1 2//1
f 2//1 12//1 13//1 3//1
f 3//1 13//1 14//1 4//1
f 4//1 14//1 15//1 5//1
f 5//1 15//1 16//1 6//1
f 6//1 16//1 17//1 7//1
f 7//1 17//1 18//1 8//1
f 8//1 18//1 19//1 9//1
f 9//1 19//1 20//1 10//1
f 11//1 21//1 22//1 12//1
f 12//1 22//1 23//1 13//1
f 13//1 23//1 24//1 14//1
f 14//1 24//1 25//1 15//1
f 15//1 25//1 26//1 16//1
f 16//1 26//1 27//1 17//1
f 17//1 27//1 28//1 18//1
f 18//1 28//1 29//1 19//1
f 19//1 29//1 30//1 20//1
f 21//1 31//1 32//1 22//1
f 22//1 32//1 33//1 23//1
f 23//1 33//1 34//1 24//1
f 24//1 34//1 35//1 25//1
f 25//1 35//1 36//1 26//1
f 26//1 36//1 37//1 27//1
f 27//1 37//1 38//1 28//1
f 28//1 38//1 39//1 29//1
f 29//1 39//1 40//1 30//1
f 31//1 41//1 42//1 32//1
f 32//1 42//1 43//1 33//1
f 33//1 43//1 44//1 34//1
f 34//1 44//1 45//1 35//1
f 35//1 45//1 46//1 36//1
f 36//1 46//1 47//1 37//1
f 37//1 47//1 48//1 38//1
f 38//1 48//1 49//1 39//1
f 39//1 49//1 50//1 40//1
f 41//1 51//1 52//1 42//1
f 42//1 52//1 53//1 43//1
f 43//1 53//1 54//1 44//1
f 44//1 54//1 55//1 45//1
f 45//1 55//1 56//1 46//1
f 46//1 56//1 57//1 47//1
f 47//1 57//1 58//1 48//1
f 48//1 58//1 59//1 49//1
f 49//1 59//1 60//1 50//1
f 51//1 61//1 62//1 52//1
f 52//1 62//1 63//1 53//1
f 53//1 63//1 64//1 54//1
f 54//1 64//1 65//1 55//1
f 55//1 65//1 66//1 56//1
f 56//1 66//1 67//1 57//1
f 57//1 67//1 68//1 58//1
f 58//1 68//1 69//1 59//1
f 59//1 69//1 70//1 60//1
f 61//1 71//1 72//1 62//1
f 62//1 72//1 73//1 63//1
f 63//1 73//1 74//1 64//1
f 64//1 74//1 75//1 65//1
f 65//1 75//1 76//1 66//1
f 66//1 76//1 77//1 67//1
f 67//1 77//1 78//1 68//1
f 68//1 78//1 79//1 69//1
f 69//1 79//1 80//1 70//1
f 71//1 81//1 82//1 72//1
f 72//1 82//1 83//1 73//1
f 73//1 83//1 84//1 74//1
f 74//1 84//1 85//1 75//1
f 75//1 85//1 86//1 76//1
f 76//1 86//1 87//1 77//1
f 77//1 87//1 88//1 78//1
f 78//1 88//1 89//1 79//1
f 79//1 89//1 90//1 80//1
f 81//1 91//1 92//1 82//1
f 82//1 92//1 93//1 83//1
f 83//1 93//1 94//1 84//1
f 84//1 94//1 95//1 85//1
f 85//1 95//1 96//1 86//1
f 86//1 96//1 97//1 87//1
f 87//1 97//1 98//1 88//1
f 88//1 98//1 99//1 89//1
f 89//1 99//1 100//1 90//1
f 112//2 114//2 166//2 156//2
f 126//2 136//2 236//2 226//2
f 116//2 118//2 186//2 176//2
f 120//2 122//2 206//2 196//2
f 110//2 112//2 156//2 146//2
f 124//2 126//2 226//2 216//2
f 114//2 116//2 176//2 166//2
f 118//2 120//2 196//2 186//2
f 122//2 124//2 216//2 206//2
f 80//1 90//1 126//1 124//1
f 9//1 10//1 110//1 109//1
f 97//1 96//1 132//1 133//1
f 41//1 31//1 115//1 117//1
f 10//1 20//1 112//1 110//1
f 5//1 6//1 106//1 105//1
f 11//1 1//1 101//1 111//1
f 91//1 81//1 125//1 127//1
f 60//1 70//1 122//1 120//1
f 98//1 97//1 133//1 134//1
f 1//1 2//1 102//1 101//1
f 21//1 11//1 111//1 113//1
f 92//1 91//1 127//1 128//1
f 71//1 61//1 121//1 123//1
f 40//1 50//1 118//1 116//1
f 6//1 7//1 107//1 106//1
f 99//1 98//1 134//1 135//1
f 90//1 100//1 136//1 126//1
f 2//1 3//1 103//1 102//1
f 93//1 92//1 128//1 129//1
f 51//1 41//1 117//1 119//1
f 100//1 99//1 135//1 136//1
f 20//1 30//1 114//1 112//1
f 7//1 8//1 108//1 107//1
f 70//1 80//1 124//1 122//1
f 94//1 93//1 129//1 130//1
f 31//1 21//1 113//1 115//1
f 3//1 4//1 104//1 103//1
f 81//1 71//1 123//1 125//1
f 95//1 94//1 130//1 131//1
f 50//1 60//1 120//1 118//1
f 8//1 9//1 109//1 108//1
f 4//1 5//1 105//1 104//1
f 96//1 95//1 131//1 132//1
f 61//1 51//1 119//1 121//1
f 30//1 40//1 116//1 114//1
f 137//3 138//3 148//3 147//3
f 138//3 139//3 149//3 148//3
f 139//3 140//3 150//3 149//3
f 140//3 141//3 151//3 150//3
f 141//3 142//3 152//3 151//3
f 142//3 143//3 153//3 152//3
f 143//3 144//3 154//3 153//3
f 144//3 145//3 155//3 154//3
f 145//3 146//3 156//3 155//3
f 147//3 148//3 158//3 157//3
f 148//3 149//3 159//3 158//3
f 149//3 150//3 160//3 159//3
f 150//3 151//3 161//3 160//3
f 151//3 152//3 162//3 161//3
f 152//3 153//3 163//3 162//3
f 153//3 154//3 164//3 163//3
f 154//3 155//3 165//3 164//3
f 155//3 156//3 166//3 165//3
f 157//3 158//3 168//3 167//3
f 158//3 159//3 169//3 168//3
f 159//3 160//3 170//3 169//3
f 160//3 161//3 171//3 170//3
f 161//3 162//3 172//3 171//3
f 162//3 163//3 173//3 172//3
f 163//3 164//3 174//3 173//3
f 164//3 165//3 175//3 174//3
f 165//3 166//3 176//3 175//3
f 167//3 168//3 178//3 177//3
f 168//3 169//3 179//3 178//3
f 169//3 170//3 180//3 179//3
f 170//3 171//3 181//3 180//3
f 171//3 172//3 182//3 181//3
f 172//3 173//3 183//3 182//3
f 173//3 174//3 184//3 183//3
f 174//3 175//3 185//3 184//3
f 175//3 176//3 186//3 185//3
f 177//3 178//3 188//3 187//3
f 178//3 179//3 189//3 188//3
f 179//3 180//3 190//3 189//3
f 180//3 181//3 191//3 190//3
f 181//3 182//3 192//3 191//3
f 182//3 183//3 193//3 192//3
f 183//3 184//3 194//3 193//3
f 184//3 185//3 195//3 194//3
f 185//3 186//3 196//3 195//3
f 187//3 188//3 198//3 197//3
f 188//3 189//3 199//3 198//3
f 189//3 190//3 200//3 199//3
f 190//3 191//3 201//3 200//3
f 191//3 192//3 202//3 201//3
f 192//3 193//3 203//3 202//3
f 193//3 194//3 204//3 203//3
f 194//3 195//3 205//3 204//3
f 195//3 196//3 206//3 205//3
f 197//3 198//3 208//3 207//3
f 198//3 199//3 209//3 208//3
f 199//3 200//3 210//3 209//3
f 200//3 201//3 211//3 210//3
f 201//3 202//3 212//3 211//3
f 202//3 203//3 213//3 212//3
f 203//3 204//3 214//3 213//3
f 204//3 205//3 215//3 214//3
f 205//3 206//3 216//3 215//3
f 207//3 208//3 218//3 217//3
f 208//3 209//3 219//3 218//3
f 209//3 210//3 220//3 219//3
f 210//3 211//3 221//3 220//3
f 211//3 212//3 222//3 221//3
f 212//3 213//3 223//3 222//3
f 213//3 214//3 224//3 223//3
f 214//3 215//3 225//3 224//3
f 215//3 216//3 226//3 225//3
f 217//3 218//3 228//3 227//3
f 218//3 219//3 229//3 228//3
f 219//3 220//3 230//3 229//3
f 220//3 221//3 231//3 230//3
f 221//3 222//3 232//3 231//3
f 222//3 223//3 233//3 232//3
f 223//3 224//3 234//3 233//3
f 224//3 225//3 235//3 234//3
f 225//3 226//3 236//3 235//3
usemtl Material.003
f 136//4 135//4 235//4 236//4
f 119//5 117//5 177//5 187//5
f 129//6 128//6 228//6 229//6
f 102//7 103//7 139//7 138//7
f 135//8 134//8 234//8 235//8
f 106//9 107//9 143//9 142//9
f 123//5 121//5 197//5 207//5
f 128//10 127//10 227//10 228//10
f 113//5 111//5 147//5 157//5
f 101//11 102//11 138//11 137//11
f 134//12 133//12 233//12 234//12
f 127//5 125//5 217//5 227//5
f 111//5 101//5 137//5 147//5
f 105//13 106//13 142//13 141//13
f 117//5 115//5 167//5 177//5
f 133//14 132//14 232//14 233//14
f 109//15 110//15 146//15 145//15
f 121//5 119//5 187//5 197//5
f 132//16 131//16 231//16 232//16
f 104//13 105//13 141//13 140//13
f 108//17 109//17 145//17 144//17
f 131//18 130//18 230//18 231//18
f 125//5 123//5 207//5 217//5
f 103//19 104//19 140//19 139//19
f 115//5 113//5 157//5 167//5
f 130//20 129//20 229//20 230//20
f 107//21 108//21 144//21 143//21
o Cylinder
v 0.000000 -9.945350 -0.470143
v 0.000000 9.945350 -0.470143
v 0.091720 -9.945350 -0.461110
v 0.091720 9.945350 -0.461110
v 0.179916 -9.945350 -0.434356
v 0.179916 9.945350 -0.434356
v 0.261198 -9.945350 -0.390910
v 0.261198 9.945350 -0.390910
v 0.332441 -9.945350 -0.332441
v 0.332441 9.945350 -0.332441
v 0.390910 -9.945350 -0.261198
v 0.390910 9.945350 -0.261198
v 0.434356 -9.945350 -0.179916
v 0.434356 9.945350 -0.179916
v 0.461110 -9.945350 -0.091720
v 0.461110 9.945350 -0.091720
v 0.470143 -9.945350 -0.000000
v 0.470143 9.945350 -0.000000
v 0.461110 -9.945350 0.091720
v 0.461110 9.945350 0.091720
v 0.434356 -9.945350 0.179916
v 0.434356 9.945350 0.179916
v 0.390910 -9.945350 0.261198
v 0.390910 9.945350 0.261198
v 0.332441 -9.945350 0.332441
v 0.332441 9.945350 0.332441
v 0.261198 -9.945350 0.390910
v 0.261198 9.945350 0.390910
v 0.179916 -9.945350 0.434356
v 0.179916 9.945350 0.434356
v 0.091720 -9.945350 0.461110
v 0.091720 9.945350 0.461110
v -0.000000 -9.945350 0.470143
v -0.000000 9.945350 0.470143
v -0.091721 -9.945350 0.461109
v -0.091721 9.945350 0.461109
v -0.179916 -9.945350 0.434356
v -0.179916 9.945350 0.434356
v -0.261198 -9.945350 0.390910
v -0.261198 9.945350 0.390910
v -0.332442 -9.945350 0.332441
v -0.332442 9.945350 0.332441
v -0.390910 -9.945350 0.261197
v -0.390910 9.945350 0.261197
v -0.434356 -9.945350 0.179916
v -0.434356 9.945350 0.179916
v -0.461110 -9.945350 0.091720
v -0.461110 9.945350 0.091720
v -0.470143 -9.945350 -0.000000
v -0.470143 9.945350 -0.000000
v -0.461109 -9.945350 -0.091721
v -0.461109 9.945350 -0.091721
v -0.434355 -9.945350 -0.179917
v -0.434355 9.945350 -0.179917
v -0.390909 -9.945350 -0.261198
v -0.390909 9.945350 -0.261198
v -0.332441 -9.945350 -0.332442
v -0.332441 9.945350 -0.332442
v -0.261197 -9.945350 -0.390910
v -0.261197 9.945350 -0.390910
v -0.179915 -9.945350 -0.434356
v -0.179915 9.945350 -0.434356
v -0.091720 -9.945350 -0.461110
v -0.091720 9.945350 -0.461110
vn 0.0980 0.0000 -0.9952
vn 0.2903 0.0000 -0.9569
vn 0.4714 0.0000 -0.8819
vn 0.6344 0.0000 -0.7730
vn 0.7730 0.0000 -0.6344
vn 0.8819 0.0000 -0.4714
vn 0.9569 0.0000 -0.2903
vn 0.9952 0.0000 -0.0980
vn 0.9952 0.0000 0.0980
vn 0.9569 0.0000 0.2903
vn 0.8819 0.0000 0.4714
vn 0.7730 0.0000 0.6344
vn 0.6344 0.0000 0.7730
vn 0.4714 0.0000 0.8819
vn 0.2903 0.0000 0.9569
vn 0.0980 0.0000 0.9952
vn -0.0980 0.0000 0.9952
vn -0.2903 0.0000 0.9569
vn -0.4714 0.0000 0.8819
vn -0.6344 0.0000 0.7730
vn -0.7730 0.0000 0.6344
vn -0.8819 0.0000 0.4714
vn -0.9569 0.0000 0.2903
vn -0.9952 0.0000 0.0980
vn -0.9952 0.0000 -0.0980
vn -0.9569 0.0000 -0.2903
vn -0.8819 0.0000 -0.4714
vn -0.7730 0.0000 -0.6344
vn -0.6344 0.0000 -0.7730
vn -0.4714 0.0000 -0.8819
vn 0.0000 1.0000 0.0000
vn -0.2903 0.0000 -0.9569
vn -0.0980 0.0000 -0.9952
vn 0.0000 -1.0000 0.0000
usemtl Material.002
s off
f 237//22 238//22 240//22 239//22
f 239//23 240//23 242//23 241//23
f 241//24 242//24 244//24 243//24
f 243//25 244//25 246//25 245//25
f 245//26 246//26 248//26 247//26
f 247//27 248//27 250//27 249//27
f 249//28 250//28 252//28 251//28
f 251//29 252//29 254//29 253//29
f 253//30 254//30 256//30 255//30
f 255//31 256//31 258//31 257//31
f 257//32 258//32 260//32 259//32
f 259//33 260//33 262//33 261//33
f 261//34 262//34 264//34 263//34
f 263//35 264//35 266//35 265//35
f 265//36 266//36 268//36 267//36
f 267//37 268//37 270//37 269//37
f 269//38 270//38 272//38 271//38
f 271//39 272//39 274//39 273//39
f 273//40 274//40 276//40 275//40
f 275//41 276//41 278//41 277//41
f 277//42 278//42 280//42 279//42
f 279//43 280//43 282//43 281//43
f 281//44 282//44 284//44 283//44
f 283//45 284//45 286//45 285//45
f 285//46 286//46 288//46 287//46
f 287//47 288//47 290//47 289//47
f 289//48 290//48 292//48 291//48
f 291//49 292//49 294//49 293//49
f 293//50 294//50 296//50 295//50
f 295//51 296//51 298//51 297//51
f 240//52 238//52 300//52 298//52 296//52 294//52 292//52 290//52 288//52 286//52 284//52 282//52 280//52 278//52 276//52 274//52 272//52 270//52 268//52 266//52 264//52 262//52 260//52 258//52 256//52 254//52 252//52 250//52 248//52 246//52 244//52 242//52
f 297//53 298//53 300//53 299//53
f 299//54 300//54 238//54 237//54
f 237//55 239//55 241//55 243//55 245//55 247//55 249//55 251//55 253//55 255//55 257//55 259//55 261//55 263//55 265//55 267//55 269//55 271//55 273//55 275//55 277//55 279//55 281//55 283//55 285//55 287//55 289//55 291//55 293//55 295//55 297//55 299//55
