# Blender v2.79 (sub 0) OBJ File: 'rocket_factory.blend'
# www.blender.org
mtllib rocket_factory.mtl
o Cube_Cube.002
v 1.523669 -30.868912 15.627991
v -15.836330 -30.868912 15.627988
v 1.523671 -30.868912 -15.732009
v -15.836329 -30.868912 -15.732011
v -15.836330 5.726901 15.627988
v -15.836329 5.726901 -15.732011
v 1.523671 5.726901 -15.732009
v 1.523669 5.726901 15.627991
v 1.665359 -30.870796 16.087870
v 1.665359 -15.470797 16.087870
v 1.665353 -30.870796 -15.965395
v 1.665353 -15.470797 -15.965395
v 16.065359 -30.870796 16.087870
v 16.065359 -15.470797 16.087870
v 16.065355 -30.870796 -15.965394
v 16.065355 -15.470797 -15.965394
v 1.549680 0.059844 0.902478
v 1.549680 -1.940156 0.902477
v 1.549680 0.059844 -1.097522
v 1.549680 -1.940156 -1.097522
v 1.549680 0.059844 -3.097522
v 1.549680 -1.940156 -3.097522
v 1.549680 0.059844 -5.097522
v 1.549680 -1.940156 -5.097523
v 1.549680 0.059844 -7.097521
v 1.549680 -1.940156 -7.097522
v 1.549680 0.059844 -9.097521
v 1.549680 -1.940156 -9.097522
v 1.549680 0.059844 -11.097521
v 1.549680 -1.940156 -11.097522
v 1.549680 0.059844 -13.097521
v 1.549680 -1.940156 -13.097522
v 1.549680 0.059844 4.902478
v 1.549680 -1.940156 4.902477
v 1.549680 0.059844 2.902478
v 1.549680 -1.940156 2.902477
v 1.549680 0.059844 8.902478
v 1.549680 -1.940156 8.902477
v 1.549680 0.059844 6.902478
v 1.549680 -1.940156 6.902477
v 1.549680 0.059844 12.902478
v 1.549680 -1.940156 12.902477
v 1.549680 0.059844 10.902478
v 1.549680 -1.940156 10.902477
v -16.128344 0.059842 0.919691
v -16.128344 -1.940158 0.919690
v -16.128344 0.059842 -1.080308
v -16.128344 -1.940158 -1.080309
v -16.128344 0.059842 -3.080308
v -16.128344 -1.940158 -3.080309
v -16.128344 0.059842 -5.080308
v -16.128344 -1.940158 -5.080309
v -16.128344 0.059842 -7.080308
v -16.128344 -1.940158 -7.080309
v -16.128344 0.059842 -9.080307
v -16.128344 -1.940158 -9.080308
v -16.128345 0.059842 -11.080307
v -16.128345 -1.940158 -11.080308
v -16.128345 0.059842 -13.080307
v -16.128345 -1.940158 -13.080308
v -16.128344 0.059842 4.919691
v -16.128344 -1.940158 4.919690
v -16.128344 0.059842 2.919691
v -16.128344 -1.940158 2.919690
v -16.128345 0.059842 8.919692
v -16.128345 -1.940158 8.919691
v -16.128345 0.059842 6.919691
v -16.128345 -1.940158 6.919690
v -16.128345 0.059842 12.919691
v -16.128345 -1.940158 12.919690
v -16.128345 0.059842 10.919691
v -16.128345 -1.940158 10.919690
v -6.450320 0.059844 15.910812
v -6.450321 -1.940156 15.910812
v -8.450319 0.059844 15.910811
v -8.450320 -1.940156 15.910811
v -10.450319 0.059844 15.910811
v -10.450320 -1.940156 15.910811
v -12.450318 0.059844 15.910811
v -12.450319 -1.940156 15.910811
v -2.450321 0.059844 15.910812
v -2.450322 -1.940156 15.910812
v -4.450320 0.059844 15.910812
v -4.450321 -1.940156 15.910812
v -5.450320 0.059844 -16.089188
v -5.450321 -1.940156 -16.089188
v -7.450320 0.059844 -16.089188
v -7.450321 -1.940156 -16.089188
v -9.450320 0.059844 -16.089188
v -9.450321 -1.940156 -16.089188
v -11.450319 0.059844 -16.089188
v -11.450320 -1.940156 -16.089188
v -1.450321 0.059844 -16.089188
v -1.450322 -1.940156 -16.089188
v -3.450320 0.059844 -16.089188
v -3.450321 -1.940156 -16.089188
vn 0.0000 0.0000 -1.0000
vn 1.0000 0.0000 0.0000
vn -0.0000 0.0000 1.0000
vn -1.0000 0.0000 -0.0000
vn 0.0000 -1.0000 0.0000
vn 0.0000 1.0000 0.0000
usemtl Material
s off
f 4//1 6//1 7//1 3//1
f 7//2 8//2 1//2 3//2
f 1//3 8//3 5//3 2//3
f 2//4 5//4 6//4 4//4
f 2//5 4//5 3//5 1//5
f 5//6 8//6 7//6 6//6
usemtl Material.004
f 9//4 10//4 12//4 11//4
f 11//1 12//1 16//1 15//1
f 15//2 16//2 14//2 13//2
f 13//3 14//3 10//3 9//3
f 11//5 15//5 13//5 9//5
f 16//6 12//6 10//6 14//6
usemtl Material.005
f 17//2 18//2 20//2 19//2
f 21//2 22//2 24//2 23//2
f 25//2 26//2 28//2 27//2
f 29//2 30//2 32//2 31//2
f 33//2 34//2 36//2 35//2
f 37//2 38//2 40//2 39//2
f 41//2 42//2 44//2 43//2
f 45//2 46//2 48//2 47//2
f 49//2 50//2 52//2 51//2
f 53//2 54//2 56//2 55//2
f 57//2 58//2 60//2 59//2
f 61//2 62//2 64//2 63//2
f 65//2 66//2 68//2 67//2
f 69//2 70//2 72//2 71//2
f 73//1 74//1 76//1 75//1
f 77//1 78//1 80//1 79//1
f 81//1 82//1 84//1 83//1
f 85//1 86//1 88//1 87//1
f 89//1 90//1 92//1 91//1
f 93//1 94//1 96//1 95//1
o Boundary_Cube.001
v -16.000000 -16.000000 16.000000
v -16.000000 16.000000 16.000000
v -16.000000 -16.000000 -16.000000
v -16.000000 16.000000 -16.000000
v 16.000000 -16.000000 16.000000
v 16.000000 16.000000 16.000000
v 16.000000 -16.000000 -16.000000
v 16.000000 16.000000 -16.000000
l 99 97
l 97 98
l 98 100
l 100 99
l 103 99
l 100 104
l 104 103
l 101 103
l 104 102
l 102 101
l 97 101
l 102 98
