# Blender v2.79 (sub 0) OBJ File: 'bandit.blend'
# www.blender.org
mtllib bandit.mtl
o Plane.003_Plane.002
v 2.730963 24.617260 -7.699753
v -0.345680 27.732393 -7.699753
v -3.448994 24.486813 -7.699753
v 2.053024 -6.677228 -7.699753
v 5.445956 -7.140903 -7.699752
v 4.558141 -9.331583 -7.699752
v -5.830896 -9.407921 -7.699753
v -2.490964 -6.580423 -7.699753
v -6.125389 -7.024736 -7.699753
v -1.560327 -12.937618 -7.699753
v -1.790854 -9.239582 -7.699753
v 0.432812 -12.627135 -7.699753
v 1.145088 -9.174103 -7.699753
v 2.730963 24.617260 -10.110088
v -0.345680 27.732393 -10.110089
v -3.448994 24.486813 -10.110089
v 2.053024 -6.677228 -10.110088
v 5.445956 -7.140903 -10.110088
v 4.558141 -9.331583 -10.110088
v -5.830896 -9.407921 -10.110089
v -2.490964 -6.580423 -10.110088
v -6.125389 -7.024736 -10.110089
v -1.560327 -12.937618 -10.110089
v -1.790854 -9.239582 -10.110088
v 0.432812 -12.627135 -10.110088
v 1.145088 -9.174103 -10.110088
vn 0.0000 -0.0000 -1.0000
vn -0.0000 0.0000 1.0000
vn 0.7115 0.7027 0.0000
vn -0.7228 0.6911 0.0000
vn 0.9998 -0.0217 0.0000
vn -0.9995 -0.0308 0.0000
vn 0.1539 -0.9881 0.0000
vn -0.9981 -0.0622 0.0000
vn 0.9794 -0.2020 0.0000
vn 0.1354 0.9908 0.0000
vn 0.9268 -0.3756 0.0000
vn -0.0461 -0.9989 0.0000
vn 0.0416 -0.9991 0.0000
vn -0.1213 0.9926 0.0000
vn -0.9925 -0.1226 0.0000
usemtl Material.011
s off
f 15//1 14//1 17//1 21//1 16//1
f 2//2 3//2 8//2 4//2 1//2
f 2//3 1//3 14//3 15//3
f 3//4 2//4 15//4 16//4
f 1//5 4//5 17//5 14//5
f 8//6 3//6 16//6 21//6
usemtl Material.012
f 12//7 10//7 23//7 25//7
f 10//8 11//8 24//8 23//8
f 13//9 12//9 25//9 26//9
f 12//2 13//2 11//2 10//2
f 25//1 23//1 24//1 26//1
usemtl Material.013
f 4//10 5//10 18//10 17//10
f 5//11 6//11 19//11 18//11
f 6//12 13//12 26//12 19//12
f 11//13 7//13 20//13 24//13
f 9//14 8//14 21//14 22//14
f 7//15 9//15 22//15 20//15
f 17//1 18//1 19//1 26//1 24//1 20//1 22//1 21//1
f 4//2 8//2 9//2 7//2 11//2 13//2 6//2 5//2
o Plane.002_Plane.000
v 2.730963 24.617260 9.949853
v -0.345680 27.732393 9.949853
v -3.448994 24.486813 9.949853
v 2.053024 -6.677228 9.949853
v 5.445956 -7.140903 9.949853
v 4.558141 -9.331583 9.949853
v -5.830896 -9.407921 9.949853
v -2.490964 -6.580423 9.949853
v -6.125389 -7.024736 9.949853
v -1.560327 -12.937618 9.949853
v -1.790854 -9.239582 9.949853
v 0.432812 -12.627135 9.949853
v 1.145088 -9.174103 9.949853
v 2.730963 24.617260 7.539517
v -0.345680 27.732393 7.539516
v -3.448994 24.486813 7.539516
v 2.053024 -6.677228 7.539517
v 5.445956 -7.140903 7.539517
v 4.558141 -9.331583 7.539517
v -5.830896 -9.407921 7.539516
v -2.490964 -6.580423 7.539517
v -6.125389 -7.024736 7.539516
v -1.560327 -12.937618 7.539516
v -1.790854 -9.239582 7.539517
v 0.432812 -12.627135 7.539517
v 1.145088 -9.174103 7.539517
vn 0.0000 -0.0000 -1.0000
vn 0.0000 0.0000 1.0000
vn 0.7115 0.7027 0.0000
vn -0.7228 0.6911 0.0000
vn 0.9998 -0.0217 0.0000
vn -0.9995 -0.0308 0.0000
vn 0.1539 -0.9881 0.0000
vn -0.9981 -0.0622 0.0000
vn 0.9794 -0.2020 0.0000
vn 0.1354 0.9908 0.0000
vn 0.9268 -0.3756 0.0000
vn -0.0461 -0.9989 0.0000
vn 0.0416 -0.9991 0.0000
vn -0.1213 0.9926 0.0000
vn -0.9925 -0.1226 0.0000
usemtl Material.011
s off
f 41//16 40//16 43//16 47//16 42//16
f 28//17 29//17 34//17 30//17 27//17
f 28//18 27//18 40//18 41//18
f 29//19 28//19 41//19 42//19
f 27//20 30//20 43//20 40//20
f 34//21 29//21 42//21 47//21
usemtl Material.012
f 38//22 36//22 49//22 51//22
f 36//23 37//23 50//23 49//23
f 39//24 38//24 51//24 52//24
f 38//17 39//17 37//17 36//17
f 51//16 49//16 50//16 52//16
usemtl Material.013
f 30//25 31//25 44//25 43//25
f 31//26 32//26 45//26 44//26
f 32//27 39//27 52//27 45//27
f 37//28 33//28 46//28 50//28
f 35//29 34//29 47//29 48//29
f 33//30 35//30 48//30 46//30
f 43//16 44//16 45//16 52//16 50//16 46//16 48//16 47//16
f 30//17 34//17 35//17 33//17 37//17 39//17 32//17 31//17
o Plane.001_Plane.003
v -11.730961 24.617260 -1.140115
v -8.654318 27.732393 -1.140115
v -5.551006 24.486813 -1.140115
v -11.053023 -6.677227 -1.140118
v -14.445956 -7.140903 -1.140119
v -13.558141 -9.331582 -1.140119
v -3.169104 -9.407921 -1.140118
v -6.509036 -6.580423 -1.140118
v -2.874611 -7.024735 -1.140118
v -7.439673 -12.937618 -1.140119
v -7.209146 -9.239582 -1.140118
v -9.432812 -12.627134 -1.140119
v -10.145088 -9.174103 -1.140119
v -11.730961 24.617260 1.270221
v -8.654318 27.732393 1.270222
v -5.551006 24.486813 1.270222
v -11.053023 -6.677227 1.270218
v -14.445956 -7.140903 1.270217
v -13.558141 -9.331582 1.270217
v -3.169104 -9.407921 1.270218
v -6.509036 -6.580423 1.270218
v -2.874611 -7.024735 1.270218
v -7.439673 -12.937618 1.270217
v -7.209146 -9.239582 1.270218
v -9.432812 -12.627134 1.270217
v -10.145088 -9.174103 1.270218
vn -0.0000 -0.0000 1.0000
vn 0.0000 0.0000 -1.0000
vn -0.7115 0.7027 0.0000
vn 0.7228 0.6911 0.0000
vn -0.9998 -0.0217 0.0000
vn 0.9995 -0.0308 0.0000
vn -0.1539 -0.9881 0.0000
vn 0.9981 -0.0622 0.0000
vn -0.9794 -0.2020 0.0000
vn -0.1354 0.9908 0.0000
vn -0.9268 -0.3756 0.0000
vn 0.0461 -0.9989 0.0000
vn -0.0416 -0.9991 0.0000
vn 0.1213 0.9926 0.0000
vn 0.9925 -0.1226 0.0000
usemtl Material.011
s off
f 67//31 66//31 69//31 73//31 68//31
f 54//32 55//32 60//32 56//32 53//32
f 54//33 53//33 66//33 67//33
f 55//34 54//34 67//34 68//34
f 53//35 56//35 69//35 66//35
f 60//36 55//36 68//36 73//36
usemtl Material.012
f 64//37 62//37 75//37 77//37
f 62//38 63//38 76//38 75//38
f 65//39 64//39 77//39 78//39
f 64//32 65//32 63//32 62//32
f 77//31 75//31 76//31 78//31
usemtl Material.013
f 56//40 57//40 70//40 69//40
f 57//41 58//41 71//41 70//41
f 58//42 65//42 78//42 71//42
f 63//43 59//43 72//43 76//43
f 61//44 60//44 73//44 74//44
f 59//45 61//45 74//45 72//45
f 69//31 70//31 71//31 78//31 76//31 72//31 74//31 73//31
f 56//32 60//32 61//32 59//32 63//32 65//32 58//32 57//32
o Plane_Plane.001
v 11.730963 24.617260 1.300247
v 8.654320 27.732393 1.300247
v 5.551006 24.486813 1.300247
v 11.053024 -6.677228 1.300247
v 14.445956 -7.140903 1.300247
v 13.558141 -9.331583 1.300247
v 3.169104 -9.407921 1.300247
v 6.509036 -6.580423 1.300247
v 2.874611 -7.024736 1.300247
v 7.439673 -12.937618 1.300247
v 7.209146 -9.239582 1.300247
v 9.432812 -12.627135 1.300247
v 10.145088 -9.174103 1.300247
v 11.730963 24.617260 -1.110089
v 8.654320 27.732393 -1.110089
v 5.551006 24.486813 -1.110089
v 11.053024 -6.677228 -1.110089
v 14.445956 -7.140903 -1.110089
v 13.558141 -9.331583 -1.110089
v 3.169104 -9.407921 -1.110089
v 6.509036 -6.580423 -1.110089
v 2.874611 -7.024736 -1.110089
v 7.439673 -12.937618 -1.110089
v 7.209146 -9.239582 -1.110089
v 9.432812 -12.627135 -1.110089
v 10.145088 -9.174103 -1.110089
vn 0.0000 -0.0000 -1.0000
vn -0.0000 0.0000 1.0000
vn 0.7115 0.7027 0.0000
vn -0.7228 0.6911 0.0000
vn 0.9998 -0.0217 0.0000
vn -0.9995 -0.0308 0.0000
vn 0.1539 -0.9881 0.0000
vn -0.9981 -0.0622 0.0000
vn 0.9794 -0.2020 0.0000
vn 0.1354 0.9908 0.0000
vn 0.9268 -0.3756 0.0000
vn -0.0461 -0.9989 0.0000
vn 0.0416 -0.9991 0.0000
vn -0.1213 0.9926 0.0000
vn -0.9925 -0.1226 0.0000
usemtl Material.011
s off
f 93//46 92//46 95//46 99//46 94//46
f 80//47 81//47 86//47 82//47 79//47
f 80//48 79//48 92//48 93//48
f 81//49 80//49 93//49 94//49
f 79//50 82//50 95//50 92//50
f 86//51 81//51 94//51 99//51
usemtl Material.012
f 90//52 88//52 101//52 103//52
f 88//53 89//53 102//53 101//53
f 91//54 90//54 103//54 104//54
f 90//47 91//47 89//47 88//47
f 103//46 101//46 102//46 104//46
usemtl Material.013
f 82//55 83//55 96//55 95//55
f 83//56 84//56 97//56 96//56
f 84//57 91//57 104//57 97//57
f 89//58 85//58 98//58 102//58
f 87//59 86//59 99//59 100//59
f 85//60 87//60 100//60 98//60
f 95//46 96//46 97//46 104//46 102//46 98//46 100//46 99//46
f 82//47 86//47 87//47 85//47 89//47 91//47 84//47 83//47
o Boundary_Cube.001
v -16.000000 -16.000000 16.000000
v -16.000000 16.000000 16.000000
v -16.000000 -16.000000 -16.000000
v -16.000000 16.000000 -16.000000
v 16.000000 -16.000000 16.000000
v 16.000000 16.000000 16.000000
v 16.000000 -16.000000 -16.000000
v 16.000000 16.000000 -16.000000
l 107 105
l 105 106
l 106 108
l 108 107
l 111 107
l 108 112
l 112 111
l 109 111
l 112 110
l 110 109
l 105 109
l 110 106
