# Blender v2.79 (sub 0) OBJ File: 'task_farm.blend'
# www.blender.org
mtllib task_farm.mtl
o Plane
v -0.900000 -4.000000 0.000000
v 1.000000 0.400000 0.000000
v -2.585275 4.000000 -0.000000
v 2.694413 4.000000 -0.000000
v 1.000000 -4.000000 0.000000
v 2.694413 0.409664 -0.000000
v -1.492257 1.400000 -0.000000
v -1.487050 4.000000 -0.000000
v 1.585275 1.400000 -0.000000
v 0.508878 1.400000 -0.000000
v 1.585275 4.000000 -0.000000
v -0.491122 4.000000 -0.000000
v -0.500000 1.400000 -0.000000
v 0.500000 4.000000 -0.000000
v -0.976871 0.422162 0.000000
v -2.573242 0.430644 -0.000000
vn 0.0000 0.0000 1.0000
usemtl Material
s off
f 15//1 1//1 5//1 2//1
usemtl Material.001
f 8//1 3//1 16//1 15//1 2//1 6//1 4//1 11//1 9//1 10//1 14//1 12//1 13//1 7//1
