# Blender v2.79 (sub 0) OBJ File: 'task_produce.blend'
# www.blender.org
mtllib produce.mtl
o Plane
v -2.506361 -4.000000 0.000000
v 4.000000 2.006239 0.000000
v -4.000000 2.968031 -0.000000
v 3.158131 4.000000 -0.000000
v -2.851493 4.000000 -0.000000
v 4.000000 3.095906 -0.000000
v 2.444136 -4.000000 0.000000
v -4.000000 1.928152 0.000000
v 0.000000 0.904665 -0.000000
v -2.000000 1.280052 -0.000000
v 2.000000 1.321359 -0.000000
v -0.000000 0.292509 0.000000
v -2.000000 0.499297 0.000000
v 2.000000 0.538340 0.000000
v -3.353608 2.556229 -0.000000
v 3.170256 2.549144 -0.000000
v -2.462157 3.462899 -0.000000
v 2.495340 3.451305 -0.000000
v -3.000000 1.213724 0.000000
v 3.000000 1.272289 0.000000
v 1.519203 -3.340796 0.000000
v -1.500000 -3.342341 0.000000
vn -0.0000 -0.0000 1.0000
vn 0.0000 0.0000 -1.0000
usemtl Material.001
s off
f 10//1 9//1 11//1 16//1 18//1 17//1 15//1
f 14//2 21//2 12//2
f 20//2 21//2 14//2
f 21//2 22//2 12//2
f 12//2 22//2 13//2
f 19//2 13//2 22//2
usemtl Material
f 6//2 2//2 20//2 14//2 11//2 16//2
f 6//2 16//2 18//2 4//2
f 4//2 18//2 17//2 5//2
f 5//2 17//2 15//2 3//2
f 8//2 3//2 15//2 10//2 13//2 19//2
f 11//2 14//2 12//2 13//2 10//2 9//2
f 2//2 7//2 21//2 20//2
f 7//2 1//2 22//2 21//2
f 1//2 8//2 19//2 22//2
