# Blender v2.79 (sub 0) OBJ File: 'task_super_rest.blend'
# www.blender.org
mtllib super_rest.mtl
o Plane
v -4.000000 -2.600000 0.000000
v -0.800000 -2.600000 0.000000
v -4.000000 -3.400000 -0.000000
v -0.800000 -3.400000 -0.000000
v -3.200000 -2.600000 0.000000
v -4.000000 -1.800000 0.000000
v -3.200000 -1.800000 0.000000
v -0.800000 -0.200000 0.000000
v -3.200000 -1.000000 0.000000
v -2.400000 -1.000000 0.000000
v -2.400000 -0.200000 0.000000
v -1.600000 -0.200000 0.000000
v -1.600000 -1.000000 0.000000
v -2.400000 -1.800000 0.000000
v -0.800000 0.600000 0.000000
v -1.600000 0.600000 0.000000
v -4.000000 0.600000 0.000000
v -4.000000 1.400000 0.000000
v -0.800000 1.400000 0.000000
v -4.000000 -0.200000 0.000000
v -0.800000 -1.000000 0.000000
v -1.600000 -1.800000 0.000000
v -2.400000 -2.600000 0.000000
v -0.800000 -4.000000 -0.000000
v -4.000000 -4.000000 -0.000000
v -0.759213 -0.568221 0.000001
v 1.800787 -0.568221 0.000000
v -0.759213 -1.208221 0.000000
v 1.800787 -1.208221 0.000000
v -0.119213 -0.568221 0.000000
v -0.759213 0.071779 0.000001
v -0.119213 0.071779 0.000001
v 1.800787 1.351779 0.000001
v -0.119213 0.711779 0.000001
v 0.520787 0.711779 0.000001
v 0.520787 1.351779 0.000001
v 1.160787 1.351779 0.000001
v 1.160787 0.711779 0.000001
v 0.520787 0.071779 0.000001
v 1.800787 1.991780 0.000001
v 1.160787 1.991780 0.000001
v -0.759213 1.991780 0.000001
v -0.759213 2.631780 0.000001
v 1.800787 2.631780 0.000001
v -0.759213 1.351779 0.000001
v 1.800787 0.711779 0.000001
v 1.160787 0.071779 0.000001
v 0.520787 -0.568221 0.000001
v 1.800787 -1.688221 0.000000
v -0.759213 -1.688221 0.000000
v 1.849683 1.297667 0.000000
v 4.000083 1.297667 0.000000
v 1.849683 0.760067 0.000000
v 4.000083 0.760067 0.000000
v 2.387283 1.297667 0.000000
v 1.849683 1.835267 0.000000
v 2.387283 1.835267 0.000000
v 4.000083 2.910467 0.000000
v 2.387283 2.372867 0.000000
v 2.924883 2.372867 0.000000
v 2.924883 2.910467 0.000000
v 3.462483 2.910467 0.000000
v 3.462483 2.372867 0.000000
v 2.924883 1.835267 0.000000
v 4.000083 3.448067 0.000000
v 3.462483 3.448067 0.000000
v 1.849683 3.448067 0.000000
v 1.849683 3.985668 0.000000
v 4.000083 3.985668 0.000000
v 1.849683 2.910467 0.000000
v 4.000083 2.372867 0.000000
v 3.462483 1.835267 0.000000
v 2.924883 1.297667 0.000000
v 4.000083 0.356868 0.000000
v 1.849683 0.356868 0.000000
vn 0.0000 -0.0000 1.0000
vn 0.0000 0.0000 -1.0000
usemtl Material
s off
f 7//1 6//1 1//1 5//1
f 9//2 10//2 14//2 7//2
f 11//2 12//2 13//2 10//2
f 3//1 4//1 2//1 23//1 5//1 1//1
f 8//1 15//1 16//1 12//1
f 19//1 18//1 17//1 16//1 15//1
f 32//1 31//1 26//1 30//1
f 34//2 35//2 39//2 32//2
f 36//2 37//2 38//2 35//2
f 28//1 29//1 27//1 48//1 30//1 26//1
f 33//1 40//1 41//1 37//1
f 44//1 43//1 42//1 41//1 40//1
f 57//1 56//1 51//1 55//1
f 59//2 60//2 64//2 57//2
f 61//2 62//2 63//2 60//2
f 53//1 54//1 52//1 73//1 55//1 51//1
f 58//1 65//1 66//1 62//1
f 69//1 68//1 67//1 66//1 65//1
usemtl Material.001
f 11//2 20//2 17//2 16//2 12//2
f 8//2 21//2 13//2 12//2
f 13//2 22//2 14//2 10//2
f 14//1 7//1 5//1 23//1
f 3//1 25//1 24//1 4//1
f 36//2 45//2 42//2 41//2 37//2
f 33//2 46//2 38//2 37//2
f 38//2 47//2 39//2 35//2
f 39//1 32//1 30//1 48//1
f 28//1 50//1 49//1 29//1
f 61//2 70//2 67//2 66//2 62//2
f 58//2 71//2 63//2 62//2
f 63//2 72//2 64//2 60//2
f 64//1 57//1 55//1 73//1
f 53//1 75//1 74//1 54//1
